<?xml version="1.0" standalone="no"?>
<!DOCTYPE svg PUBLIC "-//W3C//DTD SVG 20010904//EN"
 "http://www.w3.org/TR/2001/REC-SVG-20010904/DTD/svg10.dtd">
<svg version="1.0" xmlns="http://www.w3.org/2000/svg"
 width="1259.000000pt" height="1280.000000pt" viewBox="0 0 1259.000000 1280.000000"
 preserveAspectRatio="xMidYMid meet">
<metadata>
Created by potrace 1.15, written by Peter Selinger 2001-2017
</metadata>
<g transform="translate(0.000000,1280.000000) scale(0.100000,-0.100000)"
fill="#000000" stroke="none">
<path d="M8656 11531 c-3 -4 -28 -11 -55 -15 -27 -3 -54 -13 -61 -21 -7 -8
-18 -15 -26 -15 -19 0 -44 -40 -44 -70 0 -32 35 -90 54 -90 20 0 46 -39 46
-69 0 -14 9 -35 21 -47 19 -20 20 -26 8 -57 -10 -30 -10 -39 2 -58 14 -20 13
-28 -4 -75 -19 -51 -21 -53 -71 -64 -28 -7 -65 -21 -82 -31 -17 -11 -41 -19
-53 -19 -12 0 -31 -5 -42 -11 -16 -8 -26 -5 -50 15 -37 31 -48 32 -96 6 -21
-11 -45 -20 -55 -20 -9 0 -19 -4 -22 -9 -3 -4 -48 -6 -100 -3 -88 4 -95 3
-107 -17 -8 -11 -23 -21 -34 -21 -11 0 -65 -16 -120 -35 -55 -19 -110 -35
-122 -35 -13 0 -37 16 -60 41 -43 46 -117 99 -138 99 -18 0 -185 68 -202 82
-17 13 -110 0 -128 -19 -8 -8 -15 -21 -15 -29 0 -8 -19 6 -43 31 -25 25 -53
45 -65 45 -11 0 -24 5 -27 10 -3 6 -19 10 -36 10 -22 0 -29 5 -29 18 0 11 -9
27 -20 37 -12 11 -20 31 -20 50 0 18 -10 45 -21 60 -19 23 -26 26 -58 20 -20
-4 -45 -15 -56 -25 -11 -10 -44 -21 -76 -24 -53 -7 -58 -5 -90 23 -41 38 -77
40 -117 6 -25 -21 -36 -24 -79 -18 -73 8 -93 -6 -93 -66 0 -43 -2 -49 -19 -44
-10 3 -30 -2 -42 -10 -21 -14 -26 -14 -43 -1 -27 19 -53 18 -83 -6 -14 -11
-39 -20 -56 -20 -18 0 -41 -9 -55 -22 -18 -17 -36 -23 -72 -23 -36 0 -54 -6
-72 -22 -30 -28 -38 -28 -88 -3 -53 27 -157 28 -201 1 -32 -19 -32 -19 -60 1
-25 19 -33 20 -68 9 -42 -12 -81 -52 -81 -82 0 -25 -56 -39 -112 -29 -143 26
-181 31 -255 33 -120 2 -140 -21 -153 -175 -3 -48 -10 -91 -14 -95 -4 -4 -15
3 -25 15 -23 31 -74 28 -79 -4 -6 -41 -35 -55 -123 -59 -59 -3 -90 0 -111 11
-16 8 -38 12 -49 9 -12 -4 -28 -1 -37 7 -23 20 -91 38 -140 38 -29 0 -49 -7
-72 -26 l-31 -27 -23 22 c-26 25 -35 26 -78 7 -18 -8 -52 -22 -76 -32 -48 -20
-82 -56 -82 -88 0 -21 -92 -126 -110 -126 -5 0 -13 -15 -18 -32 -8 -32 -10
-33 -60 -30 -38 3 -55 -1 -70 -15 -41 -40 -85 -66 -97 -57 -54 40 -71 47 -128
51 -57 5 -65 3 -95 -22 -42 -35 -76 -43 -137 -32 -67 12 -151 -6 -160 -34 -6
-19 -8 -19 -24 -5 -27 24 -69 20 -82 -7 -6 -13 -24 -31 -40 -41 -16 -9 -29
-23 -29 -30 0 -8 -6 -19 -14 -25 -12 -10 -12 -16 2 -44 8 -18 30 -50 49 -71
37 -44 41 -76 21 -162 -9 -40 -19 -56 -46 -74 -19 -14 -35 -35 -39 -51 -6 -33
-25 -42 -57 -27 -33 14 -74 3 -87 -25 -6 -13 -20 -27 -32 -32 -17 -8 -23 -21
-27 -60 -7 -56 -29 -104 -71 -153 -24 -26 -29 -42 -29 -82 0 -39 -4 -52 -20
-60 -15 -8 -20 -21 -20 -53 0 -94 -22 -108 -163 -112 -100 -2 -135 -19 -152
-73 -8 -28 -14 -32 -45 -32 -59 0 -63 -8 -49 -81 6 -35 19 -73 29 -84 28 -33
60 -95 60 -116 0 -22 -15 -24 -50 -4 -31 18 -66 19 -76 3 -12 -20 -13 -71 -2
-101 10 -26 8 -31 -21 -58 -18 -16 -35 -29 -38 -29 -4 0 -14 -7 -24 -16 -16
-14 -21 -13 -58 10 -22 14 -64 35 -93 46 -49 18 -54 19 -77 3 l-25 -16 23 -18
c12 -10 38 -23 57 -28 52 -14 133 -79 127 -101 -3 -10 -13 -20 -24 -23 -13 -4
-19 -14 -19 -35 0 -17 -5 -34 -10 -37 -17 -10 -1 -25 28 -25 31 -1 62 -21 62
-40 0 -8 7 -22 16 -32 16 -16 16 -18 0 -24 -18 -7 -22 -39 -6 -49 6 -3 10 -17
10 -31 0 -14 6 -24 14 -24 18 0 46 -44 46 -73 0 -13 14 -37 34 -56 27 -26 48
-36 98 -45 l63 -11 6 -39 c4 -24 16 -48 31 -61 13 -11 43 -47 67 -78 23 -32
64 -73 90 -92 58 -42 75 -72 66 -114 -5 -22 0 -43 18 -78 44 -87 49 -113 28
-139 -16 -21 -20 -22 -31 -9 -21 25 -39 17 -93 -38 -42 -43 -57 -69 -79 -133
-39 -113 -62 -242 -47 -260 18 -22 37 -17 54 16 18 35 30 38 45 10 13 -23 48
-27 56 -5 4 8 11 15 16 15 5 0 23 9 39 21 l30 21 24 -26 c14 -15 35 -26 50
-26 29 0 31 7 9 38 -15 21 -15 25 0 41 9 10 16 27 16 38 0 25 -39 45 -64 31
-25 -14 -29 -5 -22 47 6 40 10 45 34 46 15 1 34 0 42 -1 8 -1 24 10 36 26 l22
27 11 -39 c6 -21 11 -47 11 -57 0 -10 7 -32 16 -49 15 -29 15 -31 -9 -57 -47
-50 -58 -89 -33 -113 8 -8 15 -23 18 -34 2 -10 13 -20 24 -22 16 -2 27 9 47
48 15 29 27 58 27 65 0 23 21 28 36 9 10 -14 13 -34 9 -69 -7 -70 5 -109 36
-113 30 -4 54 -48 38 -69 -7 -7 -8 -26 -4 -45 7 -33 7 -62 3 -108 -3 -20 2
-25 25 -30 16 -3 33 -15 40 -30 16 -33 53 -38 78 -11 11 12 30 21 43 21 13 0
47 21 81 51 34 30 63 48 72 45 8 -3 21 -6 29 -6 8 0 14 -9 14 -20 0 -11 5 -20
10 -20 6 0 8 -10 5 -23 -5 -19 1 -29 27 -49 18 -13 48 -28 66 -31 29 -6 40 -2
74 27 21 19 54 37 71 40 89 19 93 18 123 -7 25 -22 27 -28 17 -44 -7 -10 -26
-43 -42 -73 -32 -60 -73 -104 -108 -114 -30 -9 -95 11 -129 40 -15 14 -45 27
-66 30 -21 4 -41 11 -44 15 -3 5 -18 9 -33 9 -28 0 -28 -1 -33 -72 -5 -67 -9
-80 -58 -158 -84 -134 -144 -190 -180 -168 -10 6 -24 9 -32 6 -15 -6 -58 -111
-58 -141 0 -29 44 -65 100 -82 89 -28 116 -49 130 -101 10 -34 11 -54 3 -74
-23 -61 28 -133 57 -81 9 17 14 18 40 9 17 -5 35 -19 40 -29 6 -10 37 -36 68
-58 32 -22 73 -56 90 -76 51 -58 133 -229 139 -293 l6 -54 -65 -61 c-36 -34
-71 -72 -77 -84 -14 -27 -14 -145 -1 -194 6 -20 28 -56 49 -81 22 -25 41 -57
43 -74 2 -23 8 -30 31 -32 31 -4 33 -12 12 -52 -10 -20 -13 -43 -9 -77 4 -26
6 -81 5 -120 -2 -66 0 -73 16 -73 12 0 28 15 42 40 12 22 30 40 39 40 9 0 26
3 37 6 17 4 26 -5 50 -55 20 -44 34 -61 48 -61 20 0 137 110 137 129 0 5 -8
15 -18 20 -29 16 -40 68 -30 146 14 103 17 115 31 115 7 0 29 9 50 20 41 22
73 25 111 10 30 -11 35 -50 14 -107 -11 -30 -10 -35 18 -64 23 -24 35 -29 56
-25 24 5 32 -2 68 -52 22 -31 43 -68 46 -82 7 -29 41 -105 62 -138 10 -15 15
-44 13 -80 -1 -32 2 -71 7 -87 8 -25 6 -36 -9 -54 -11 -13 -19 -33 -19 -46 0
-25 35 -75 52 -75 6 0 28 -7 49 -17 32 -14 38 -21 44 -59 8 -56 28 -73 56 -48
12 10 19 29 18 44 -1 14 2 34 6 44 5 11 3 38 -5 65 -7 25 -15 67 -18 93 -4 43
-2 49 22 59 15 7 28 23 31 40 4 16 11 29 17 29 7 0 9 19 4 54 -5 50 -4 55 19
70 17 11 25 26 25 45 0 37 16 49 73 57 64 9 114 -2 133 -30 8 -13 18 -56 21
-95 6 -76 22 -103 48 -81 20 17 36 3 29 -24 -4 -19 1 -28 27 -46 20 -15 43
-47 61 -88 l29 -64 42 2 c64 4 67 3 67 -32 0 -19 10 -45 23 -62 21 -25 30 -29
92 -32 73 -4 85 2 85 43 0 13 -14 33 -34 49 -31 25 -33 30 -25 58 9 28 6 33
-23 56 -91 68 -121 121 -97 166 10 20 10 29 1 44 -16 27 -16 28 13 22 18 -3
26 1 31 14 3 11 12 32 21 47 13 25 13 32 -1 62 -9 18 -16 37 -16 43 0 5 -7 15
-15 22 -26 22 -56 102 -71 190 -8 47 -21 97 -29 111 -8 14 -12 29 -8 32 3 4
-4 27 -16 53 -20 42 -25 46 -52 42 -23 -4 -29 -1 -29 14 0 11 4 27 10 37 7 14
-2 41 -40 116 -28 54 -50 105 -50 115 0 10 -18 40 -40 66 -25 31 -40 59 -40
76 0 15 -7 48 -15 73 -9 25 -13 49 -10 54 3 5 1 21 -5 36 -7 18 -7 33 0 46 13
24 26 24 34 2 28 -78 62 -101 118 -82 29 9 41 10 50 1 7 -7 20 -12 30 -12 10
0 21 -8 24 -17 25 -78 18 -73 117 -74 30 0 37 -4 33 -15 -3 -9 -6 -18 -6 -20
0 -3 -12 -9 -26 -14 -22 -9 -25 -15 -22 -52 2 -33 8 -45 26 -54 12 -6 29 -20
36 -30 12 -16 11 -20 -7 -29 -32 -16 -32 -43 -1 -76 50 -52 109 -31 97 34 -5
24 -2 27 22 27 23 0 26 4 23 28 -2 22 1 27 22 30 73 8 85 19 54 54 -14 14 -14
18 -3 21 8 2 30 9 50 16 19 6 61 11 92 11 32 0 80 9 112 21 47 18 55 24 55 47
0 14 -10 36 -22 49 l-22 23 22 16 c29 20 28 42 -3 54 -14 5 -25 16 -25 25 0 9
-9 15 -25 15 -16 0 -25 -6 -25 -16 0 -11 -8 -14 -27 -12 -23 2 -27 7 -25 28 2
14 4 45 5 70 l2 45 -48 3 c-85 6 -124 -41 -72 -86 22 -19 34 -52 20 -52 -3 0
-24 12 -47 28 -23 15 -55 35 -72 45 -49 30 -51 34 -51 115 0 72 -1 77 -22 80
-32 5 -29 18 7 31 27 9 30 14 30 50 0 34 -4 43 -28 55 -15 8 -36 23 -46 35
-15 16 -26 20 -55 15 -20 -3 -49 -1 -64 5 -27 10 -27 11 -11 36 14 22 21 24
59 18 40 -5 51 -1 116 41 75 48 100 53 214 46 51 -2 61 -13 41 -41 -22 -32
-20 -55 6 -73 43 -31 136 -15 168 29 8 11 25 30 39 43 l24 22 12 -22 c11 -23
34 -27 66 -14 19 9 69 -87 69 -134 0 -37 16 -70 33 -70 7 0 25 -16 40 -35 17
-21 37 -35 50 -35 28 0 129 -94 121 -113 -8 -21 21 -42 35 -25 6 7 23 29 39
48 43 53 48 66 51 151 0 28 8 53 19 65 10 10 21 27 25 37 8 22 -17 104 -41
130 -13 15 -14 23 -4 51 15 41 15 62 0 89 -7 12 -18 42 -24 67 -15 55 -5 72
37 63 25 -5 29 -2 29 15 0 12 5 24 10 27 6 3 10 22 10 42 0 33 -9 45 -82 114
-46 43 -88 78 -95 79 -6 0 -49 16 -95 35 -68 29 -91 35 -125 30 -37 -5 -46 -3
-70 21 l-27 27 23 9 c14 5 39 4 60 -2 20 -5 62 -10 92 -10 75 -1 222 -6 235
-8 21 -4 23 -41 3 -47 -29 -9 -25 -45 5 -45 14 0 36 -4 49 -9 20 -8 23 -15 19
-41 -3 -20 1 -37 13 -50 9 -10 14 -24 10 -30 -10 -17 15 -40 44 -40 37 0 57
-33 36 -63 -19 -27 -19 -56 0 -63 8 -4 15 -17 15 -30 0 -22 4 -24 45 -24 49 0
89 -28 79 -54 -6 -16 16 -56 55 -98 40 -44 91 -33 91 21 0 23 1 23 19 7 11
-10 21 -28 23 -40 3 -18 9 -21 49 -20 61 0 104 31 115 81 4 21 8 84 8 140 l1
103 -29 0 c-16 0 -58 -5 -93 -12 -56 -10 -68 -10 -93 5 -15 9 -40 17 -54 17
-14 0 -29 7 -34 16 -5 9 -26 25 -47 37 -36 21 -38 25 -41 74 -1 29 -11 70 -23
90 -11 21 -22 52 -25 68 -15 76 -18 92 -19 127 -1 27 6 45 23 63 21 22 22 27
10 50 -7 14 -37 43 -67 65 -29 23 -53 45 -53 50 0 5 10 18 21 29 12 11 19 26
16 34 -9 23 -75 49 -135 52 -32 1 -64 6 -73 9 -9 4 -21 1 -27 -7 -10 -11 -23
-12 -65 -5 -105 18 -145 37 -175 81 -27 41 -29 42 -85 42 -44 1 -61 6 -80 23
-13 12 -28 22 -34 22 -5 0 -18 9 -29 21 -10 11 -33 27 -51 34 -36 15 -68 73
-79 145 -5 30 -12 40 -30 44 -18 5 -24 13 -24 35 0 32 -13 46 -52 56 -15 4
-32 13 -39 21 -17 21 -59 16 -104 -11 -26 -16 -55 -25 -83 -25 -52 0 -92 -24
-92 -55 0 -16 -7 -25 -25 -29 -13 -3 -35 -17 -49 -31 -25 -25 -56 -33 -56 -15
0 6 5 10 12 10 18 0 68 51 68 70 0 8 14 24 30 33 20 12 30 26 30 43 0 21 -4
24 -40 24 -27 0 -40 4 -40 14 0 25 -49 102 -73 115 -13 7 -27 27 -33 44 -7 24
-18 35 -44 43 -28 9 -37 18 -44 48 -12 47 5 66 68 73 51 6 61 15 61 53 0 37
31 38 50 1 14 -28 20 -31 60 -31 35 0 51 -6 80 -31 19 -17 35 -39 35 -50 0
-10 9 -33 20 -51 25 -42 25 -54 0 -61 -11 -3 -20 -12 -20 -21 0 -23 -17 -20
-23 4 -3 13 -14 20 -30 20 -31 0 -78 -36 -71 -54 3 -8 1 -17 -5 -21 -6 -3 -11
-15 -11 -26 0 -36 90 -52 139 -25 13 7 32 11 42 9 21 -6 69 24 69 43 0 8 10
14 23 14 27 0 107 56 107 74 0 7 -18 52 -40 99 -22 47 -40 90 -40 97 0 7 -14
29 -30 49 -120 141 -150 181 -163 214 -16 36 -25 43 -150 118 -41 25 -46 33
-76 120 -18 52 -37 116 -41 142 -12 66 -52 130 -104 167 -48 35 -64 62 -72
124 -6 37 -11 45 -52 66 -56 30 -101 92 -102 139 0 19 -5 49 -12 67 -10 28 -8
40 15 94 15 34 27 69 27 78 0 9 18 53 40 97 22 44 40 86 40 92 0 7 -11 20 -25
29 -14 9 -28 28 -31 43 -3 14 -8 33 -10 42 -3 12 1 15 18 12 17 -3 29 4 46 27
13 17 27 28 32 25 5 -3 23 1 40 10 23 12 30 22 30 45 0 26 3 30 29 30 42 0 91
44 91 81 0 30 6 34 34 23 10 -4 16 -18 16 -39 0 -23 7 -37 23 -48 l22 -15 -20
-21 c-14 -15 -39 -23 -83 -27 -34 -4 -66 -12 -71 -18 -11 -13 28 -104 54 -126
8 -7 15 -28 15 -46 0 -33 1 -34 41 -34 36 0 48 -6 92 -50 28 -27 57 -50 64
-50 8 0 34 -13 58 -30 24 -16 52 -30 62 -30 11 0 23 -4 28 -8 6 -5 29 -14 53
-21 66 -19 82 -40 82 -112 0 -33 -4 -68 -9 -78 -7 -13 -4 -26 9 -47 34 -50 38
-58 54 -93 14 -30 14 -36 0 -63 -22 -43 -9 -52 61 -39 56 11 61 10 152 -29
113 -49 199 -61 238 -36 34 23 28 46 -15 61 -26 9 -36 19 -42 43 -7 26 -15 32
-46 38 -20 4 -68 23 -105 44 -56 30 -76 49 -118 108 -27 39 -58 73 -68 77 -27
8 -47 76 -30 106 29 55 62 61 135 24 27 -14 69 -28 94 -31 72 -9 92 -21 140
-86 58 -79 79 -117 80 -146 0 -37 49 -112 72 -112 27 0 58 -18 58 -34 0 -30
36 -47 91 -44 54 3 54 3 57 38 2 19 10 42 17 50 11 12 11 25 2 67 -7 28 -15
55 -19 59 -4 4 -5 17 -2 30 4 14 -1 28 -13 39 -33 29 -122 85 -136 85 -30 0
-106 41 -112 61 -4 11 -16 25 -28 30 -23 10 -47 51 -47 79 0 23 20 40 47 40
13 0 36 6 51 14 16 8 53 14 85 14 52 -1 60 -4 104 -44 36 -34 60 -46 102 -55
95 -19 105 -26 144 -94 20 -35 50 -73 67 -85 16 -12 30 -27 30 -34 0 -7 9 -21
19 -30 24 -22 71 -14 113 17 24 18 28 26 22 52 -3 16 -27 53 -53 81 -25 28
-65 76 -88 107 -26 34 -50 57 -62 57 -10 0 -21 9 -24 20 -6 22 -44 40 -94 45
-42 4 -44 6 -68 52 -28 56 -45 73 -72 73 -29 0 -40 -24 -26 -61 12 -31 9 -34
-32 -29 -39 4 -75 31 -101 76 -34 58 -25 77 37 84 52 6 61 26 29 70 -15 21
-30 30 -50 30 -46 0 -60 10 -86 62 -14 28 -38 57 -55 66 -34 20 -46 51 -29 81
11 22 98 71 126 71 9 0 53 -19 97 -42 72 -38 90 -43 147 -43 65 0 69 2 200 81
l135 80 -3 42 c-3 36 1 45 36 81 32 33 47 41 75 41 20 0 39 5 42 10 3 6 18 10
33 10 27 -1 60 -41 93 -113 10 -22 19 -27 48 -27 20 0 70 -2 111 -4 l75 -4 50
48 c57 55 86 71 135 79 21 4 39 14 45 27 25 49 53 74 83 74 27 0 31 -3 29 -27
-2 -32 50 -73 95 -73 15 0 37 -5 47 -12 15 -9 24 -7 46 10 l28 22 51 -29 c28
-16 70 -32 93 -36 23 -4 53 -15 67 -26 31 -24 74 -33 106 -21 17 7 39 5 70 -5
38 -12 107 -17 319 -23 17 0 81 -69 81 -87 0 -8 7 -27 15 -43 12 -23 23 -30
44 -30 42 0 92 39 107 83 7 21 29 53 49 71 19 18 35 41 35 50 0 19 37 59 49
52 12 -8 51 23 51 41 0 8 12 24 26 36 20 16 25 26 20 48 -3 17 0 32 9 39 23
19 18 49 -14 79 -27 25 -28 31 -25 91 1 35 -2 72 -7 83 -8 13 -7 32 2 63 11
35 18 44 36 44 22 0 120 72 153 112 13 17 19 18 42 8 37 -17 77 -5 89 28 13
32 6 121 -14 212 -9 36 -18 94 -22 130 -7 74 -17 90 -44 73 -27 -17 -94 25
-101 64 -4 23 -13 31 -53 44 -26 9 -53 21 -59 27 -7 7 -37 12 -68 12 -47 0
-60 4 -80 25 -23 25 -64 33 -74 16z m-5656 -1437 c0 -8 -4 -12 -10 -9 -5 3
-10 10 -10 16 0 5 5 9 10 9 6 0 10 -7 10 -16z m-393 -2546 c-2 -21 2 -23 43
-23 37 0 45 3 44 18 -2 23 8 22 24 -3 7 -11 18 -20 26 -20 7 0 21 -9 31 -20
22 -25 115 -29 115 -6 0 25 27 25 50 1 18 -19 20 -27 11 -43 -6 -12 -11 -34
-11 -51 0 -24 -4 -31 -20 -31 -11 0 -25 -9 -32 -19 -16 -26 -40 -15 -32 14 5
20 0 27 -33 43 -21 11 -59 22 -85 26 -40 6 -47 4 -51 -11 -4 -16 -6 -15 -12 5
-4 12 -14 22 -22 22 -8 0 -34 17 -58 37 -41 36 -42 38 -26 60 21 29 41 29 38
1z m2357 -263 c-33 -14 -37 -13 -29 7 4 10 15 13 32 10 l26 -5 -29 -12z m-270
-19 l29 -24 -23 -12 c-18 -9 -28 -9 -46 1 -26 14 -30 29 -12 47 16 16 18 15
52 -12z m200 -23 c-4 -10 -8 -31 -8 -48 -1 -26 2 -30 24 -27 14 2 58 6 98 10
61 6 77 11 93 31 l20 24 23 -22 c20 -19 31 -22 69 -16 31 5 53 2 73 -8 41 -21
139 -99 185 -147 21 -21 56 -51 79 -65 22 -14 40 -31 40 -38 0 -7 14 -23 30
-35 17 -13 30 -30 30 -39 0 -27 41 -63 71 -63 37 0 69 -29 74 -67 5 -39 2 -40
-32 -13 -31 24 -46 25 -63 5 -7 -9 -20 -13 -29 -11 -9 2 -37 7 -62 11 -34 4
-48 11 -52 25 -3 10 -21 26 -41 34 -35 14 -47 38 -26 51 6 3 10 21 10 40 0 38
-46 85 -83 85 -12 0 -40 10 -63 22 -47 24 -70 20 -84 -17 -5 -14 -11 -25 -14
-25 -2 0 -11 -3 -19 -6 -11 -4 -19 11 -33 56 -25 83 -51 110 -106 110 -24 0
-54 7 -67 16 -14 11 -34 14 -55 11 -19 -3 -39 1 -51 9 -10 8 -33 14 -49 14
-36 0 -44 5 -74 44 -31 40 -28 46 22 46 25 0 48 5 51 10 11 18 28 11 19 -7z
m-417 -694 c42 -62 41 -62 47 -90 3 -14 15 -38 27 -53 27 -34 64 -32 93 7 17
23 18 31 8 47 -11 18 -10 20 13 20 17 0 29 -9 40 -30 9 -17 34 -39 58 -51 53
-27 50 -24 38 -48 -10 -17 -6 -24 24 -47 32 -24 38 -25 65 -14 34 14 56 3 71
-36 7 -20 15 -22 61 -21 44 2 53 5 52 20 -1 10 5 17 17 17 14 0 19 -7 19 -25
0 -23 4 -25 43 -25 24 0 49 6 56 13 10 10 11 8 5 -6 -5 -14 1 -21 25 -30 17
-6 31 -18 31 -26 0 -8 7 -22 16 -32 15 -16 14 -19 -13 -32 -45 -23 -84 -28
-138 -17 -113 24 -125 24 -148 3 -12 -12 -32 -24 -43 -27 -27 -8 -58 -42 -50
-55 3 -5 21 -13 38 -16 18 -4 46 -17 63 -29 16 -11 31 -21 33 -22 1 -1 0 -8
-3 -16 -9 -22 -74 -31 -100 -14 -11 7 -56 48 -100 90 -44 42 -93 82 -110 89
-16 6 -68 31 -113 55 -46 23 -115 49 -153 57 -38 8 -81 23 -96 35 -14 11 -38
20 -53 20 -59 0 -169 47 -176 76 -9 34 -52 67 -80 60 -25 -7 -64 22 -64 47 0
15 -96 61 -114 54 -7 -3 -35 -1 -61 5 -40 9 -53 8 -77 -7 -40 -23 -48 -10 -15
22 21 21 29 25 39 15 19 -19 56 -14 96 13 43 29 55 31 73 9 8 -9 22 -14 37
-11 34 7 109 -29 146 -69 35 -39 60 -43 77 -13 9 18 17 20 52 15 23 -3 67 -8
99 -12 l56 -6 17 35 c9 20 14 41 11 46 -7 11 14 51 26 51 4 0 20 -19 35 -41z
m1273 -558 c0 -15 -15 -21 -38 -14 -32 8 -27 23 8 23 17 0 30 -4 30 -9z"/>
<path d="M6906 10082 c-93 -77 -138 -182 -102 -237 9 -14 26 -25 39 -25 27 0
41 -10 50 -32 3 -10 13 -18 21 -18 9 0 20 -9 26 -20 14 -27 32 -25 68 5 17 14
35 25 41 25 6 0 29 6 51 12 43 14 52 38 29 80 -8 14 -8 23 0 31 6 6 11 33 11
60 0 44 -4 54 -40 89 -22 22 -54 44 -72 48 -18 5 -42 12 -54 15 -15 5 -33 -4
-68 -33z"/>
<path d="M7925 9686 c-22 -14 -48 -26 -58 -26 -23 0 -31 -23 -17 -50 6 -11 39
-41 73 -66 58 -43 65 -46 112 -42 28 3 68 13 90 24 35 17 40 24 43 56 2 20 -2
46 -7 57 -15 26 -86 59 -146 66 -42 5 -56 2 -90 -19z"/>
<path d="M7860 8990 c-8 -5 -27 -10 -42 -10 -18 0 -33 -9 -45 -25 -10 -14 -26
-36 -35 -48 l-18 -22 -21 28 c-29 38 -59 48 -104 36 -25 -7 -40 -7 -49 1 -10
7 -22 7 -40 0 -15 -5 -40 -10 -55 -10 -15 0 -36 -6 -47 -14 -16 -13 -17 -18
-6 -35 6 -12 12 -30 12 -42 0 -11 5 -29 10 -39 7 -13 7 -21 0 -25 -5 -3 -10
-33 -10 -66 0 -53 2 -59 21 -59 11 0 30 5 41 11 17 9 25 6 48 -19 18 -20 41
-32 70 -37 49 -8 63 4 56 48 -7 37 4 34 33 -9 21 -30 74 -64 102 -64 4 0 16
16 25 36 14 29 15 40 6 55 -18 29 -14 74 8 94 11 10 20 30 20 46 0 18 11 36
34 56 31 26 33 31 29 76 -5 47 -15 55 -43 37z"/>
<path d="M1480 8744 c-19 -7 -63 -13 -97 -13 -60 -1 -62 -2 -97 -43 -35 -43
-35 -43 -15 -64 10 -11 16 -24 12 -28 -5 -4 -1 -13 8 -20 9 -6 18 -20 20 -31
2 -11 14 -24 26 -30 12 -5 28 -23 34 -40 7 -16 36 -53 66 -80 44 -43 53 -57
54 -88 2 -41 2 -42 13 -77 11 -33 66 -90 87 -90 10 0 30 -11 46 -24 15 -13 39
-27 52 -31 14 -4 38 -16 55 -26 57 -35 111 -16 87 29 -4 9 -11 33 -15 53 -8
44 -28 63 -58 56 -14 -4 -43 3 -75 18 -49 24 -52 28 -59 71 -7 46 -1 124 11
156 5 13 -2 21 -28 32 -21 8 -42 27 -52 45 l-16 31 55 24 c47 21 56 29 65 63
16 57 15 60 -33 81 -24 11 -47 25 -50 31 -9 14 -51 12 -96 -5z"/>
<path d="M7363 8288 c-26 -37 -35 -69 -28 -105 9 -49 22 -73 40 -73 19 0 85
98 85 127 0 41 -75 80 -97 51z"/>
<path d="M8730 8051 c-33 -6 -35 -8 -35 -45 0 -35 -3 -40 -30 -48 -16 -5 -37
-12 -45 -15 -8 -4 -21 -5 -28 -4 -8 1 -19 -4 -25 -12 -15 -19 -92 -32 -102
-18 -3 6 -13 11 -21 11 -22 0 -94 -62 -94 -80 0 -9 -5 -21 -12 -28 -8 -8 -8
-15 1 -26 8 -10 9 -16 1 -21 -21 -13 -10 -51 23 -76 44 -33 126 -74 189 -94
71 -23 108 -39 108 -46 0 -4 13 -21 29 -38 26 -28 35 -31 88 -31 40 0 70 -7
98 -21 70 -38 142 -51 213 -40 68 11 112 32 112 56 0 9 6 12 15 9 21 -8 42 12
50 47 5 24 1 36 -24 65 -17 19 -31 43 -31 53 0 10 -7 24 -15 31 -8 7 -15 21
-15 32 0 19 -93 117 -155 163 l-27 20 18 39 c19 38 19 38 -5 57 -13 10 -29 19
-37 19 -8 0 -14 10 -14 25 l0 25 -97 -1 c-54 -1 -114 -4 -133 -8z m98 -300
c10 -6 4 -16 -23 -39 -20 -18 -41 -32 -49 -32 -7 0 -23 -12 -35 -26 -38 -43
-36 -18 3 40 43 65 70 79 104 57z m272 -131 c0 -5 -2 -10 -4 -10 -3 0 -8 5
-11 10 -3 6 -1 10 4 10 6 0 11 -4 11 -10z"/>
<path d="M6286 7968 c-19 -27 -20 -45 -3 -81 17 -39 61 -37 82 3 21 40 19 66
-7 84 -31 22 -54 20 -72 -6z"/>
<path d="M1806 7884 c-23 -23 -20 -45 15 -87 25 -30 37 -37 66 -37 35 0 35 1
29 32 -6 29 -69 108 -87 108 -4 0 -15 -7 -23 -16z"/>
<path d="M6143 7838 c-38 -60 -53 -88 -53 -103 0 -6 -14 -26 -31 -44 -36 -38
-34 -55 9 -59 56 -6 98 38 158 167 13 28 13 38 3 58 -20 37 -54 30 -86 -19z"/>
<path d="M5576 7721 c-54 -55 -59 -85 -13 -87 15 -1 33 -6 40 -13 17 -17 45
-13 52 9 3 11 13 20 20 20 16 0 35 30 35 55 0 22 -45 65 -67 65 -11 0 -40 -22
-67 -49z"/>
<path d="M5761 7761 c-12 -8 -9 -21 18 -75 18 -36 36 -66 41 -66 5 0 10 -12
12 -26 2 -15 10 -30 18 -34 8 -4 25 -12 37 -18 37 -20 70 -14 108 19 49 43 43
89 -11 89 -13 0 -25 4 -29 9 -3 6 -25 20 -50 32 -24 12 -57 35 -72 51 -28 29
-48 34 -72 19z"/>
<path d="M6767 7412 c-10 -11 -17 -35 -17 -60 0 -22 -4 -44 -10 -47 -5 -3 -10
-19 -10 -36 0 -24 4 -29 23 -29 13 0 34 -11 47 -24 12 -14 36 -28 52 -31 29
-7 29 -7 9 -22 -26 -18 -26 -27 1 -63 23 -32 58 -40 58 -15 0 17 16 20 25 5
18 -29 115 4 115 40 0 35 -33 80 -81 111 -44 29 -49 36 -49 69 0 42 -11 58
-65 94 -47 31 -76 33 -98 8z"/>
<path d="M8035 6901 c-32 -5 -41 -11 -43 -29 -2 -14 5 -33 16 -45 11 -12 22
-33 24 -47 2 -21 9 -25 38 -26 46 -1 57 9 65 57 6 36 4 44 -21 70 -15 16 -30
28 -33 28 -3 -1 -24 -5 -46 -8z"/>
<path d="M8430 6881 c-69 -18 -77 -28 -79 -99 -1 -25 8 -43 40 -77 23 -25 49
-45 58 -45 25 0 41 -20 41 -50 0 -15 9 -35 20 -45 21 -19 26 -50 10 -60 -5 -3
-10 -14 -10 -23 0 -11 -19 -25 -50 -39 -48 -21 -70 -49 -70 -88 0 -24 158
-145 189 -145 31 0 51 16 51 42 0 11 16 24 44 37 44 19 45 20 48 72 3 47 6 54
28 59 28 7 29 14 12 125 -11 70 -10 170 2 235 10 51 -11 75 -62 73 -32 -2 -42
2 -47 16 -3 11 -16 22 -28 25 -38 10 -129 4 -197 -13z"/>
<path d="M2360 6771 c0 -13 -39 -24 -90 -25 -51 -1 -46 12 -51 -129 -1 -53 -6
-70 -20 -77 -24 -13 -44 -4 -57 26 -9 19 -19 24 -47 24 -26 0 -35 -4 -37 -17
-1 -10 -2 -25 -4 -33 -1 -8 -2 -25 -3 -37 -1 -12 -13 -36 -28 -53 -14 -18 -28
-44 -29 -58 -2 -15 -6 -40 -10 -57 -4 -24 0 -37 24 -62 16 -18 34 -33 41 -33
14 0 62 30 74 45 10 14 27 -13 27 -43 0 -38 17 -59 65 -82 l46 -22 24 22 c21
20 28 21 53 11 16 -7 43 -28 62 -47 32 -34 35 -35 84 -29 28 4 57 12 64 17 23
20 14 94 -18 145 -16 26 -30 52 -30 58 0 6 -11 22 -24 34 -13 12 -32 43 -41
68 -17 45 -22 47 -66 29 -20 -8 -35 22 -19 38 5 5 10 23 10 38 0 37 15 36 28
-1 16 -45 50 -63 95 -50 29 8 37 15 37 34 0 13 -6 25 -12 28 -10 3 -10 7 1 21
12 14 11 19 -4 36 -10 11 -26 22 -35 25 -15 5 -17 13 -13 45 4 32 2 41 -16 52
-13 8 -21 23 -21 40 0 24 -4 28 -30 28 -16 0 -30 -4 -30 -9z m-23 -113 c-3 -8
-6 -5 -6 6 -1 11 2 17 5 13 3 -3 4 -12 1 -19z m123 -129 c0 -5 -4 -9 -10 -9
-5 0 -10 7 -10 16 0 8 5 12 10 9 6 -3 10 -10 10 -16z"/>
<path d="M7090 5969 c-67 -40 -76 -76 -37 -149 17 -32 32 -46 54 -52 36 -9 50
-24 55 -58 1 -14 10 -26 19 -28 22 -4 105 -85 113 -110 4 -11 24 -36 44 -54
20 -18 43 -46 49 -61 7 -15 27 -36 45 -46 17 -11 52 -40 77 -65 68 -65 181
-97 201 -56 47 94 45 87 28 124 -13 27 -27 37 -65 49 -26 8 -68 16 -93 16 -33
1 -49 6 -59 21 -11 16 -25 20 -67 20 -30 0 -54 4 -54 10 0 5 9 24 20 42 24 39
25 61 5 78 -9 8 -13 21 -9 37 5 17 0 31 -15 47 -18 20 -19 26 -9 54 19 50 3
66 -73 72 -62 5 -64 6 -75 39 -6 19 -18 40 -28 46 -9 7 -16 17 -16 23 0 28
-64 29 -110 1z"/>
<path d="M2331 5893 c-35 -41 -41 -55 -41 -94 0 -41 5 -52 45 -95 25 -27 45
-56 45 -66 0 -9 19 -34 43 -55 24 -21 54 -53 67 -70 17 -24 32 -33 51 -33 33
0 61 34 53 65 -13 52 70 70 112 24 28 -31 54 -25 54 14 0 38 -4 44 -53 80 -20
16 -46 46 -57 67 -23 45 -91 90 -137 90 -27 0 -34 6 -59 58 -40 78 -66 82
-123 15z"/>
<path d="M9407 5751 c-44 -11 -73 -25 -83 -39 -8 -12 -23 -22 -33 -22 -9 0
-22 -5 -29 -12 -15 -15 -16 -112 -2 -139 14 -26 66 -26 80 1 6 10 26 22 45 26
42 8 77 -12 100 -56 15 -28 19 -30 75 -30 52 0 63 3 83 26 26 31 120 75 162
76 52 1 74 40 40 68 -14 12 -14 15 1 31 22 24 10 39 -32 39 -22 0 -37 6 -41
15 -4 13 -15 14 -52 9 -25 -4 -51 -10 -56 -15 -6 -4 -22 -2 -35 6 -72 41 -115
44 -223 16z"/>
<path d="M5588 5643 c-23 -4 -28 -10 -28 -31 0 -15 8 -39 17 -52 10 -14 16
-33 15 -42 -5 -27 55 -52 91 -39 15 6 30 19 33 28 3 10 15 39 26 65 30 68 22
78 -59 77 -37 -1 -80 -4 -95 -6z"/>
<path d="M8980 5563 c-56 -8 -68 -14 -98 -43 -34 -32 -57 -36 -160 -31 -48 3
-55 0 -85 -32 -17 -19 -47 -58 -65 -87 -26 -41 -32 -58 -27 -82 l7 -30 67 7
c50 5 72 13 92 31 16 16 49 29 92 38 55 12 76 22 122 62 65 56 118 134 109
158 -3 9 -11 15 -18 15 -6 -1 -22 -3 -36 -6z"/>
<path d="M7297 5272 c-17 -3 -18 -10 -12 -50 6 -38 4 -48 -13 -61 -27 -21 -39
-89 -17 -97 8 -3 15 -15 15 -25 0 -27 35 -23 90 10 45 27 63 62 42 83 -6 6 -8
24 -6 42 9 59 -42 110 -99 98z"/>
<path d="M7798 5257 c-25 -20 -27 -27 -25 -92 l2 -70 65 3 c51 3 68 8 79 23 7
10 22 19 32 19 22 0 52 41 44 62 -8 21 -92 61 -115 55 -11 -3 -21 1 -24 9 -8
20 -27 17 -58 -9z"/>
<path d="M6707 5192 c-30 -30 -37 -44 -37 -74 0 -21 5 -38 10 -38 6 0 10 -11
10 -24 0 -14 -4 -28 -10 -31 -5 -3 -10 -26 -10 -51 0 -40 2 -44 25 -44 30 0
105 65 105 91 0 10 9 23 20 29 27 14 26 58 -2 88 -14 14 -23 36 -23 55 0 47
-39 47 -88 -1z"/>
<path d="M9240 5111 c-22 -6 -26 -13 -31 -71 -5 -48 -3 -70 8 -87 19 -28 50
-38 69 -22 14 12 14 26 -1 79 -4 12 2 16 22 15 39 0 41 29 5 65 -32 32 -33 32
-72 21z"/>
<path d="M5670 5051 c-49 -7 -66 -15 -136 -62 -59 -41 -57 -65 6 -63 78 3 140
16 153 33 7 9 30 25 52 36 27 13 40 27 40 40 0 23 -37 28 -115 16z"/>
<path d="M9514 4847 c-24 -21 -25 -26 -14 -48 7 -13 19 -28 26 -32 8 -4 14
-13 14 -19 0 -19 52 -68 71 -68 10 0 20 -8 23 -18 3 -9 19 -32 35 -49 30 -33
30 -38 6 -120 -6 -17 -1 -28 16 -43 29 -24 97 -27 105 -5 4 8 19 15 35 15 33
0 57 33 40 54 -6 8 -9 20 -5 29 8 22 -12 54 -38 60 -13 4 -27 16 -33 28 -6 14
-31 30 -62 42 -41 15 -53 25 -53 41 0 11 -7 30 -16 41 -8 11 -19 36 -24 56 -8
30 -16 38 -49 47 -49 15 -45 16 -77 -11z"/>
<path d="M8031 4823 c-8 -3 -49 -39 -90 -80 -42 -41 -86 -79 -99 -84 -34 -13
-38 -36 -10 -62 17 -16 28 -40 32 -71 5 -30 14 -51 27 -59 11 -7 29 -31 39
-54 21 -49 39 -53 85 -23 17 11 44 29 61 40 39 25 59 73 75 177 15 97 4 150
-41 195 -27 27 -49 33 -79 21z"/>
<path d="M6779 4803 c-29 -18 -49 -63 -49 -111 0 -29 3 -32 28 -30 16 1 42 -4
59 -11 28 -11 35 -11 57 6 25 18 32 44 27 108 -2 17 -7 36 -13 43 -15 17 -78
15 -109 -5z"/>
<path d="M7665 4734 c-34 -17 -95 -73 -95 -87 0 -19 -42 -67 -59 -67 -10 0
-27 -10 -39 -23 -47 -50 -12 -137 54 -137 33 0 45 12 24 25 -10 6 -15 55 -5
55 2 0 19 -9 37 -20 64 -39 113 -23 177 59 27 33 29 42 21 70 -7 24 -5 43 7
72 8 21 13 46 9 54 -7 20 -91 20 -131 -1z"/>
<path d="M8363 4727 c-38 -13 -41 -28 -13 -67 15 -21 26 -26 44 -23 39 8 57
34 48 68 -9 34 -28 39 -79 22z"/>
<path d="M6997 4583 c-14 -13 -6 -54 13 -75 11 -12 18 -29 15 -38 -7 -22 46
-124 66 -128 21 -4 89 64 89 90 0 40 -72 138 -101 138 -10 0 -21 5 -24 10 -7
11 -48 14 -58 3z"/>
<path d="M8578 4438 c-26 -14 -38 -26 -38 -42 0 -17 -15 -29 -66 -55 -58 -29
-65 -36 -61 -57 4 -21 1 -24 -28 -24 -38 0 -95 -26 -95 -44 0 -28 32 -56 65
-56 60 0 144 40 171 80 34 51 110 102 161 108 33 4 43 9 43 23 0 10 -12 25
-28 33 -15 8 -36 23 -46 35 -22 25 -29 25 -78 -1z"/>
<path d="M10045 4441 c-95 -22 -223 -110 -246 -169 -7 -17 -14 -22 -29 -17
-12 4 -30 -2 -50 -16 -26 -20 -30 -29 -30 -70 0 -58 29 -97 75 -101 26 -3 30
0 31 22 0 14 4 32 9 40 5 8 8 23 7 32 -5 27 31 39 93 32 l56 -7 52 50 c39 39
68 56 117 72 79 26 110 46 110 71 0 21 -35 50 -61 50 -9 0 -22 7 -29 15 -14
17 -13 17 -105 -4z"/>
<path d="M8153 4376 c-24 -20 -25 -26 -14 -40 9 -11 30 -16 62 -16 39 0 51 4
59 21 9 16 8 25 -6 40 -23 26 -67 24 -101 -5z"/>
<path d="M7940 4304 c-30 -34 -30 -37 -14 -55 35 -39 105 -11 100 39 -2 15 -4
33 -5 40 -2 26 -49 12 -81 -24z"/>
<path d="M6869 4269 c-16 -16 -19 -28 -14 -57 5 -31 2 -39 -16 -50 -18 -12
-26 -11 -55 4 -27 15 -35 16 -48 5 -9 -8 -16 -20 -16 -27 0 -18 -14 -18 -30 1
-12 14 -15 14 -31 0 -28 -26 -40 -68 -37 -126 3 -53 3 -54 33 -51 17 2 71 6
121 10 59 5 100 14 117 25 25 16 27 23 27 83 0 81 16 92 65 44 33 -32 35 -33
60 -16 14 9 25 26 25 37 0 22 -45 69 -67 69 -10 0 -12 6 -8 20 10 32 -12 50
-61 50 -31 0 -50 -6 -65 -21z"/>
<path d="M7761 4204 c-17 -14 -31 -35 -31 -46 0 -10 -4 -27 -10 -37 -8 -15 1
-27 52 -67 108 -87 127 -92 149 -37 6 15 16 38 21 49 13 29 -5 63 -42 75 -15
6 -42 28 -59 50 -18 21 -36 39 -41 39 -5 0 -22 -12 -39 -26z"/>
<path d="M7580 4098 c-34 -23 -78 -96 -79 -130 -1 -14 7 -18 35 -18 30 0 43 8
90 57 52 55 71 103 42 103 -7 0 -22 3 -33 6 -12 3 -34 -4 -55 -18z"/>
<path d="M10760 4074 c-34 -29 -74 -99 -65 -114 3 -6 14 -10 23 -10 20 -1 43
-18 58 -45 15 -28 45 -30 77 -5 24 19 26 25 22 83 -6 91 -18 117 -54 117 -17
0 -42 -11 -61 -26z"/>
<path d="M7234 4015 c-7 -18 21 -64 44 -72 9 -4 30 -17 45 -30 18 -14 42 -23
63 -23 29 0 34 3 34 23 0 61 -167 152 -186 102z"/>
<path d="M9033 4005 c-3 -9 2 -24 10 -33 15 -16 15 -19 -3 -29 -14 -10 -21 -9
-30 2 -14 17 -76 20 -85 4 -14 -22 6 -95 35 -127 46 -51 110 -41 110 18 0 39
11 47 73 55 50 6 57 10 57 29 0 29 -25 63 -60 81 -39 20 -99 20 -107 0z"/>
<path d="M9972 4003 c-30 -25 -37 -66 -17 -87 36 -35 125 -9 125 37 0 59 -64
87 -108 50z"/>
<path d="M11230 3820 c-8 -15 -21 -20 -49 -20 -23 0 -52 -9 -72 -23 -56 -37
-172 -103 -206 -116 -17 -7 -43 -30 -57 -52 -14 -21 -39 -45 -55 -53 -27 -15
-44 -43 -56 -97 -4 -17 -24 -38 -56 -59 -49 -32 -63 -62 -34 -74 8 -3 15 -11
15 -19 0 -7 14 -26 30 -42 36 -35 37 -57 6 -149 -22 -65 -23 -72 -9 -101 9
-18 33 -41 59 -55 43 -24 43 -24 66 -5 67 56 93 86 129 148 25 42 55 77 80 94
37 24 42 25 80 14 23 -7 45 -9 49 -4 4 4 10 29 13 54 5 39 3 49 -13 60 -17 12
-18 17 -7 39 7 14 23 30 35 35 13 6 26 21 29 35 3 14 12 34 19 45 8 11 14 31
14 45 0 14 9 40 20 58 11 18 20 42 20 54 0 12 10 32 21 44 18 20 20 27 10 54
-8 23 -7 36 1 50 10 15 9 23 -6 39 -24 27 -62 27 -76 1z"/>
<path d="M10217 3824 c-4 -4 -19 -7 -34 -8 -26 -1 -28 -5 -31 -45 -4 -50 17
-81 54 -81 13 0 28 -8 33 -19 21 -39 109 -31 129 13 12 27 -1 56 -26 56 -9 0
-32 21 -51 45 -30 41 -58 55 -74 39z"/>
<path d="M7867 3753 c-17 -16 -5 -45 21 -54 55 -19 62 -109 8 -109 -13 0 -29
-6 -35 -13 -20 -25 23 -51 92 -55 63 -4 63 -4 81 31 37 67 3 152 -76 193 -28
15 -80 19 -91 7z"/>
<path d="M8323 3639 c-37 -24 -40 -35 -17 -67 13 -19 24 -23 67 -21 29 0 62
-2 74 -6 28 -9 51 28 32 51 -6 8 -16 14 -22 14 -6 0 -20 9 -31 19 -33 31 -67
34 -103 10z"/>
<path d="M4966 3589 c-34 -40 -42 -74 -28 -123 6 -25 7 -58 2 -85 -5 -29 -4
-53 5 -73 14 -34 109 -110 121 -98 5 5 25 10 44 12 32 3 35 6 38 38 5 63 11
78 37 84 53 13 21 78 -69 139 -14 10 -36 37 -47 60 -26 51 -48 77 -65 77 -7 0
-24 -14 -38 -31z"/>
<path d="M10453 3490 c-18 -7 -23 -18 -23 -44 0 -42 12 -47 84 -37 67 9 79 18
74 57 -3 28 -5 29 -58 31 -30 1 -65 -2 -77 -7z"/>
<path d="M5370 2877 c0 -52 64 -135 94 -124 11 4 16 19 16 46 0 34 -5 44 -39
70 -47 38 -71 40 -71 8z"/>
<path d="M10083 2859 c-6 -6 -22 -17 -35 -23 -20 -10 -23 -19 -23 -71 0 -41
-6 -68 -17 -85 -10 -13 -18 -34 -18 -46 0 -13 -11 -36 -25 -52 -50 -60 -54
-108 -12 -131 20 -10 23 -19 21 -59 -1 -26 -5 -63 -9 -83 -6 -31 -3 -40 28
-72 19 -20 41 -37 50 -37 22 0 59 50 54 72 -6 21 6 31 41 32 37 1 50 47 26 84
-10 15 -17 35 -15 45 1 11 -16 41 -39 68 l-42 50 22 52 c12 29 27 58 34 66 6
8 12 39 13 70 1 31 3 72 5 91 3 31 0 35 -22 38 -14 2 -30 -2 -37 -9z"/>
<path d="M5911 2554 c-21 -27 -22 -52 -5 -186 6 -44 4 -48 -20 -54 -19 -5 -31
0 -51 21 -20 23 -25 38 -25 81 0 47 -3 54 -19 54 -23 0 -61 -57 -61 -92 0 -14
-3 -28 -7 -32 -4 -4 -8 -44 -9 -89 -1 -48 -8 -97 -17 -117 -8 -19 -13 -49 -10
-66 3 -20 -1 -35 -11 -43 -28 -23 -18 -54 33 -104 42 -41 54 -47 90 -47 23 0
51 -5 63 -11 14 -8 28 -8 46 0 32 12 134 15 251 7 73 -5 88 -9 112 -32 25 -24
34 -26 160 -31 74 -3 170 -6 214 -6 64 -2 87 -6 115 -24 19 -13 51 -23 70 -23
26 0 43 -9 72 -37 37 -36 40 -37 127 -41 117 -6 127 -15 123 -115 -2 -39 -8
-77 -14 -84 -5 -7 -8 -20 -4 -28 5 -14 29 -15 203 -10 109 4 217 7 239 6 26
-1 46 5 54 14 9 10 32 15 74 15 46 0 74 7 116 27 50 25 65 28 175 28 91 1 129
5 159 18 30 13 68 17 175 17 112 0 147 4 195 20 49 18 72 20 150 15 56 -4 97
-12 107 -21 24 -22 83 -17 145 14 51 24 59 34 91 96 19 37 35 82 37 100 1 17
7 41 14 53 17 31 15 54 -7 60 -10 2 -24 16 -30 30 -10 22 -8 29 19 59 16 19
30 46 30 59 0 22 -5 25 -34 25 -25 0 -36 -5 -40 -18 -4 -11 -16 -24 -29 -31
-12 -6 -33 -27 -46 -46 -13 -19 -34 -46 -48 -61 -22 -24 -26 -25 -41 -11 -10
9 -39 21 -64 28 -47 13 -49 12 -94 -19 -28 -21 -63 -35 -92 -39 -32 -4 -56
-14 -74 -32 -14 -14 -31 -30 -38 -36 -6 -5 -17 -19 -24 -30 -14 -19 -14 -19
-50 0 -20 11 -38 26 -40 35 -8 28 1 78 17 104 19 28 22 71 7 81 -7 4 -5 14 5
28 28 41 20 55 -37 60 -29 3 -67 8 -83 12 -23 5 -57 -4 -135 -34 -58 -23 -114
-41 -125 -41 -10 0 -35 16 -55 35 l-35 35 -88 -10 c-49 -6 -94 -7 -100 -3 -7
5 -50 8 -97 8 -84 0 -85 0 -87 25 0 14 -1 30 -2 37 -2 25 -65 42 -156 41 -49
0 -97 -4 -106 -9 -10 -5 -31 -4 -50 2 -19 5 -65 10 -104 11 -58 1 -79 -4 -125
-27 -59 -30 -167 -58 -215 -56 -16 0 -51 -6 -76 -14 -40 -14 -50 -14 -81 -1
-35 15 -36 16 -40 85 -5 91 -15 102 -68 72 -31 -17 -44 -20 -60 -11 -26 14
-26 28 2 32 12 2 30 17 40 34 18 30 18 34 2 74 -18 44 -57 70 -106 70 -28 0
-68 -26 -68 -45 0 -7 -13 -27 -29 -44 -33 -36 -71 -39 -194 -19 -80 13 -96 26
-97 76 0 18 -5 42 -10 52 -8 14 -7 26 2 40 11 19 10 24 -11 41 -32 26 -66 24
-90 -7z"/>
<path d="M9815 2270 c-11 -5 -33 -9 -50 -10 -23 -1 -37 -11 -62 -46 -38 -51
-40 -65 -15 -87 27 -24 48 -21 100 14 25 17 61 33 79 36 23 4 33 11 33 23 0
10 3 32 6 49 6 31 6 31 -32 30 -22 0 -48 -4 -59 -9z"/>
<path d="M6325 1367 c-45 -27 -41 -42 20 -80 28 -18 55 -27 72 -25 27 3 28 5
25 53 -2 27 -9 53 -15 57 -18 12 -79 8 -102 -5z"/>
</g>
</svg>
