<?xml version="1.0" encoding="UTF-8" standalone="no"?>
<svg
   width="1200pt"
   height="1200pt"
   version="1.1"
   viewBox="0 0 1200 1200"
   id="svg8"
   sodipodi:docname="accessible.svg"
   inkscape:version="1.2.2 (b0a8486541, 2022-12-01)"
   xmlns:inkscape="http://www.inkscape.org/namespaces/inkscape"
   xmlns:sodipodi="http://sodipodi.sourceforge.net/DTD/sodipodi-0.dtd"
   xmlns="http://www.w3.org/2000/svg"
   xmlns:svg="http://www.w3.org/2000/svg">
  <defs
     id="defs12" />
  <sodipodi:namedview
     id="namedview10"
     pagecolor="#ffffff"
     bordercolor="#666666"
     borderopacity="1.0"
     inkscape:showpageshadow="2"
     inkscape:pageopacity="0.0"
     inkscape:pagecheckerboard="0"
     inkscape:deskcolor="#d1d1d1"
     inkscape:document-units="pt"
     showgrid="false"
     inkscape:zoom="0.53125"
     inkscape:cx="800"
     inkscape:cy="800"
     inkscape:window-width="1674"
     inkscape:window-height="773"
     inkscape:window-x="1970"
     inkscape:window-y="89"
     inkscape:window-maximized="0"
     inkscape:current-layer="svg8" />
  <g
     id="g6"
     style="fill:#e6e6e6">
    <path
       d="m490.8 506.4c0 50.398 34.801 92.398 81.602 105.6v204c0 15.602 13.199 28.801 28.801 28.801s28.801-13.199 28.801-28.801v-32.398h36c15.602 0 28.801-13.199 28.801-28.801 0-15.602-13.199-28.801-28.801-28.801h-36l-0.003906-114c46.801-13.199 81.602-55.199 81.602-105.6 0-60-49.199-109.2-109.2-109.2-62.402 0-111.6 49.199-111.6 109.2zm162 0c0 28.801-24 52.801-52.801 52.801s-52.801-24-52.801-52.801c0-28.801 24-52.801 52.801-52.801 28.801 0.003906 52.801 24.004 52.801 52.801z"
       id="path2"
       style="fill:#e6e6e6" />
    <path
       d="m1088.4 894v-213.6c0-15.602-13.199-28.801-28.801-28.801l-146.4 0.003906c3.6016-18 6-37.199 6-56.398v-45.602h141.6c15.602 0 28.801-13.199 28.801-28.801v-214.8c46.801-13.199 81.602-55.199 81.602-105.6 0-60-49.199-109.2-109.2-109.2s-109.2 49.199-109.2 109.2c0 50.398 34.801 92.398 81.602 105.6v184.8h-112.8v-104.4c0-14.398-10.801-26.398-25.199-28.801-205.2-21.602-265.2-139.2-267.6-144-4.8008-9.6016-14.398-15.602-25.199-16.801-10.801 0-20.398 6-25.199 15.602-2.3984 4.8008-62.398 123.6-267.6 144-14.398 1.1992-25.199 13.199-25.199 28.801v104.4h-117.61v-183.6c46.801-13.199 81.602-55.199 81.602-105.6 0-60-49.199-109.2-109.2-109.2s-109.2 49.199-109.2 109.2c0 50.398 34.801 92.398 81.602 105.6v213.6c0 15.602 13.199 28.801 28.801 28.801h141.6v45.602c0 19.199 2.3984 38.398 6 56.398l-150.01-0.003906c-15.602 0-28.801 13.199-28.801 28.801v213.6c-46.801 13.199-81.602 55.199-81.602 105.6 0 60 49.199 109.2 109.2 109.2s109.2-49.199 109.2-109.2c0-50.398-34.801-92.398-81.602-105.6l0.007812-183.6h134.4c70.801 176.4 276 284.4 286.8 289.2 3.6016 2.3984 8.3984 3.6016 13.199 3.6016s8.3984-1.1992 13.199-3.6016c10.801-4.8008 216-112.8 284.4-289.2h134.4v184.8c-46.801 13.199-81.602 55.199-81.602 105.6 0 60 49.199 109.2 109.2 109.2s109.2-49.199 109.2-109.2c1.2031-50.402-33.598-92.402-80.398-105.6zm-80.398-693.6c0-28.801 24-52.801 52.801-52.801s52.801 24 52.801 52.801c0 28.801-24 52.801-52.801 52.801s-52.801-24-52.801-52.801zm-920.4 0c0-28.801 24-52.801 52.801-52.801 28.801 0 52.801 24 52.801 52.801 0 28.801-24 52.801-52.801 52.801-28.801 0-52.801-24-52.801-52.801zm104.4 799.2c0 28.801-24 52.801-52.801 52.801s-52.801-24-52.801-52.801c0-28.801 24-52.801 52.801-52.801s52.801 24 52.801 52.801zm669.6-404.4c0 182.4-207.6 314.4-261.6 345.6-55.199-31.199-261.6-163.2-261.6-345.6v-182.4c147.6-21.602 225.6-90 261.6-134.4 36 44.398 114 112.8 261.6 134.4zm199.2 457.2c-28.801 0-52.801-24-52.801-52.801 0-28.801 24-52.801 52.801-52.801s52.801 24 52.801 52.801c-1.2031 28.801-24 52.801-52.801 52.801z"
       id="path4"
       style="fill:#e6e6e6" />
  </g>
</svg>
