<?xml version="1.0" encoding="UTF-8" standalone="no"?>
<svg
   width="1200pt"
   height="1200pt"
   version="1.1"
   viewBox="0 0 1200 1200"
   id="svg2106"
   sodipodi:docname="noun-grass-833052.svg"
   inkscape:version="1.2.2 (b0a8486541, 2022-12-01)"
   xmlns:inkscape="http://www.inkscape.org/namespaces/inkscape"
   xmlns:sodipodi="http://sodipodi.sourceforge.net/DTD/sodipodi-0.dtd"
   xmlns="http://www.w3.org/2000/svg"
   xmlns:svg="http://www.w3.org/2000/svg">
  <defs
     id="defs2110" />
  <sodipodi:namedview
     id="namedview2108"
     pagecolor="#ffffff"
     bordercolor="#666666"
     borderopacity="1.0"
     inkscape:showpageshadow="2"
     inkscape:pageopacity="0.0"
     inkscape:pagecheckerboard="0"
     inkscape:deskcolor="#d1d1d1"
     inkscape:document-units="pt"
     showgrid="false"
     inkscape:zoom="0.53125"
     inkscape:cx="751.05882"
     inkscape:cy="800"
     inkscape:window-width="1674"
     inkscape:window-height="773"
     inkscape:window-x="1970"
     inkscape:window-y="89"
     inkscape:window-maximized="0"
     inkscape:current-layer="svg2106" />
  <path
     d="m428.81 301.48c-20.863 44.129-36.316 88.629-48.398 133.38-8.293-20.496-17.363-40.73-27.375-60.656 8.8203 24.688 16.281 50.996 22.688 78.539-29.211 116.98-36.5 235.52-54.492 353.3-27.164-155.06-1.7266-310.11-156.07-465.16 105.11 138.59 103.06 272.89 110.6 407.58-50.68-54.859-105.3-105.26-187.88-124.24 120.91 68.117 162.23 147.23 178.78 222.75-20.852-43.902-32.969-69.383-81.82-71.227 36.199 26.566 45.398 97.598 46.922 139.41h-128.74v30.305h993.98v-30.305h-98.367c-0.58594-53.949 6.3672-142.72 30.188-189.4-29.605 44.301-43.895 133.68-51.117 189.4h-36.516c15.969-155.37 53.621-393.87 158.86-566.7-94.801 111.07-138.38 257.35-189.4 398.51 4.2227-57.074 5.1719-114.16-7.5938-171.23 1.1914 57.082-3.5781 110.6-16.664 159.12-3.3203-77.781-16.078-155.59-39.398-233.37 20.293 114.29 9.7969 224.74 9.0938 336.4-21.297-71.855-36.734-144.52-78.305-213.61 3.3633-22.238 6.8711-44.465 10.125-66.703-4.8164 20.18-9.4102 40.359-13.992 60.539-4.6016-7.3438-9.4766-14.656-14.719-21.914 23.859-94.77 58.859-190.1 109.01-271.99-84.707 76.992-121.25 191.82-168.19 298.5-2.3242-54.734-17.324-105.65-36.844-155.23 1.1641-4.8203 2.2422-9.6406 3.5156-14.461-1.5742 3.8945-2.957 8-4.4766 11.953-8.0664-20.312-16.797-40.422-25.828-60.445 7.3867 28.281 13.422 54.469 18.703 79.5-30.535 86.406-48.938 186.29-59.625 294.75-14.102-52.289-37.367-101.27-78.703-143.81 51.043 76.574 53.535 198.33 61.312 280.2h-56.648c-9.5586-65.012-0.77344-167.39 2.8359-225.77-11.328 59.078-25.945 162.46-21.961 225.77h-24.047c15.582-81.348 21.984-204.36 38.508-280.2v-0.023437c15.383-70.59 39.734-139.38 89.32-203.13-80.262 72.195-125.59 185.14-157.59 313.64-6.9336-96.793-24.172-190.15-55.922-278.67 7.707-54.09 18.945-108.98 36.234-165.28zm228.47 192.68c38.195 187.43 19.414 332.5-7.5 420.98h-10.43c0.097657-127.05-6.9727-297.52 17.93-420.98zm-270.12 15.539c18.605 107.61 24.316 277.35 28.523 405.45h-48.539c8.3789-122.32 6.7891-285.73 20.016-405.45zm371.88 87.117c4.8828 9.5703 9.2383 19.219 13.125 28.922-17.871 79.629-32.109 204.64-32.789 289.41h-24.797c3.0547-88.371 15.43-202.77 44.461-318.33zm16.992 39.094c27.145 74.156 28.648 196.95 34.383 279.23h-40.031c-13.559-81.559-5.5898-203.14 5.6484-279.23z"
     id="path2104"
     style="fill:#008000" />
</svg>
