<?xml version="1.0" encoding="UTF-8" standalone="no"?>
<svg
   width="1200pt"
   height="1200pt"
   version="1.1"
   viewBox="0 0 1200 1200"
   id="svg20"
   sodipodi:docname="application.svg"
   inkscape:version="1.2.2 (b0a8486541, 2022-12-01)"
   xmlns:inkscape="http://www.inkscape.org/namespaces/inkscape"
   xmlns:sodipodi="http://sodipodi.sourceforge.net/DTD/sodipodi-0.dtd"
   xmlns="http://www.w3.org/2000/svg"
   xmlns:svg="http://www.w3.org/2000/svg">
  <defs
     id="defs24" />
  <sodipodi:namedview
     id="namedview22"
     pagecolor="#ffffff"
     bordercolor="#666666"
     borderopacity="1.0"
     inkscape:showpageshadow="2"
     inkscape:pageopacity="0.0"
     inkscape:pagecheckerboard="0"
     inkscape:deskcolor="#d1d1d1"
     inkscape:document-units="pt"
     showgrid="false"
     inkscape:zoom="0.53125"
     inkscape:cx="800"
     inkscape:cy="800"
     inkscape:window-width="1674"
     inkscape:window-height="773"
     inkscape:window-x="1970"
     inkscape:window-y="89"
     inkscape:window-maximized="0"
     inkscape:current-layer="svg20" />
  <g
     id="g18"
     style="fill:#e6e6e6">
    <path
       d="m600 602.7c-52.242 0-102.34 20.754-139.28 57.691-36.941 36.941-57.695 87.043-57.695 139.29s20.754 102.34 57.695 139.28c36.938 36.941 87.039 57.695 139.28 57.695s102.34-20.754 139.28-57.695c36.941-36.938 57.695-87.039 57.695-139.28-0.058593-52.223-20.832-102.29-57.758-139.22-36.93-36.926-86.996-57.699-139.22-57.758zm91.875 144.44-113.41 197.89v-0.003907c-2.6914 4.6953-8.2461 6.9375-13.441 5.4219-5.1953-1.5117-8.6797-6.3867-8.4297-11.789l4.7734-102.85-24.168-0.027343c-3.4375-0.003907-6.6953-1.5156-8.9219-4.1367-2.2227-2.6172-3.1836-6.082-2.6289-9.4727l24.609-150.65c0.92578-5.668 5.8203-9.8281 11.566-9.8281h89.895c3.7656 0 7.3008 1.8086 9.5039 4.8633s2.8047 6.9844 1.6133 10.559l-18.336 55.078 36.387-2.5586c4.3164-0.30469 8.4492 1.7969 10.75 5.4609 2.2969 3.668 2.3906 8.3008 0.23828 12.055z"
       id="path2"
       style="fill:#e6e6e6" />
    <path
       d="m618.6 752.28c-2.3984-3.0898-3.0977-7.1758-1.8594-10.887l18.734-56.273h-63.688l-20.77 127.22 22.656 0.023438c3.1992 0.003906 6.2578 1.3164 8.4688 3.6328 2.207 2.3164 3.3711 5.4336 3.2227 8.6289l-3.0898 66.641 78.363-136.74-31.949 2.2461v0.003906c-3.9023 0.27344-7.6875-1.4141-10.09-4.5z"
       id="path4"
       style="fill:#e6e6e6" />
    <path
       d="m408.28 275.18c0.023438-20.875 8.3281-40.891 23.094-55.652 14.762-14.758 34.781-23.059 55.656-23.078h200.19c20.871 0.027344 40.879 8.332 55.637 23.09 14.758 14.762 23.059 34.77 23.082 55.641v30.516h48.73v-30.516c-0.039063-33.793-13.48-66.191-37.379-90.086-23.895-23.895-56.293-37.336-90.086-37.375h-200.17c-33.793 0.039063-66.191 13.48-90.086 37.375-23.898 23.895-37.34 56.293-37.375 90.086v30.516h48.711z"
       id="path6"
       style="fill:#e6e6e6" />
    <path
       d="m941.88 595.18v-79.125h-100.69v79.125l50.344 37.215z"
       id="path8"
       style="fill:#e6e6e6" />
    <path
       d="m333.04 595.36v-79.301h-100.69v79.301l50.34 39.117z"
       id="path10"
       style="fill:#e6e6e6" />
    <path
       d="m1105 420.52c-0.027344-24.227-9.6641-47.453-26.793-64.582-17.133-17.133-40.355-26.77-64.582-26.797h-827.23c-24.227 0.027343-47.449 9.6641-64.582 26.797-17.129 17.129-26.766 40.355-26.793 64.582v10.914h1010z"
       id="path12"
       style="fill:#e6e6e6" />
    <path
       d="m965.31 601.09c0 3.7188-1.7656 7.2148-4.7539 9.4258l-62.066 45.883h0.003906c-4.1406 3.0586-9.793 3.0586-13.934 0l-62.059-45.883h-0.003906c-2.9883-2.2109-4.75-5.707-4.75-9.4258v-48.129h-461.27v48.129c0 3.6211-1.6719 7.0352-4.5312 9.2578l-62.062 48.223c-4.2305 3.2852-10.148 3.2852-14.379 0l-62.062-48.223c-2.8594-2.2227-4.5273-5.6367-4.5273-9.2578v-48.129h-113.91v407.94c0.027344 24.227 9.6641 47.453 26.793 64.582 17.133 17.133 40.355 26.77 64.582 26.797h827.23c24.223-0.027344 47.449-9.6641 64.582-26.797 17.129-17.129 26.766-40.355 26.793-64.582v-407.94h-139.69zm-803.59 370.95c0 6.4727-5.2461 11.719-11.719 11.719s-11.719-5.2461-11.719-11.719v-225.16c0-6.4727 5.2461-11.719 11.719-11.719s11.719 5.2461 11.719 11.719zm0-266.45c0 6.4727-5.2461 11.719-11.719 11.719s-11.719-5.2461-11.719-11.719v-16.52c0-6.4727 5.2461-11.719 11.719-11.719s11.719 5.2461 11.719 11.719zm438.28 314.5c-58.457 0-114.52-23.223-155.86-64.559-41.336-41.336-64.559-97.398-64.559-155.86s23.223-114.52 64.559-155.86c41.336-41.336 97.398-64.559 155.86-64.559s114.52 23.223 155.86 64.559c41.336 41.336 64.559 97.398 64.559 155.86-0.066406 58.438-23.309 114.46-64.633 155.78-41.32 41.324-97.344 64.566-155.78 64.633z"
       id="path14"
       style="fill:#e6e6e6" />
    <path
       d="m64.703 529.52h144.21v-25.184c0-6.4688 5.2461-11.719 11.719-11.719h124.13c3.1094 0 6.0898 1.2344 8.2852 3.4336 2.1992 2.1992 3.4336 5.1797 3.4336 8.2852v25.184h461.27v-25.184c0-6.4688 5.2461-11.719 11.719-11.719h124.12c3.1055 0 6.0859 1.2344 8.2852 3.4336 2.1992 2.1992 3.4336 5.1797 3.4336 8.2852v25.184h169.98v-74.652h-1070.6z"
       id="path16"
       style="fill:#e6e6e6" />
  </g>
</svg>
