<?xml version="1.0" encoding="UTF-8" standalone="no"?>
<svg
   width="1200pt"
   height="1200pt"
   version="1.1"
   viewBox="0 0 1200 1200"
   id="svg4"
   sodipodi:docname="noun-mess-4591969.svg"
   inkscape:version="1.2.2 (b0a8486541, 2022-12-01)"
   xmlns:inkscape="http://www.inkscape.org/namespaces/inkscape"
   xmlns:sodipodi="http://sodipodi.sourceforge.net/DTD/sodipodi-0.dtd"
   xmlns="http://www.w3.org/2000/svg"
   xmlns:svg="http://www.w3.org/2000/svg">
  <defs
     id="defs8" />
  <sodipodi:namedview
     id="namedview6"
     pagecolor="#ffffff"
     bordercolor="#666666"
     borderopacity="1.0"
     inkscape:showpageshadow="2"
     inkscape:pageopacity="0.0"
     inkscape:pagecheckerboard="0"
     inkscape:deskcolor="#d1d1d1"
     inkscape:document-units="pt"
     showgrid="false"
     inkscape:zoom="0.53125"
     inkscape:cx="800"
     inkscape:cy="800"
     inkscape:window-width="1674"
     inkscape:window-height="773"
     inkscape:window-x="1970"
     inkscape:window-y="89"
     inkscape:window-maximized="0"
     inkscape:current-layer="svg4" />
  <path
     d="m1106.8 386.91c-3.6641-7.4531-17.18-9.9805-24.379-7.3281-14.652 5.3047-27.41 12.758-38.777 21.852-9.4727-36.254-29.809-66.57-73.262-74.777-3.1562-0.63281-6.3164-1.0117-9.3477-1.3906-1.6406-3.1562-3.1562-6.4414-4.9258-9.6016 20.969-8.7148 40.801-20.715 58.863-37.262 33.223-30.57 52.801-75.41 50.527-120.76-2.2734-45.727-27.535-89.305-73.012-103.58-26.906-8.4648-57.852-5.0508-79.328 14.398-17.684 16.043-27.156 40.547-29.684 63.914-3.4102 30.441 5.3047 61.391 21.852 87.285-9.4727 2.0195-18.82 4.9258-27.535 8.5898-1.3906 0.63281-2.7773 1.3906-4.168 2.0195-22.609-13.77-47.496-23.496-74.02-27.285-35.117-5.0508-69.852 0-102.06 12.758-10.988-32.969-31.199-61.77-63.156-80.844-51.285-30.695-117.35-32.969-175.58-32.211-65.43 0.88281-133.14 12.758-188.84 48.633-34.359 22.105-63.031 53.43-80.59 90.191-15.789 3.0312-30.949 8.5898-43.707 16.293-54.441 32.465-75.031 94.609-86.398 153.6-22.484 116.84-8.3359 255.16 100.17 323.37-14.148 11.875-26.02 26.652-35.875 42.441-37.391 59.629-46.359 136.05-16.043 200.47 19.578 41.559 55.578 74.398 97.641 93.094 33.473 29.051 79.832 42.82 127.33 43.199 53.559 0.50391 102.44-11.621 147.16-32.465 3.5352 4.168 7.3281 8.2109 11.621 12 90.949 80.969 221.05 18.316 289.77-63.789 34.738 34.863 80.59 57.98 132.88 59.621 40.672 1.2617 80.969-14.398 105.22-48 24.758-34.484 35.242-79.707 43.832-120.5 9.9805-47.746 13.137-95.875 10.738-143.88 82.102-112.04 95.113-265.51 33.09-390.06zm-32.336 36.504c39.031 91.074 35.242 198.06-7.832 286.86-3.4102-21.348-7.832-42.57-13.262-63.664-3.6641-14.273-7.707-28.801-11.242-43.453 14.398-49.137 12.504-103.07 8.9688-153.47 6.1875-10.355 14.02-19.324 23.367-26.273zm-275.24 484.3c-4.8008 16.547-11.117 32.715-18.57 48.254-17.305-32.844-26.02-70.23-23.242-106.99 4.5469 6.4414 9.4727 12.758 14.906 18.82 9.0938 10.23 19.074 19.832 29.809 28.547-1.0078 3.7852-1.7656 7.5742-2.9023 11.367zm-593.81 8.207c6.6953-21.094 18.57-40.043 33.98-55.707 3.2852 4.5469 6.8203 8.9688 10.484 13.262-1.3906 30.949 4.293 61.895 19.199 90.062 17.684 33.223 44.969 58.359 76.926 75.41-2.9062 1.5156-5.8086 3.1562-8.8438 4.5469-33.473 13.895-70.988 10.609-104.09-3.2852-30.312-32.078-40.926-82.223-27.66-124.29zm672.12-630.44c3.7891 3.5352 7.0742 7.3281 10.484 10.988-10.484 1.3906-20.969 2.2734-31.578 2.5273-2.6523-2.9062-5.1797-5.6836-8.0859-8.3359 2.7773-2.5273 5.4297-5.1797 8.3359-7.5781 3.0312-2.3984 6.3164-4.8008 9.7266-7.1992 3.793 2.9023 7.582 6.1875 11.117 9.5977zm19.328 314.4c-11.242 18.316-24 35.242-37.641 51.156-3.1562-0.37891-6.3164-0.63281-9.4727-0.75781-13.262-0.63281-25.895 1.1367-37.895 4.6719-1.7695-3.4102-3.7891-6.8203-5.6836-10.23 7.3281-22.609 11.242-46.738 10.359-71.746 0-1.7695-0.37891-3.4102-0.37891-5.1797 1.0117-4.5469 1.7695-9.2227 2.3984-13.895 0.75781-0.63281 1.6406-1.1367 2.3984-1.7695 46.609-35.117 73.641-90.695 74.906-145.52 14.777 4.043 29.809 6.3164 45.223 5.8086 7.8242 63.539-9.7305 131.37-44.215 187.46zm-9.4766 99.914c-1.1367 0-2.3984 0-3.5352-0.125-5.3047-0.50391-10.23-1.5156-15.156-2.6523 1.3906-1.3906 2.7773-2.6523 4.043-3.9141 4.9219 1.8906 9.8516 4.1641 14.648 6.6914zm-77.684 145.01c-18.062-20.715-30.949-43.957-39.41-68.844 10.609-7.0742 20.969-14.273 31.199-21.727 7.0742 29.559 9.9805 60.129 8.2109 90.57zm-355.45 184.67c-10.484-0.25391-21.094-1.3906-31.832-3.6641 6.1914-6.9492 11.875-14.398 16.926-22.484 8.7148-13.641 15.664-28.672 20.59-44.211h0.63281c-8.7148 23.117-10.988 47.371-6.3164 70.359zm-30.441-108.12c-49.012-6.5703-95.117-28.043-128.84-63.031 1.6406-12.883 4.6719-25.641 8.9688-38.02 7.3281-2.2734 14.777-4.168 22.359-5.3047 31.707-4.8008 60.254 5.3047 78.441 32.086 14.906 21.848 20.844 48.25 19.074 74.27zm-7.832 36.379c-7.0742 20.211-18.57 38.777-33.473 54.191-39.664-19.074-71.496-52.293-83.367-94.988 35.113 23.238 75.281 36.5 116.84 40.797zm51.539-34.484c3.9141-38.527-5.1797-77.684-32.336-108.25-29.18-32.844-70.359-41.305-111.29-35.367 7.1992-11.621 15.41-22.484 24.504-32.59 6.4414-7.1992 13.516-13.895 20.844-20.336 21.727 0.50391 43.453-2.9062 64.547-9.6016 4.4219 1.3906 8.9688 2.5273 13.391 3.4102 5.6836 7.3281 11.746 14.398 18.57 20.844 30.82 29.43 71.875 46.23 114.06 50.777 15.664 6.8203 32.465 10.988 49.895 11.746 8.3359 0.37891 16.547-0.50391 24.758-1.8945-16.422 8.8438-32.844 17.305-49.262 25.77-46.863 24-93.852 51.41-124.55 94.484-4.4258 0.50781-8.8477 0.75781-13.141 1.0117zm-193.64-494.15c-2.0195-14.398-4.9258-28.801-7.707-43.074 27.535-16.422 39.031-50.148 33.473-81.094 15.789-5.3047 32.211-8.8438 48.633-9.8516 23.117-1.3906 45.473 2.0195 66.316 9.3477-24.633 18.82-45.727 44.336-54.57 73.012-30.945 14.398-60.121 31.828-86.145 51.66zm178.61-106.11c5.1797 3.4102 10.23 6.9492 15.156 10.863-4.168 3.9141-8.2109 7.832-12.125 12-13.516 2.9062-26.906 6.4414-40.168 10.484 9.3438-13.516 22.48-24.504 37.137-33.348zm187.07-20.461c7.5781 1.2617 15.031 2.6523 22.609 4.168-0.63281 6.8203-1.5156 13.77-2.7773 20.59-14.777 1.8945-29.43 4.6719-43.832 8.4648 3.4102-5.5586 6.9492-10.988 10.738-16.293 4.168-5.9414 8.5898-11.5 13.262-16.93zm130.74 25.008c-0.25391 0.37891-0.50391 0.88281-0.75781 1.2617-2.5273-0.37891-5.0508-0.88281-7.4531-1.2617-19.199-2.5273-38.652-3.6641-57.98-3.4102 0.50391-2.9062 0.75781-5.6836 1.1367-8.5898 20.973 4.4219 42.824 8.7188 65.055 12zm49.516 172.93c-1.2617 1.5156-2.6523 2.7773-3.9141 4.293-2.1484-9.2227-5.0508-18.316-8.9688-27.031 11.875-25.641 26.777-50.906 45.852-71.621 0.125 33.727-12.254 67.957-32.969 94.359zm-407.5-1.3906c1.7695 1.1367 3.5352 2.0195 5.3047 3.0312-12.254 30.57-18.191 63.789-15.789 98.398 1.1367 16.672 4.293 33.223 8.9688 49.137-15.914-25.137-22.359-58.359-20.086-85.391 1.7695-21.348 6.8203-42.57 14.148-63.156 2.5273-0.75781 5.0547-1.2617 7.4531-2.0195zm65.434-119.88c9.7266-1.5156 19.453-2.7773 29.305-3.5352 1.8945 2.6523 3.7891 5.3047 5.5586 8.0859-27.664 19.957-51.789 44.59-70.484 72.633-4.8008 0.75781-9.4727 1.7695-14.148 2.6523-1.0117-0.88281-2.0195-1.8945-3.0312-2.7773 10.105-18.949 21.602-37.137 33.98-53.684 5.9375-8.0898 12.379-15.797 18.82-23.375zm51.41 283.71c-0.37891-1.5156-0.63281-2.9062-0.88281-4.4219 3.2852-3.4102 6.4414-6.9492 9.6016-10.484 0.75781 1.0117 1.6406 2.0195 2.3984 3.0312-3.5391 4.2969-7.2031 8.3359-11.117 11.875zm-77.43-33.477c-9.7266-39.031-6.5703-77.051 5.6836-111.66 12.254 3.0312 24.883 4.6719 37.391 4.9258-11.875 31.707-17.18 66.441-15.914 100.67-8.8438 3.1562-17.43 6.5703-26.02 10.23-0.25781-1.5078-0.76172-2.7734-1.1406-4.1641zm184.8-234.19c-0.37891 0.88281-0.88281 1.6406-1.2617 2.5273-5.8086 1.1367-11.621 2.5273-17.43 4.293-1.6406-5.1797-3.4102-10.359-5.3047-15.41 8.082 2.3984 16.039 5.3047 23.996 8.5898zm65.434 229.39c-11.875-6.3164-25.262-9.8516-38.777-10.359 4.168-3.6641 7.957-7.832 11.367-12.254 14.148-0.75781 28.547-2.6523 42.57-5.6836 1.7695 1.8945 3.2852 3.7891 5.0508 5.6836-2.1484 10.609-3.7891 21.348-5.3047 32.086-0.125 0-0.25391 0.125-0.37891 0.125-4.4219-3.5352-9.2227-6.8203-14.527-9.5977zm-73.391-63.918c2.0195-9.7266 3.5352-19.453 4.4219-29.305 1.5156 1.3906 3.0312 2.6523 4.293 4.293 4.043 5.4297 10.484 7.5781 17.18 7.4531-1.2617 6.8203-3.1562 14.02-5.5586 20.969-6.8203-0.62891-13.766-1.6406-20.336-3.4102zm4.9258-76.043c-0.25391-4.4219-0.75781-8.8438-1.2617-13.391 1.5156-2.1484 3.1562-4.293 4.8008-6.3164h0.25391c13.137 4.4219 17.938 17.684 19.578 31.453-7.707-4.1641-15.414-8.082-23.371-11.746zm87.16-30.441c2.0195 2.1484 3.6641 4.5469 5.5586 6.6953-1.0117 7.3281-1.8945 14.777-2.6523 22.105-1.7695 19.199-2.5273 39.031-1.6406 58.738-6.5703-5.6836-13.391-11.117-20.336-16.422 2.7773-35.621-3.6641-75.535-36.379-91.199 1.3906-1.2617 2.6523-2.5273 4.043-3.7891 12.504 1.0117 24.758 3.9141 36.379 8.5898 5.0469 4.9258 10.102 9.9766 15.027 15.281zm24.629-72.504c-3.2852 9.0938-6.1914 18.316-8.7148 27.664-1.3906-0.63281-2.7773-1.2617-4.168-1.8945-4.8008-4.168-9.8516-8.0859-15.031-11.875 9.0938-5.0508 18.441-9.8516 27.914-13.895zm-214.73 35.496c1.6406 3.7891 3.0312 7.5781 4.4219 11.367-1.5156 8.8438-2.6523 17.684-3.2852 26.398-12.254-1.5156-24.504-2.2734-36.883-2.3984 10.48-12.883 22.48-24.758 35.746-35.367zm250.36 22.609c-1.8945-1.8945-3.9141-3.6641-5.9375-5.4297 2.2734-10.105 4.6719-20.086 7.5781-29.684 3.2852-10.863 7.1992-21.852 11.496-32.465 10.105 2.6523 20.211 5.6836 30.062 8.9688-16.418 17.43-30.82 37.641-43.199 58.609zm-87.789-71.875c0.88281-2.5273 1.5156-5.0508 2.3984-7.707 3.9141-0.125 7.957-0.25391 11.875-0.125-4.7969 2.4023-9.5977 5.0547-14.273 7.832zm-151.45 330.57c5.5586-3.7891 10.988-7.832 16.043-12.379 4.9258-4.4219 9.4727-8.9688 13.895-13.641 4.9258 1.5156 10.105 2.5273 15.41 2.6523 11.496 0.37891 22.863-2.7773 32.969-8.0859 3.1562-1.6406 6.3164-3.6641 9.3477-5.8086 13.012 5.8086 26.906 9.4727 41.18 11.242 1.5156 1.3906 3.1562 2.7773 4.6719 4.293 14.398 14.652 22.988 29.559 26.906 44.59-0.25391 0.75781-0.37891 1.5156-0.63281 2.2734-0.75781 2.0195-1.6406 3.9141-2.5273 5.8086-0.37891 0.25391-0.75781 0.63281-1.1367 0.88281-29.051 19.957-65.305 28.547-100.67 26.273-25.516-13.008-43.578-33.598-55.453-58.102zm246.07 10.863c0.88281 2.2734 1.6406 4.5469 2.3984 6.8203-7.0742 5.5586-14.273 10.988-21.602 16.168 5.6875-8.3359 12.129-16.293 19.203-22.988zm-255.54-372c-1.6406-1.8945-3.2852-3.6641-4.9258-5.4297 2.1484-1.7695 4.5469-3.2852 6.6953-5.0508 2.1484 3.5352 4.168 7.0742 6.1914 10.609-2.6562-0.12891-5.1797-0.25781-7.9609-0.12891zm-132 63.281c4.5469-1.8945 9.2227-3.4102 13.895-5.1797-4.4219 6.3164-8.7148 12.633-12.883 19.199-0.75781-4.543-1.1367-9.2188-1.0117-14.02zm-24.633 274.86c-6.3164 4.168-12.504 8.5898-18.57 13.262-35.117-6.8203-65.43-28.801-85.895-59.242-2.5273-3.6641-4.8008-7.707-6.9492-11.621 0.125-0.125 0.125-0.25391 0.125-0.37891 19.453-39.285 51.664-70.738 89.18-92.844-1.5156 6.1914-3.0312 12.504-4.168 18.82-8.5859 45.73-2.0156 95.375 26.277 132zm260.46 176.72c-27.285 22.105-58.738 40.293-86.777 52.168 25.641-21.348 56.586-37.137 86.777-52.168zm71.496-573.98c0-2.1484-0.25391-4.168-0.37891-6.3164 6.3164 0.50391 12.758 1.3906 19.074 2.5273 18.191 3.2852 36.125 9.0938 52.547 17.559-23.496-3.918-47.371-8.8438-71.242-13.77zm-114.07 18.191c-5.0508 6.4414-9.7266 13.262-14.273 20.211-2.6523-4.4219-5.3047-8.9688-8.0859-13.391 2.6523-1.3906 5.3047-3.0312 7.957-4.293 2.1484-1.1367 4.4219-2.0195 6.6953-3.0312 2.6562-0.003907 5.1836 0.25 7.707 0.50391zm-137.18-16.297c-52.043-24-112.29-27.41-170.4-7.832-6.0625-8.4648-13.516-15.156-21.98-20.211 8.7148-21.223 24.125-38.906 49.641-48.758 51.664-19.832 105.98 1.6406 146.15 35.496 10.609 8.9688 20.59 18.82 30.062 29.18-11.117 3.1562-22.359 7.0742-33.473 12.125zm-258.95 105.09c7.1992 5.3047 15.664 8.4648 24.633 9.7266 2.0195 10.105 4.043 20.211 5.8086 30.062 2.5273 14.398 4.6719 28.926 5.1797 43.453-11.242 14.527-19.957 30.57-25.262 47.875-11.875-3.4102-23.496-16.043-27.41-25.012-14.781-33.598-3.0312-74.02 17.051-106.11zm73.516 129.6c5.4297-12.504 7.1992-26.527 7.1992-40.672 21.094-22.738 49.77-40.422 78.57-54.441 1.1367 7.707 3.2852 15.41 6.5703 23.117 3.1562 7.4531 7.0742 14.398 11.621 20.844-1.8945 4.168-3.6641 8.4648-5.3047 12.758-47.875 19.578-90.695 50.652-122.15 92.59-1.2617-8.8438-1.3906-17.684-0.75781-26.527 10.102-6.0664 18.82-15.164 24.25-27.668zm-23.113 248.34c10.484 0.75781 28.168-11.117 23.496-23.621-5.6836-15.285-16.801-24-30.062-27.914 0.37891-14.398 2.1484-28.672 5.3047-42.695 6.0625 6.8203 12.504 13.391 19.453 19.199 17.43 14.652 36.633 24.758 56.465 30.949-22.23 22.359-40.926 47.875-53.938 77.051-3.7891 1.7695-7.4531 3.5352-10.988 5.4297-3.0312-7.1992-5.8086-14.652-8.0859-22.484-1.5156-5.3047-2.6523-10.609-3.7891-16.043 0.62891 0.003907 1.3867 0.12891 2.1445 0.12891zm140.46 292.8c12.125 3.5352 24.504 6.0625 37.012 7.707-25.641 8.4648-53.938 14.148-81.852 14.652 15.914-5.3086 30.945-12.887 44.84-22.359zm111.66-31.328c-5.8086-22.738-2.7773-48 8.8438-71.117 23.117-4.5469 45.727-11.367 67.328-20.715 24.883-10.738 53.18-27.285 79.707-47.875-41.684 51.789-87.664 99.914-142.48 135.79-4.5547 1.3945-8.9727 2.7812-13.395 3.918zm341.05-296.46c19.578 6.8203 40.422 9.4727 61.641 6.6953 9.0938-1.1367 17.809-3.2852 26.273-6.0625 0.37891 0.37891 0.88281 0.75781 1.3906 1.1367 23.496 19.707 46.484 40.801 64.043 66.191 14.652 21.223 28.422 49.77 16.422 75.41-10.738 22.863-38.527 33.348-62.148 36.125-35.242 4.043-70.105-8.0859-99.41-27.914 8.4648-50.023 5.5586-101.81-8.2109-151.58zm160.17 9.2188c-9.7266-9.9805-20.211-20.086-31.199-29.684 16.043-11.496 30.062-25.77 41.684-41.938 0.25391 1.0117 0.50391 2.1484 0.75781 3.1562 8.3359 33.223 14.02 66.82 16.547 100.8-8.7148-11.746-18.312-22.734-27.789-32.336zm1.1406-320.08c2.0195 9.8516 3.2852 19.957 4.293 30.062-14.398 27.535-20.969 59.875-19.578 92.086 1.0117 22.359 4.6719 44.086 9.6016 65.684-0.75781 2.1484-1.3906 4.293-2.1484 6.4414-10.105 27.285-29.18 55.453-54.441 72.504-12.504-8.5898-25.641-16.168-39.285-21.98 15.789-19.074 30.191-39.41 42.695-61.391 39.41-69.223 55.707-152.34 36.254-227.37 12.25 10.738 19.07 26.781 22.609 43.961zm-38.656-331.45c24.254 2.3984 43.578 23.875 51.41 45.602 12.504 34.105 5.9375 73.391-13.895 103.45-12.504-8.9688-26.906-14.527-42.062-17.051-19.957-20.336-32.086-49.012-31.707-77.051 0.50781-21.605 8.3398-57.605 36.254-54.953zm-30.691 165.73 0.25391 0.25391c9.2227 7.832 19.453 14.02 30.316 18.82-8.9688 5.6836-18.57 10.23-28.547 14.02-1.2617-1.6406-2.3984-3.2852-3.7891-4.9258-7.1992-8.5898-15.156-16.547-23.496-24 8.332-2.5273 16.922-4.043 25.262-4.168zm-99.539 2.3984c-5.4297 4.168-10.609 8.5898-15.664 13.262-23.496-14.398-49.262-23.367-75.914-28.168 32.082-5.8086 63.535 0.63281 91.578 14.906zm-253.89-101.05c42.57 14.777 66.695 46.359 77.305 84-0.88281 0.50391-1.6406 1.0117-2.5273 1.5156-25.641 3.9141-50.906 10.988-74.652 20.844-13.262-0.50391-26.398-0.50391-39.41 0.50391-50.527-62.148-119.5-109.26-201.35-98.652-5.4297 0.75781-10.863 1.7695-16.293 2.9062 28.293-12.758 59.367-19.957 90.062-22.988 53.434-5.1836 115.45-6.0664 166.86 11.871zm-447.29 496.42c-32.465-48.758-40.926-109.01-37.77-166.48 3.0312-55.074 11.367-121.77 44.336-168 8.0859-11.242 21.094-22.484 35.746-30.316-0.125 0.25391-0.125 0.63281-0.25391 0.88281-4.043 19.707-4.8008 42.441 0.37891 62.906-4.168 5.1797-8.2109 10.484-11.875 16.043-28.293 42.695-48.254 106.11-19.074 153.35 12.379 20.086 34.863 31.832 57.852 34.23-0.25391 5.6836-0.125 11.496 0.37891 17.305 1.6406 18.57 6.8203 36.758 14.527 53.809-11.496 27.789-18.191 57.473-19.578 87.41-26.141-14.523-48.371-36.754-64.668-61.133zm5.5586 202.61c6.3164-30.949 20.969-60.125 41.809-83.875 2.5273-2.7773 9.6016-9.4727 17.684-15.156 0.37891 0.125 0.88281 0.25391 1.2617 0.37891 3.1562 25.391 9.9805 50.148 21.094 73.262-43.199 36.504-68.59 90.949-63.285 146.78-21.09-35.617-27.277-78.945-18.562-121.39zm572.34 195.79c-44.465 36.758-108.12 62.652-163.33 34.105-11.117-5.8086-20.336-13.137-27.664-21.348 3.7891-2.2734 7.4531-4.5469 11.242-6.9492 1.5156-0.50391 3.1562-0.88281 4.6719-1.5156 52.043-19.074 96.883-54.441 130.61-98.273 17.305-22.359 31.832-47.117 43.328-73.012 0.125-0.37891 0.25391-0.75781 0.50391-1.2617 1.2617-1.6406 2.5273-3.1562 3.7891-4.8008 1.8945 44.211 17.051 87.789 42.316 124.04-13.258 18.316-28.289 34.863-45.469 49.012zm262.61-11.746c-26.02 24.883-68.336 19.707-98.906 7.3281-26.02-10.484-49.137-27.789-67.328-49.262 14.148-23.367 25.012-47.875 32.715-73.137 20.086 10.738 41.809 18.441 64.547 21.602 37.516 5.3047 82.738-1.1367 115.2-23.746-0.63281 3.0312-1.1367 6.1914-1.7695 9.2227-7.6992 35.234-17.301 81.969-44.457 107.99z"
     id="path2"
     style="fill:#e6e6e6" />
</svg>
