<?xml version="1.0" encoding="UTF-8" standalone="no"?>
<svg
   width="1200pt"
   height="1200pt"
   version="1.1"
   viewBox="0 0 1200 1200"
   id="svg2661"
   sodipodi:docname="default.svg"
   inkscape:version="1.2.2 (b0a8486541, 2022-12-01)"
   xmlns:inkscape="http://www.inkscape.org/namespaces/inkscape"
   xmlns:sodipodi="http://sodipodi.sourceforge.net/DTD/sodipodi-0.dtd"
   xmlns="http://www.w3.org/2000/svg"
   xmlns:svg="http://www.w3.org/2000/svg">
  <defs
     id="defs2665" />
  <sodipodi:namedview
     id="namedview2663"
     pagecolor="#ffffff"
     bordercolor="#666666"
     borderopacity="1.0"
     inkscape:showpageshadow="2"
     inkscape:pageopacity="0.0"
     inkscape:pagecheckerboard="0"
     inkscape:deskcolor="#d1d1d1"
     inkscape:document-units="pt"
     showgrid="false"
     inkscape:zoom="0.53125"
     inkscape:cx="800"
     inkscape:cy="800"
     inkscape:window-width="1674"
     inkscape:window-height="773"
     inkscape:window-x="1970"
     inkscape:window-y="89"
     inkscape:window-maximized="0"
     inkscape:current-layer="svg2661" />
  <path
     d="m881.52 1080c56.281 0 102-45.719 102-102v-756c0-56.281-45.719-102-102-102h-481.92c-4.6797 0.12109-9.2383 1.8008-12.719 5.2812l-165.24 165.24c-3.4805 3.4805-5.1602 8.0391-5.1602 12.719h-0.12109v674.76c0 56.281 45.719 102 102 102zm-629.04-102v-656.76h124.8c22.32 0 40.441-18.121 40.441-40.441v-124.8h463.92c36.359 0 66 29.641 66 66v756c0 36.359-29.641 66-66 66l-563.16 0.003906c-36.359 0-66-29.641-66-66z"
     id="path2659"
     style="fill:#e6e6e6" />
</svg>
