<?xml version="1.0" encoding="UTF-8" standalone="no"?>
<svg
   width="1200pt"
   height="1200pt"
   version="1.1"
   viewBox="0 0 1200 1200"
   id="svg4"
   sodipodi:docname="del.svg"
   inkscape:version="1.2.2 (b0a8486541, 2022-12-01)"
   xmlns:inkscape="http://www.inkscape.org/namespaces/inkscape"
   xmlns:sodipodi="http://sodipodi.sourceforge.net/DTD/sodipodi-0.dtd"
   xmlns="http://www.w3.org/2000/svg"
   xmlns:svg="http://www.w3.org/2000/svg">
  <defs
     id="defs8" />
  <sodipodi:namedview
     id="namedview6"
     pagecolor="#ffffff"
     bordercolor="#666666"
     borderopacity="1.0"
     inkscape:showpageshadow="2"
     inkscape:pageopacity="0.0"
     inkscape:pagecheckerboard="0"
     inkscape:deskcolor="#d1d1d1"
     inkscape:document-units="pt"
     showgrid="false"
     inkscape:zoom="0.53125"
     inkscape:cx="800"
     inkscape:cy="692.70588"
     inkscape:window-width="1674"
     inkscape:window-height="773"
     inkscape:window-x="1970"
     inkscape:window-y="89"
     inkscape:window-maximized="0"
     inkscape:current-layer="svg4" />
  <path
     d="m500 900c13.262 0 25.98-5.2695 35.355-14.645s14.645-22.094 14.645-35.355v-300c0-13.262-5.2695-25.98-14.645-35.355s-22.094-14.645-35.355-14.645-25.977 5.2695-35.355 14.645c-9.375 9.375-14.645 22.094-14.645 35.355v300c0 13.262 5.2695 25.98 14.645 35.355 9.3789 9.375 22.094 14.645 35.355 14.645zm500-600h-200v-50c0-39.781-15.805-77.934-43.934-106.07-28.133-28.129-66.285-43.934-106.07-43.934h-100c-39.781 0-77.934 15.805-106.07 43.934-28.129 28.133-43.934 66.285-43.934 106.07v50h-200c-13.262 0-25.977 5.2695-35.355 14.645-9.375 9.3789-14.645 22.094-14.645 35.355s5.2695 25.977 14.645 35.355c9.3789 9.375 22.094 14.645 35.355 14.645h50v550c0 39.781 15.805 77.934 43.934 106.07 28.133 28.129 66.285 43.934 106.07 43.934h400c39.781 0 77.934-15.805 106.07-43.934 28.129-28.133 43.934-66.285 43.934-106.07v-550h50c13.262 0 25.98-5.2695 35.355-14.645 9.375-9.3789 14.645-22.094 14.645-35.355s-5.2695-25.977-14.645-35.355c-9.375-9.375-22.094-14.645-35.355-14.645zm-500-50c0-13.262 5.2695-25.977 14.645-35.355 9.375-9.375 22.094-14.645 35.355-14.645h100c13.262 0 25.98 5.2695 35.355 14.645 9.375 9.3789 14.645 22.094 14.645 35.355v50h-200zm350 700c0 13.262-5.2695 25.98-14.645 35.355s-22.094 14.645-35.355 14.645h-400c-13.262 0-25.977-5.2695-35.355-14.645-9.375-9.375-14.645-22.094-14.645-35.355v-550h500zm-150-50c13.262 0 25.98-5.2695 35.355-14.645s14.645-22.094 14.645-35.355v-300c0-13.262-5.2695-25.98-14.645-35.355s-22.094-14.645-35.355-14.645-25.98 5.2695-35.355 14.645-14.645 22.094-14.645 35.355v300c0 13.262 5.2695 25.98 14.645 35.355s22.094 14.645 35.355 14.645z"
     id="path2"
     style="fill:#e6e6e6" />
</svg>
