<?xml version="1.0" encoding="UTF-8" standalone="no"?>
<svg
   width="1200pt"
   height="1200pt"
   version="1.1"
   viewBox="0 0 1200 1200"
   id="svg2235"
   sodipodi:docname="disponible_chercher.svg"
   inkscape:version="1.2.2 (b0a8486541, 2022-12-01)"
   xmlns:inkscape="http://www.inkscape.org/namespaces/inkscape"
   xmlns:sodipodi="http://sodipodi.sourceforge.net/DTD/sodipodi-0.dtd"
   xmlns="http://www.w3.org/2000/svg"
   xmlns:svg="http://www.w3.org/2000/svg">
  <defs
     id="defs2239" />
  <sodipodi:namedview
     id="namedview2237"
     pagecolor="#ffffff"
     bordercolor="#666666"
     borderopacity="1.0"
     inkscape:showpageshadow="2"
     inkscape:pageopacity="0.0"
     inkscape:pagecheckerboard="0"
     inkscape:deskcolor="#d1d1d1"
     inkscape:document-units="pt"
     showgrid="false"
     inkscape:zoom="0.4646271"
     inkscape:cx="389.55972"
     inkscape:cy="814.63178"
     inkscape:window-width="1920"
     inkscape:window-height="1016"
     inkscape:window-x="0"
     inkscape:window-y="27"
     inkscape:window-maximized="1"
     inkscape:current-layer="svg2235" />
  <rect
     style="fill:#ffffff;stroke:#ffd5d5;stroke-width:0.9"
     id="rect2732"
     width="529.74854"
     height="335.50699"
     x="251.31635"
     y="473.16788" />
  <path
     d="M 775.76814,248.90587 652.15997,125.2977 c -3.53225,-3.53225 -7.94697,-5.2969 -12.36155,-5.2969 H 233.65731 c -9.71133,0 -17.65831,7.94698 -17.65831,17.65831 v 671.01575 c 0,9.71133 7.94698,17.65831 17.65831,17.65831 h 529.74927 c 9.71134,0 17.65831,-7.94698 17.65831,-17.65831 V 261.26727 c 0,-4.41457 -1.76465,-8.82915 -5.2969,-12.36155 z m -118.31068,-68.86594 63.56845,63.56845 H 657.45746 Z M 251.31635,791.01743 V 155.3183 h 370.8245 v 105.94986 c 0,9.71133 7.94697,17.65831 17.6583,17.65831 h 105.94986 v 512.09096 z m 61.80409,-335.50787 h 141.26647 c 5.2969,0 8.82915,-3.53225 8.82915,-8.82916 V 217.12238 c 0,-5.2969 -3.53225,-8.82915 -8.82915,-8.82915 H 313.12044 c -5.29691,0 -8.82916,3.53225 -8.82916,8.82915 V 446.6804 c 0,5.29691 3.53225,8.82916 8.82916,8.82916 z m 8.82915,-229.55802 H 445.55775 V 437.85125 H 321.94959 Z m 211.89971,8.82915 c 0,-4.41457 4.41458,-8.82915 8.82915,-8.82915 h 61.80409 v 17.65831 h -61.80409 c -4.41457,0 -8.82915,-4.41458 -8.82915,-8.82916 z m -35.31662,35.31662 c 0,-4.41458 4.41458,-8.82915 8.82916,-8.82915 h 97.1207 v 17.65831 h -97.1207 c -4.41458,0 -8.82916,-4.41458 -8.82916,-8.82916 z m 194.2414,35.31662 c 0,5.2969 -3.53225,8.82915 -8.82915,8.82915 h -35.31662 c -5.2969,0 -8.82916,-3.53225 -8.82916,-8.82915 0,-5.29691 3.53226,-8.82916 8.82916,-8.82916 h 35.31662 c 5.2969,0 8.82915,3.53225 8.82915,8.82916 z m -194.2414,0 c 0,-5.29691 3.53225,-8.82916 8.82916,-8.82916 h 105.94985 c 5.29691,0 8.82916,3.53225 8.82916,8.82916 0,5.2969 -3.53225,8.82915 -8.82916,8.82915 H 507.36184 c -5.29691,0 -8.82916,-3.53225 -8.82916,-8.82915 z m 194.2414,35.31662 c 0,5.2969 -3.53225,8.82915 -8.82915,8.82915 H 577.99507 c -5.2969,0 -8.82915,-3.53225 -8.82915,-8.82915 0,-5.29691 3.53225,-8.82916 8.82915,-8.82916 h 105.94986 c 5.2969,0 8.82915,3.53225 8.82915,8.82916 z m -194.2414,0 c 0,-5.29691 3.53225,-8.82916 8.82916,-8.82916 h 35.31661 c 5.29691,0 8.82916,3.53225 8.82916,8.82916 0,5.2969 -3.53225,8.82915 -8.82916,8.82915 h -35.31661 c -5.29691,0 -8.82916,-3.53225 -8.82916,-8.82915 z m 194.2414,35.31662 c 0,5.2969 -3.53225,8.82915 -8.82915,8.82915 H 507.36184 c -5.29691,0 -8.82916,-3.53225 -8.82916,-8.82915 0,-5.29691 3.53225,-8.82916 8.82916,-8.82916 h 176.58309 c 5.2969,0 8.82915,3.53225 8.82915,8.82916 z m 0,35.31661 c 0,5.29691 -3.53225,8.82916 -8.82915,8.82916 h -35.31662 c -5.2969,0 -8.82916,-3.53225 -8.82916,-8.82916 0,-5.2969 3.53226,-8.82915 8.82916,-8.82915 h 35.31662 c 5.2969,0 8.82915,3.53225 8.82915,8.82915 z m -194.2414,0 c 0,-5.2969 3.53225,-8.82915 8.82916,-8.82915 h 105.94985 c 5.29691,0 8.82916,3.53225 8.82916,8.82915 0,5.29691 -3.53225,8.82916 -8.82916,8.82916 H 507.36184 c -5.29691,0 -8.82916,-3.53225 -8.82916,-8.82916 z m 194.2414,35.31662 c 0,5.29691 -3.53225,8.82916 -8.82915,8.82916 H 507.36184 c -5.29691,0 -8.82916,-3.53225 -8.82916,-8.82916 0,-5.2969 3.53225,-8.82915 8.82916,-8.82915 h 176.58309 c 5.2969,0 8.82915,3.53225 8.82915,8.82915 z m 0,70.63324 c 0,5.2969 -3.53225,8.82915 -8.82915,8.82915 H 348.43705 c -5.2969,0 -8.82915,-3.53225 -8.82915,-8.82915 0,-5.29691 3.53225,-8.82916 8.82915,-8.82916 h 335.50788 c 5.2969,0 8.82915,3.53225 8.82915,8.82916 z m 0,35.31662 c 0,5.2969 -3.53225,8.82915 -8.82915,8.82915 h -70.63324 c -5.2969,0 -8.82915,-3.53225 -8.82915,-8.82915 0,-5.29691 3.53225,-8.82916 8.82915,-8.82916 h 70.63324 c 5.2969,0 8.82915,3.53225 8.82915,8.82916 z m -388.4828,0 c 0,-5.29691 3.53225,-8.82916 8.82916,-8.82916 h 264.87463 c 5.29691,0 8.82916,3.53225 8.82916,8.82916 0,5.2969 -3.53225,8.82915 -8.82916,8.82915 H 313.12044 c -5.29691,0 -8.82916,-3.53225 -8.82916,-8.82915 z m 388.4828,35.31661 c 0,5.29691 -3.53225,8.82916 -8.82915,8.82916 H 472.04522 c -5.29691,0 -8.82916,-3.53225 -8.82916,-8.82916 0,-5.2969 3.53225,-8.82915 8.82916,-8.82915 h 211.89971 c 5.2969,0 8.82915,3.53225 8.82915,8.82915 z m -388.4828,0 c 0,-5.2969 3.53225,-8.82915 8.82916,-8.82915 H 436.7286 c 5.2969,0 8.82915,3.53225 8.82915,8.82915 0,5.29691 -3.53225,8.82916 -8.82915,8.82916 H 313.12044 c -5.29691,0 -8.82916,-3.53225 -8.82916,-8.82916 z m 388.4828,35.31662 c 0,5.29691 -3.53225,8.82916 -8.82915,8.82916 h -70.63324 c -5.2969,0 -8.82915,-3.53225 -8.82915,-8.82916 0,-5.2969 3.53225,-8.82915 8.82915,-8.82915 h 70.63324 c 5.2969,0 8.82915,3.53225 8.82915,8.82915 z m -388.4828,0 c 0,-5.2969 3.53225,-8.82915 8.82916,-8.82915 h 264.87463 c 5.29691,0 8.82916,3.53225 8.82916,8.82915 0,5.29691 -3.53225,8.82916 -8.82916,8.82916 H 313.12044 c -5.29691,0 -8.82916,-3.53225 -8.82916,-8.82916 z m 388.4828,35.31662 c 0,5.29691 -3.53225,8.82916 -8.82915,8.82916 H 472.04522 c -5.29691,0 -8.82916,-3.53225 -8.82916,-8.82916 0,-5.2969 3.53225,-8.82915 8.82916,-8.82915 h 211.89971 c 5.2969,0 8.82915,3.53225 8.82915,8.82915 z m -388.4828,0 c 0,-5.2969 3.53225,-8.82915 8.82916,-8.82915 H 436.7286 c 5.2969,0 8.82915,3.53225 8.82915,8.82915 0,5.29691 -3.53225,8.82916 -8.82915,8.82916 H 313.12044 c -5.29691,0 -8.82916,-3.53225 -8.82916,-8.82916 z m 388.4828,35.31662 c 0,5.2969 -3.53225,8.82915 -8.82915,8.82915 H 542.67845 c -5.2969,0 -8.82915,-3.53225 -8.82915,-8.82915 0,-5.2969 3.53225,-8.82916 8.82915,-8.82916 h 141.26648 c 5.2969,0 8.82915,3.53226 8.82915,8.82916 z m -388.4828,0 c 0,-5.2969 3.53225,-8.82916 8.82916,-8.82916 h 194.2414 c 5.2969,0 8.82915,3.53226 8.82915,8.82916 0,5.2969 -3.53225,8.82915 -8.82915,8.82915 h -194.2414 c -5.29691,0 -8.82916,-3.53225 -8.82916,-8.82915 z m 388.4828,35.31662 c 0,5.2969 -3.53225,8.82915 -8.82915,8.82915 H 313.12044 c -5.29691,0 -8.82916,-3.53225 -8.82916,-8.82915 0,-5.29691 3.53225,-8.82916 8.82916,-8.82916 h 370.82449 c 5.2969,0 8.82915,3.53225 8.82915,8.82916 z"
     id="path2233"
     style="fill:#aa0000;stroke-width:0.999997" />
  <path
     d="m 1057.2206,897.51924 c 0.092,-0.36081 0.1124,-0.79803 0.2103,-1.30563 0.1886,-0.86712 0.5239,-1.72837 0.4982,-2.67888 -0.8277,-42.28475 -5.8495,-81.0486 -15.0726,-116.1479 -9.1452,-35.16851 -22.348,-66.66537 -39.544,-94.2663 l 3.7498,-3.39561 c 4.2085,-3.81108 4.5337,-10.37258 0.7227,-14.58113 l 15.3038,-13.85847 c 4.2085,-3.81108 4.5337,-10.3726 0.7226,-14.58114 l -41.57537,-45.91143 c -3.81108,-4.20854 -10.3726,-4.53374 -14.58114,-0.72266 l -15.30381,13.85847 c -3.81108,-4.20854 -10.37259,-4.53375 -14.58114,-0.72267 l -3.74974,3.3956 c -51.59991,-39.75825 -120.06909,-65.07605 -203.98211,-75.15516 -0.9433,-0.11954 -1.83351,0.12896 -2.71499,0.23086 -0.5148,0.0473 -0.9505,0.0257 -1.32008,0.0802 -0.22146,0.0618 -0.3754,0.20121 -0.52783,0.33925 -1.11165,0.31033 -2.08527,0.77308 -2.9957,1.45881 -0.15244,0.13804 -0.23735,0.35366 -0.38978,0.4917 -0.84141,0.76194 -1.61378,1.60009 -2.2483,2.59357 0.069,0.0762 -0.0762,0.069 -0.007,0.14524 -0.56396,1.06832 -0.91367,2.22006 -1.11816,3.37899 -0.007,0.14524 -0.0834,0.21426 -0.0921,0.36086 -0.007,0.14524 0.056,0.36819 0.0473,0.51479 -0.0579,1.16765 0.0368,2.19436 0.27814,3.22981 0.1322,0.29918 0.18532,0.66722 0.31754,0.96641 0.4512,1.26422 1.05202,2.3903 1.95334,3.38563 0.76194,0.8414 1.67631,1.54477 2.74601,2.11026 l 0.069,0.0762 0.069,0.0762 c 56.21559,30.70417 106.94013,67.49493 151.19669,109.44648 -2.75044,3.88336 -2.79494,9.21693 0.53019,12.88884 l -260.1647,235.594 c -4.20855,3.81108 -4.53374,10.37259 -0.72266,14.58114 l 41.57542,45.91142 c 3.81107,4.20855 10.37259,4.53376 14.58113,0.72268 l 260.1647,-235.594 c 3.32659,3.67352 8.63696,4.15502 12.77325,1.80205 37.36984,48.18787 68.9646,102.30171 93.9597,161.27785 l 0.069,0.0762 0.069,0.0762 c 0.4569,1.12033 1.0664,2.09974 1.8284,2.9412 0.9013,0.99534 1.9624,1.70459 3.107,2.19949 0.3536,0.23733 0.7146,0.32661 0.9992,0.48775 1.0066,0.34252 2.0189,0.53827 3.1865,0.59616 0.1453,0.007 0.3609,0.0921 0.5076,0.0979 0.1452,0.007 0.2215,-0.0619 0.3683,-0.0559 1.1734,-0.0889 2.3555,-0.3215 3.4729,-0.77856 0.069,0.0762 0.076,-0.069 0.1453,0.007 0.9736,-0.46277 1.884,-1.14851 2.7254,-1.91045 0.1524,-0.13804 0.4516,-0.27026 0.604,-0.40829 0.7725,-0.83814 1.4054,-1.83023 1.8241,-2.90579 0.1525,-0.13804 0.2287,-0.20706 0.315,-0.42118 z"
     id="path2808"
     style="stroke-width:1;fill:#550000" />
</svg>
