<?xml version="1.0" encoding="UTF-8" standalone="no"?>
<svg
   width="1200pt"
   height="1200pt"
   version="1.1"
   viewBox="0 0 1200 1200"
   id="svg2235"
   sodipodi:docname="disponible_supplementaire.svg"
   inkscape:version="1.2.2 (b0a8486541, 2022-12-01)"
   xmlns:inkscape="http://www.inkscape.org/namespaces/inkscape"
   xmlns:sodipodi="http://sodipodi.sourceforge.net/DTD/sodipodi-0.dtd"
   xmlns="http://www.w3.org/2000/svg"
   xmlns:svg="http://www.w3.org/2000/svg">
  <defs
     id="defs2239" />
  <sodipodi:namedview
     id="namedview2237"
     pagecolor="#ffffff"
     bordercolor="#666666"
     borderopacity="1.0"
     inkscape:showpageshadow="2"
     inkscape:pageopacity="0.0"
     inkscape:pagecheckerboard="0"
     inkscape:deskcolor="#d1d1d1"
     inkscape:document-units="pt"
     showgrid="false"
     inkscape:zoom="0.4646271"
     inkscape:cx="389.55972"
     inkscape:cy="814.63178"
     inkscape:window-width="1920"
     inkscape:window-height="1016"
     inkscape:window-x="0"
     inkscape:window-y="27"
     inkscape:window-maximized="1"
     inkscape:current-layer="svg2235" />
  <path
     d="M 1046.6443,623.76841 H 692.64984 c -6.48941,0 -11.79982,5.3104 -11.79982,11.79981 v 448.39298 c 0,6.4894 5.31041,11.7998 11.79982,11.7998 h 353.99446 c 6.4894,0 11.7998,-5.3104 11.7998,-11.7998 V 635.56822 c 0,-6.48941 -5.3104,-11.79981 -11.7998,-11.79981 z m -306.7952,64.89898 c 0,-3.53955 2.36036,-5.89991 5.89991,-5.89991 h 94.39852 c 3.53955,0 5.89991,2.36036 5.89991,5.89991 v 94.39852 c 0,3.53955 -2.36036,5.89991 -5.89991,5.89991 h -94.39852 c -3.53955,0 -5.89991,-2.36036 -5.89991,-5.89991 z M 863.74716,1036.7619 H 745.74901 c -3.53955,0 -5.89991,-2.3603 -5.89991,-5.8999 0,-3.5395 2.36036,-5.8999 5.89991,-5.8999 h 117.99815 c 3.53955,0 5.89991,2.3604 5.89991,5.8999 0,3.5396 -2.36036,5.8999 -5.89991,5.8999 z m 0,-23.5996 H 745.74901 c -3.53955,0 -5.89991,-2.3604 -5.89991,-5.8999 0,-3.5396 2.36036,-5.8999 5.89991,-5.8999 h 117.99815 c 3.53955,0 5.89991,2.3603 5.89991,5.8999 0,3.5395 -2.36036,5.8999 -5.89991,5.8999 z m 0,-23.59963 H 745.74901 c -3.53955,0 -5.89991,-2.36035 -5.89991,-5.8999 0,-3.53955 2.36036,-5.89991 5.89991,-5.89991 h 117.99815 c 3.53955,0 5.89991,2.36036 5.89991,5.89991 0,3.53955 -2.36036,5.8999 -5.89991,5.8999 z m 0,-23.59963 H 745.74901 c -3.53955,0 -5.89991,-2.36035 -5.89991,-5.8999 0,-3.53955 2.36036,-5.89991 5.89991,-5.89991 h 117.99815 c 3.53955,0 5.89991,2.36036 5.89991,5.89991 0,3.53955 -2.36036,5.8999 -5.89991,5.8999 z m 0,-23.59963 h -94.39852 c -3.53955,0 -5.89991,-2.36035 -5.89991,-5.8999 0,-3.53956 2.36036,-5.89991 5.89991,-5.89991 h 94.39852 c 3.53955,0 5.89991,2.36035 5.89991,5.89991 0,3.53955 -2.36036,5.8999 -5.89991,5.8999 z m 135.6979,88.49859 c 0,3.5396 -2.36036,5.8999 -5.89991,5.8999 h -94.39854 c -3.53956,0 -5.89991,-2.3603 -5.89991,-5.8999 v -94.39849 c 0,-3.53956 2.36035,-5.89991 5.89991,-5.89991 h 94.39854 c 3.53955,0 5.89991,2.36035 5.89991,5.89991 z M 993.54515,889.26425 H 745.74901 c -3.53955,0 -5.89991,-2.36036 -5.89991,-5.89991 0,-3.53955 2.36036,-5.89991 5.89991,-5.89991 h 247.79614 c 3.53955,0 5.89991,2.36036 5.89991,5.89991 0,3.53955 -2.36036,5.89991 -5.89991,5.89991 z m 0,-23.59963 H 745.74901 c -3.53955,0 -5.89991,-2.36036 -5.89991,-5.89991 0,-3.53955 2.36036,-5.89991 5.89991,-5.89991 h 247.79614 c 3.53955,0 5.89991,2.36036 5.89991,5.89991 0,3.53955 -2.36036,5.89991 -5.89991,5.89991 z m 0,-23.59963 H 769.34864 c -3.53955,0 -5.89991,-2.36036 -5.89991,-5.89991 0,-3.53955 2.36036,-5.89991 5.89991,-5.89991 h 224.19651 c 3.53955,0 5.89991,2.36036 5.89991,5.89991 0,3.53955 -2.36036,5.89991 -5.89991,5.89991 z m 0,-53.09917 H 875.54698 c -3.53956,0 -5.89991,-2.36036 -5.89991,-5.89991 0,-3.53955 2.36035,-5.89991 5.89991,-5.89991 h 117.99817 c 3.53955,0 5.89991,2.36036 5.89991,5.89991 0,3.53955 -2.36036,5.89991 -5.89991,5.89991 z m 0,-23.59963 H 875.54698 c -3.53956,0 -5.89991,-2.36036 -5.89991,-5.89991 0,-3.53955 2.36035,-5.89991 5.89991,-5.89991 h 117.99817 c 3.53955,0 5.89991,2.36036 5.89991,5.89991 0,3.53955 -2.36036,5.89991 -5.89991,5.89991 z m 0,-23.59963 H 875.54698 c -3.53956,0 -5.89991,-2.36036 -5.89991,-5.89991 0,-3.53955 2.36035,-5.89991 5.89991,-5.89991 h 117.99817 c 3.53955,0 5.89991,2.36036 5.89991,5.89991 0,3.53955 -2.36036,5.89991 -5.89991,5.89991 z m 0,-23.59963 H 875.54698 c -3.53956,0 -5.89991,-2.36036 -5.89991,-5.89991 0,-3.53955 2.36035,-5.89991 5.89991,-5.89991 h 117.99817 c 3.53955,0 5.89991,2.36036 5.89991,5.89991 0,3.53955 -2.36036,5.89991 -5.89991,5.89991 z m 0,-23.59963 h -94.39854 c -3.53956,0 -5.89991,-2.36036 -5.89991,-5.89991 0,-3.53955 2.36035,-5.89991 5.89991,-5.89991 h 94.39854 c 3.53955,0 5.89991,2.36036 5.89991,5.89991 0,3.53955 -2.36036,5.89991 -5.89991,5.89991 z"
     id="path2528"
     style="stroke-width:1;fill:#784421" />
  <rect
     style="fill:#ffffff;stroke:#ffd5d5;stroke-width:0.9"
     id="rect2732"
     width="529.74854"
     height="335.50699"
     x="251.31635"
     y="473.16788" />
  <path
     d="M 775.76814,248.90587 652.15997,125.2977 c -3.53225,-3.53225 -7.94697,-5.2969 -12.36155,-5.2969 H 233.65731 c -9.71133,0 -17.65831,7.94698 -17.65831,17.65831 v 671.01575 c 0,9.71133 7.94698,17.65831 17.65831,17.65831 h 529.74927 c 9.71134,0 17.65831,-7.94698 17.65831,-17.65831 V 261.26727 c 0,-4.41457 -1.76465,-8.82915 -5.2969,-12.36155 z m -118.31068,-68.86594 63.56845,63.56845 H 657.45746 Z M 251.31635,791.01743 V 155.3183 h 370.8245 v 105.94986 c 0,9.71133 7.94697,17.65831 17.6583,17.65831 h 105.94986 v 512.09096 z m 61.80409,-335.50787 h 141.26647 c 5.2969,0 8.82915,-3.53225 8.82915,-8.82916 V 217.12238 c 0,-5.2969 -3.53225,-8.82915 -8.82915,-8.82915 H 313.12044 c -5.29691,0 -8.82916,3.53225 -8.82916,8.82915 V 446.6804 c 0,5.29691 3.53225,8.82916 8.82916,8.82916 z m 8.82915,-229.55802 H 445.55775 V 437.85125 H 321.94959 Z m 211.89971,8.82915 c 0,-4.41457 4.41458,-8.82915 8.82915,-8.82915 h 61.80409 v 17.65831 h -61.80409 c -4.41457,0 -8.82915,-4.41458 -8.82915,-8.82916 z m -35.31662,35.31662 c 0,-4.41458 4.41458,-8.82915 8.82916,-8.82915 h 97.1207 v 17.65831 h -97.1207 c -4.41458,0 -8.82916,-4.41458 -8.82916,-8.82916 z m 194.2414,35.31662 c 0,5.2969 -3.53225,8.82915 -8.82915,8.82915 h -35.31662 c -5.2969,0 -8.82916,-3.53225 -8.82916,-8.82915 0,-5.29691 3.53226,-8.82916 8.82916,-8.82916 h 35.31662 c 5.2969,0 8.82915,3.53225 8.82915,8.82916 z m -194.2414,0 c 0,-5.29691 3.53225,-8.82916 8.82916,-8.82916 h 105.94985 c 5.29691,0 8.82916,3.53225 8.82916,8.82916 0,5.2969 -3.53225,8.82915 -8.82916,8.82915 H 507.36184 c -5.29691,0 -8.82916,-3.53225 -8.82916,-8.82915 z m 194.2414,35.31662 c 0,5.2969 -3.53225,8.82915 -8.82915,8.82915 H 577.99507 c -5.2969,0 -8.82915,-3.53225 -8.82915,-8.82915 0,-5.29691 3.53225,-8.82916 8.82915,-8.82916 h 105.94986 c 5.2969,0 8.82915,3.53225 8.82915,8.82916 z m -194.2414,0 c 0,-5.29691 3.53225,-8.82916 8.82916,-8.82916 h 35.31661 c 5.29691,0 8.82916,3.53225 8.82916,8.82916 0,5.2969 -3.53225,8.82915 -8.82916,8.82915 h -35.31661 c -5.29691,0 -8.82916,-3.53225 -8.82916,-8.82915 z m 194.2414,35.31662 c 0,5.2969 -3.53225,8.82915 -8.82915,8.82915 H 507.36184 c -5.29691,0 -8.82916,-3.53225 -8.82916,-8.82915 0,-5.29691 3.53225,-8.82916 8.82916,-8.82916 h 176.58309 c 5.2969,0 8.82915,3.53225 8.82915,8.82916 z m 0,35.31661 c 0,5.29691 -3.53225,8.82916 -8.82915,8.82916 h -35.31662 c -5.2969,0 -8.82916,-3.53225 -8.82916,-8.82916 0,-5.2969 3.53226,-8.82915 8.82916,-8.82915 h 35.31662 c 5.2969,0 8.82915,3.53225 8.82915,8.82915 z m -194.2414,0 c 0,-5.2969 3.53225,-8.82915 8.82916,-8.82915 h 105.94985 c 5.29691,0 8.82916,3.53225 8.82916,8.82915 0,5.29691 -3.53225,8.82916 -8.82916,8.82916 H 507.36184 c -5.29691,0 -8.82916,-3.53225 -8.82916,-8.82916 z m 194.2414,35.31662 c 0,5.29691 -3.53225,8.82916 -8.82915,8.82916 H 507.36184 c -5.29691,0 -8.82916,-3.53225 -8.82916,-8.82916 0,-5.2969 3.53225,-8.82915 8.82916,-8.82915 h 176.58309 c 5.2969,0 8.82915,3.53225 8.82915,8.82915 z m 0,70.63324 c 0,5.2969 -3.53225,8.82915 -8.82915,8.82915 H 348.43705 c -5.2969,0 -8.82915,-3.53225 -8.82915,-8.82915 0,-5.29691 3.53225,-8.82916 8.82915,-8.82916 h 335.50788 c 5.2969,0 8.82915,3.53225 8.82915,8.82916 z m 0,35.31662 c 0,5.2969 -3.53225,8.82915 -8.82915,8.82915 h -70.63324 c -5.2969,0 -8.82915,-3.53225 -8.82915,-8.82915 0,-5.29691 3.53225,-8.82916 8.82915,-8.82916 h 70.63324 c 5.2969,0 8.82915,3.53225 8.82915,8.82916 z m -388.4828,0 c 0,-5.29691 3.53225,-8.82916 8.82916,-8.82916 h 264.87463 c 5.29691,0 8.82916,3.53225 8.82916,8.82916 0,5.2969 -3.53225,8.82915 -8.82916,8.82915 H 313.12044 c -5.29691,0 -8.82916,-3.53225 -8.82916,-8.82915 z m 388.4828,35.31661 c 0,5.29691 -3.53225,8.82916 -8.82915,8.82916 H 472.04522 c -5.29691,0 -8.82916,-3.53225 -8.82916,-8.82916 0,-5.2969 3.53225,-8.82915 8.82916,-8.82915 h 211.89971 c 5.2969,0 8.82915,3.53225 8.82915,8.82915 z m -388.4828,0 c 0,-5.2969 3.53225,-8.82915 8.82916,-8.82915 H 436.7286 c 5.2969,0 8.82915,3.53225 8.82915,8.82915 0,5.29691 -3.53225,8.82916 -8.82915,8.82916 H 313.12044 c -5.29691,0 -8.82916,-3.53225 -8.82916,-8.82916 z m 388.4828,35.31662 c 0,5.29691 -3.53225,8.82916 -8.82915,8.82916 h -70.63324 c -5.2969,0 -8.82915,-3.53225 -8.82915,-8.82916 0,-5.2969 3.53225,-8.82915 8.82915,-8.82915 h 70.63324 c 5.2969,0 8.82915,3.53225 8.82915,8.82915 z m -388.4828,0 c 0,-5.2969 3.53225,-8.82915 8.82916,-8.82915 h 264.87463 c 5.29691,0 8.82916,3.53225 8.82916,8.82915 0,5.29691 -3.53225,8.82916 -8.82916,8.82916 H 313.12044 c -5.29691,0 -8.82916,-3.53225 -8.82916,-8.82916 z m 388.4828,35.31662 c 0,5.29691 -3.53225,8.82916 -8.82915,8.82916 H 472.04522 c -5.29691,0 -8.82916,-3.53225 -8.82916,-8.82916 0,-5.2969 3.53225,-8.82915 8.82916,-8.82915 h 211.89971 c 5.2969,0 8.82915,3.53225 8.82915,8.82915 z m -388.4828,0 c 0,-5.2969 3.53225,-8.82915 8.82916,-8.82915 H 436.7286 c 5.2969,0 8.82915,3.53225 8.82915,8.82915 0,5.29691 -3.53225,8.82916 -8.82915,8.82916 H 313.12044 c -5.29691,0 -8.82916,-3.53225 -8.82916,-8.82916 z m 388.4828,35.31662 c 0,5.2969 -3.53225,8.82915 -8.82915,8.82915 H 542.67845 c -5.2969,0 -8.82915,-3.53225 -8.82915,-8.82915 0,-5.2969 3.53225,-8.82916 8.82915,-8.82916 h 141.26648 c 5.2969,0 8.82915,3.53226 8.82915,8.82916 z m -388.4828,0 c 0,-5.2969 3.53225,-8.82916 8.82916,-8.82916 h 194.2414 c 5.2969,0 8.82915,3.53226 8.82915,8.82916 0,5.2969 -3.53225,8.82915 -8.82915,8.82915 h -194.2414 c -5.29691,0 -8.82916,-3.53225 -8.82916,-8.82915 z m 388.4828,35.31662 c 0,5.2969 -3.53225,8.82915 -8.82915,8.82915 H 313.12044 c -5.29691,0 -8.82916,-3.53225 -8.82916,-8.82915 0,-5.29691 3.53225,-8.82916 8.82916,-8.82916 h 370.82449 c 5.2969,0 8.82915,3.53225 8.82915,8.82916 z"
     id="path2233"
     style="fill:#aa8800;stroke-width:0.999997" />
</svg>
