<?xml version="1.0" encoding="UTF-8" standalone="no"?>
<svg
   width="1200pt"
   height="1200pt"
   version="1.1"
   viewBox="0 0 1200 1200"
   id="svg2235"
   sodipodi:docname="noun-article-1162122.svg"
   inkscape:version="1.2.2 (b0a8486541, 2022-12-01)"
   xmlns:inkscape="http://www.inkscape.org/namespaces/inkscape"
   xmlns:sodipodi="http://sodipodi.sourceforge.net/DTD/sodipodi-0.dtd"
   xmlns="http://www.w3.org/2000/svg"
   xmlns:svg="http://www.w3.org/2000/svg">
  <defs
     id="defs2239" />
  <sodipodi:namedview
     id="namedview2237"
     pagecolor="#ffffff"
     bordercolor="#666666"
     borderopacity="1.0"
     inkscape:showpageshadow="2"
     inkscape:pageopacity="0.0"
     inkscape:pagecheckerboard="0"
     inkscape:deskcolor="#d1d1d1"
     inkscape:document-units="pt"
     showgrid="false"
     inkscape:zoom="0.53125"
     inkscape:cx="751.05882"
     inkscape:cy="800.94118"
     inkscape:window-width="1920"
     inkscape:window-height="1016"
     inkscape:window-x="0"
     inkscape:window-y="27"
     inkscape:window-maximized="1"
     inkscape:current-layer="svg2235" />
  <path
     d="m976.8 295.2-168-168c-4.8008-4.8008-10.801-7.1992-16.801-7.1992h-552c-13.199 0-24 10.801-24 24v912c0 13.199 10.801 24 24 24h720c13.199 0 24-10.801 24-24v-744c0-6-2.3984-12-7.1992-16.801zm-160.8-93.598 86.398 86.398h-86.398zm-552 830.4v-864h504v144c0 13.199 10.801 24 24 24h144v696zm84-456h192c7.1992 0 12-4.8008 12-12v-312c0-7.1992-4.8008-12-12-12h-192c-7.1992 0-12 4.8008-12 12v312c0 7.1992 4.8008 12 12 12zm12-312h168v288h-168zm288 12c0-6 6-12 12-12h84v24h-84c-6 0-12-6-12-12zm-48 48c0-6 6-12 12-12h132v24h-132c-6 0-12-6-12-12zm264 48c0 7.1992-4.8008 12-12 12h-48c-7.1992 0-12-4.8008-12-12s4.8008-12 12-12h48c7.1992 0 12 4.8008 12 12zm-264 0c0-7.1992 4.8008-12 12-12h144c7.1992 0 12 4.8008 12 12s-4.8008 12-12 12h-144c-7.1992 0-12-4.8008-12-12zm264 48c0 7.1992-4.8008 12-12 12h-144c-7.1992 0-12-4.8008-12-12s4.8008-12 12-12h144c7.1992 0 12 4.8008 12 12zm-264 0c0-7.1992 4.8008-12 12-12h48c7.1992 0 12 4.8008 12 12s-4.8008 12-12 12h-48c-7.1992 0-12-4.8008-12-12zm264 48c0 7.1992-4.8008 12-12 12h-240c-7.1992 0-12-4.8008-12-12s4.8008-12 12-12h240c7.1992 0 12 4.8008 12 12zm0 48c0 7.1992-4.8008 12-12 12h-48c-7.1992 0-12-4.8008-12-12s4.8008-12 12-12h48c7.1992 0 12 4.8008 12 12zm-264 0c0-7.1992 4.8008-12 12-12h144c7.1992 0 12 4.8008 12 12s-4.8008 12-12 12h-144c-7.1992 0-12-4.8008-12-12zm264 48c0 7.1992-4.8008 12-12 12h-240c-7.1992 0-12-4.8008-12-12s4.8008-12 12-12h240c7.1992 0 12 4.8008 12 12zm0 96c0 7.1992-4.8008 12-12 12h-456c-7.1992 0-12-4.8008-12-12s4.8008-12 12-12h456c7.1992 0 12 4.8008 12 12zm0 48c0 7.1992-4.8008 12-12 12h-96c-7.1992 0-12-4.8008-12-12s4.8008-12 12-12h96c7.1992 0 12 4.8008 12 12zm-528 0c0-7.1992 4.8008-12 12-12h360c7.1992 0 12 4.8008 12 12s-4.8008 12-12 12h-360c-7.1992 0-12-4.8008-12-12zm528 48c0 7.1992-4.8008 12-12 12h-288c-7.1992 0-12-4.8008-12-12s4.8008-12 12-12h288c7.1992 0 12 4.8008 12 12zm-528 0c0-7.1992 4.8008-12 12-12h168c7.1992 0 12 4.8008 12 12s-4.8008 12-12 12h-168c-7.1992 0-12-4.8008-12-12zm528 48c0 7.1992-4.8008 12-12 12h-96c-7.1992 0-12-4.8008-12-12s4.8008-12 12-12h96c7.1992 0 12 4.8008 12 12zm-528 0c0-7.1992 4.8008-12 12-12h360c7.1992 0 12 4.8008 12 12s-4.8008 12-12 12h-360c-7.1992 0-12-4.8008-12-12zm528 48c0 7.1992-4.8008 12-12 12h-288c-7.1992 0-12-4.8008-12-12s4.8008-12 12-12h288c7.1992 0 12 4.8008 12 12zm-528 0c0-7.1992 4.8008-12 12-12h168c7.1992 0 12 4.8008 12 12s-4.8008 12-12 12h-168c-7.1992 0-12-4.8008-12-12zm528 48c0 7.1992-4.8008 12-12 12h-192c-7.1992 0-12-4.8008-12-12s4.8008-12 12-12h192c7.1992 0 12 4.8008 12 12zm-528 0c0-7.1992 4.8008-12 12-12h264c7.1992 0 12 4.8008 12 12s-4.8008 12-12 12h-264c-7.1992 0-12-4.8008-12-12zm528 48c0 7.1992-4.8008 12-12 12h-504c-7.1992 0-12-4.8008-12-12s4.8008-12 12-12h504c7.1992 0 12 4.8008 12 12z"
     id="path2233"
     style="fill:#008000" />
</svg>
