<?xml version="1.0" encoding="UTF-8"?>
<svg width="1200pt" height="1200pt" version="1.1" viewBox="0 0 1200 1200" xmlns="http://www.w3.org/2000/svg">
 <path d="m562.5 821.81c-21.863-7.7266-37.5-28.574-37.5-53.062 0-31.051 25.199-56.25 56.25-56.25s56.25 25.199 56.25 56.25c0 24.488-15.637 45.336-37.5 53.062v97.273c0 9.8633-8.3984 18.414-18.75 18.414-10.051 0-18.75-8.25-18.75-18.414zm-262.5-296.81c-62.176 0.1875-112.5 50.25-112.5 112.84v374.29c0 62.324 50.477 112.84 112.84 112.84h561.82c62.324 0 112.84-50.137 112.84-112.84v-374.29c0-62.211-50.289-112.69-112.5-112.84v-131.29c0-155.32-126.23-281.21-281.25-281.21-155.32 0-281.25 125.89-281.25 281.21v131.29zm112.5 0v-131.21c0-93.449 75.562-168.79 168.75-168.79 93 0 168.75 75.562 168.75 168.79v131.21z"/>
</svg>
