<?xml version="1.0" encoding="UTF-8" standalone="no"?>
<svg
   width="1200pt"
   height="1200pt"
   version="1.1"
   viewBox="0 0 1200 1200"
   id="svg4"
   sodipodi:docname="fleche_gauche.svg"
   inkscape:version="1.2.2 (b0a8486541, 2022-12-01)"
   xmlns:inkscape="http://www.inkscape.org/namespaces/inkscape"
   xmlns:sodipodi="http://sodipodi.sourceforge.net/DTD/sodipodi-0.dtd"
   xmlns="http://www.w3.org/2000/svg"
   xmlns:svg="http://www.w3.org/2000/svg">
  <defs
     id="defs8" />
  <sodipodi:namedview
     id="namedview6"
     pagecolor="#ffffff"
     bordercolor="#666666"
     borderopacity="1.0"
     inkscape:showpageshadow="2"
     inkscape:pageopacity="0.0"
     inkscape:pagecheckerboard="0"
     inkscape:deskcolor="#d1d1d1"
     inkscape:document-units="pt"
     showgrid="false"
     inkscape:zoom="0.53125"
     inkscape:cx="800"
     inkscape:cy="800"
     inkscape:window-width="1674"
     inkscape:window-height="773"
     inkscape:window-x="1970"
     inkscape:window-y="89"
     inkscape:window-maximized="0"
     inkscape:current-layer="svg4" />
  <path
     d="M 69.165774,529.48 C 259.10577,446.585 444.76577,354.57 625.98577,254.07 c 11.809,-6.5508 29.062,1.5234 28.223,16.199 -4.5586,79.934 -15.215,158.96 -31.703,237.19 164.93,-27.098 331.79,-42.238 499.00003,-42.527 12.48,-0.0234 20.676,11.879 17.953,23.566 -15.348,65.773 -30.684,131.55 -46.055,197.32 0.9726,0.15625 1.957,0.26562 2.9414,0.42188 11.039,1.7656 8.2422,19.43 -2.6055,19.273 -118.05003,-1.7656 -235.91003,-10.836 -353.96003,-13.535 -28.883,-0.66016 -57.781,-1.1055 -86.664,-1.4531 -24.973,-0.30078 -36.086,-7.0312 -48.023,24.562 -4.2227,11.172 -3.5156,26.473 -5.0625,38.219 -7.7773,58.609 -15.504,117.21 -23.34,175.8 -1.5859,11.832 -15.145,25.5 -27.684,15.887 -163.71,-125.58 -324.96,-254.29 -483.599996,-386.22 -8.5703,-7.1172 -6.7344,-24.711 3.7656,-29.293 z M 544.42577,895.27 c 8.2695,-61.668 16.188,-123.45 25.57,-184.93 9.4688,-62.004 43.465,-55.945 98.855,-54.73 129.7,2.8203 260.94,7.3906 389.72003,25.188 0.07,-0.53906 0.07,-1.0547 0.1914,-1.6211 13.117,-58.848 26.27,-117.68 39.406,-176.53 -165.97002,2.9414 -330.90002,17.125 -494.63002,45.301 -14.004,2.4102 -26.195,-8.1484 -22.824,-22.824 16.836,-73.223 28.043,-147.19 33.793,-221.98 -163.3,89.734 -330.46,172.11 -500.98,247.22 141.58,117.52 285.21,232.52 430.89,344.91 z"
     id="path2" />
</svg>
