<?xml version="1.0" encoding="UTF-8" standalone="no"?>
<svg
   width="1200pt"
   height="1200pt"
   version="1.1"
   viewBox="0 0 1200 1200"
   id="svg4"
   sodipodi:docname="fleche_gauche.svg"
   inkscape:version="1.2.2 (b0a8486541, 2022-12-01)"
   xmlns:inkscape="http://www.inkscape.org/namespaces/inkscape"
   xmlns:sodipodi="http://sodipodi.sourceforge.net/DTD/sodipodi-0.dtd"
   xmlns="http://www.w3.org/2000/svg"
   xmlns:svg="http://www.w3.org/2000/svg">
  <defs
     id="defs8" />
  <sodipodi:namedview
     id="namedview6"
     pagecolor="#ffffff"
     bordercolor="#666666"
     borderopacity="1.0"
     inkscape:showpageshadow="2"
     inkscape:pageopacity="0.0"
     inkscape:pagecheckerboard="0"
     inkscape:deskcolor="#d1d1d1"
     inkscape:document-units="pt"
     showgrid="false"
     inkscape:zoom="0.53125"
     inkscape:cx="800"
     inkscape:cy="800"
     inkscape:window-width="1674"
     inkscape:window-height="773"
     inkscape:window-x="26"
     inkscape:window-y="23"
     inkscape:window-maximized="0"
     inkscape:current-layer="svg4" />
  <path
     d="m 529.45856,69.187213 c -82.895,189.939997 -174.91,375.599997 -275.41,556.819997 -6.5508,11.809 1.5234,29.062 16.199,28.223 79.934,-4.5586 158.96,-15.215 237.19,-31.703 -27.098,164.93 -42.238,331.79 -42.527,498.99999 -0.0234,12.48 11.879,20.676 23.566,17.953 65.773,-15.348 131.55,-30.684 197.32,-46.055 0.15625,0.9726 0.26562,1.957 0.42188,2.9414 1.7656,11.039 19.43,8.2422 19.273,-2.6055 -1.7656,-118.04999 -10.836,-235.90999 -13.535,-353.95999 -0.66016,-28.883 -1.1055,-57.781 -1.4531,-86.664 -0.30078,-24.973 -7.0312,-36.086 24.562,-48.023 11.172,-4.2227 26.473,-3.5156 38.219,-5.0625 58.609,-7.7773 117.21,-15.504 175.8,-23.34 11.832,-1.5859 25.5,-15.145 15.887,-27.684 -125.58,-163.71 -254.29,-324.96 -386.22,-483.599997 -7.1172,-8.5703 -24.711,-6.7344 -29.293,3.7656 z m 365.79,475.259997 c -61.668,8.2695 -123.45,16.188 -184.93,25.57 -62.004,9.4688 -55.945,43.465 -54.73,98.855 2.8203,129.7 7.3906,260.94 25.188,389.71999 -0.53906,0.07 -1.0547,0.07 -1.6211,0.1914 -58.848,13.117 -117.68,26.27 -176.53,39.406 2.9414,-165.96998 17.125,-330.89998 45.301,-494.62998 2.4102,-14.004 -8.1484,-26.195 -22.824,-22.824 -73.223,16.836 -147.19,28.043 -221.98,33.793 89.734,-163.3 172.11,-330.46 247.22,-500.98 117.52,141.58 232.52,285.21 344.91,430.89 z"
     id="path2" />
</svg>
