<?xml version="1.0" encoding="UTF-8" standalone="no"?>
<svg
   width="1200pt"
   height="1200pt"
   version="1.1"
   viewBox="0 0 1200 1200"
   id="svg16"
   sodipodi:docname="noun-format-3644407.svg"
   inkscape:version="1.2.2 (b0a8486541, 2022-12-01)"
   xmlns:inkscape="http://www.inkscape.org/namespaces/inkscape"
   xmlns:sodipodi="http://sodipodi.sourceforge.net/DTD/sodipodi-0.dtd"
   xmlns="http://www.w3.org/2000/svg"
   xmlns:svg="http://www.w3.org/2000/svg">
  <defs
     id="defs20" />
  <sodipodi:namedview
     id="namedview18"
     pagecolor="#ffffff"
     bordercolor="#666666"
     borderopacity="1.0"
     inkscape:showpageshadow="2"
     inkscape:pageopacity="0.0"
     inkscape:pagecheckerboard="0"
     inkscape:deskcolor="#d1d1d1"
     inkscape:document-units="pt"
     showgrid="false"
     inkscape:zoom="0.27273416"
     inkscape:cx="1041.307"
     inkscape:cy="997.30813"
     inkscape:window-width="1674"
     inkscape:window-height="773"
     inkscape:window-x="1970"
     inkscape:window-y="89"
     inkscape:window-maximized="0"
     inkscape:current-layer="svg16" />
  <g
     id="g14"
     style="fill:#e6e6e6">
    <path
       d="m1125 656.25h-450c-10.352 0-18.75 8.3984-18.75 18.75v450c0 10.352 8.3984 18.75 18.75 18.75h450c10.352 0 18.75-8.3984 18.75-18.75v-450c0-10.352-8.3984-18.75-18.75-18.75zm-337.5 431.25v-225l225 112.5zm300-300h-375v-75h375z"
       id="path2"
       style="fill:#e6e6e6" />
    <path
       d="m815.62 393.75c-11.324 0-21.844 5.625-28.125 15.055l-39.977 59.945h102.28l12.711-31.781-18.766-28.164c-6.2812-9.4297-16.801-15.055-28.125-15.055z"
       id="path4"
       style="fill:#e6e6e6" />
    <path
       d="m1125 56.25h-450c-10.352 0-18.75 8.3984-18.75 18.75v450c0 10.352 8.3984 18.75 18.75 18.75h450c10.352 0 18.75-8.3984 18.75-18.75v-450c0-10.352-8.3984-18.75-18.75-18.75zm-412.5 56.25h375v75h-375zm37.5 150c20.719 0 37.5 16.781 37.5 37.5s-16.781 37.5-37.5 37.5-37.5-16.781-37.5-37.5 16.781-37.5 37.5-37.5zm-72.523 243.75 78.824-118.26c13.254-19.875 35.438-31.742 59.324-31.742s46.07 11.867 59.324 31.742l4.4609 6.6953 26.738-66.824c11.344-28.312 38.363-46.613 68.852-46.613s57.508 18.301 68.852 46.594l71.344 178.41z"
       id="path6"
       style="fill:#e6e6e6" />
    <path
       d="m975 318.75c-15.074 0-28.426 9.0391-34.012 23.043l-50.793 126.96h169.63l-50.793-126.96c-5.6094-14.004-18.961-23.043-34.035-23.043z"
       id="path8"
       style="fill:#e6e6e6" />
    <path
       d="m525 656.25h-450c-10.352 0-18.75 8.3984-18.75 18.75v450c0 10.352 8.3984 18.75 18.75 18.75h450c10.352 0 18.75-8.3984 18.75-18.75v-450c0-10.352-8.3984-18.75-18.75-18.75zm-412.5 56.25h375v75h-375zm-18.75 131.25h75v37.5h-75zm0 150h150v37.5h-150zm412.5 112.5h-412.5v-37.5h412.5zm0-75h-225v-37.5h225zm0-75h-412.5v-37.5h412.5zm0-75h-300v-37.5h300z"
       id="path10"
       style="fill:#e6e6e6" />
    <path
       d="m525 56.25h-450c-10.352 0-18.75 8.3984-18.75 18.75v450c0 10.352 8.3984 18.75 18.75 18.75h450c10.352 0 18.75-8.3984 18.75-18.75v-450c0-10.352-8.3984-18.75-18.75-18.75zm-168.75 225h-93.75c-10.352 0-18.75 8.3984-18.75 18.75v18.75h112.5v37.5h-112.5v93.75c0 31.012-25.238 56.25-56.25 56.25s-56.25-25.238-56.25-56.25 25.238-56.25 56.25-56.25c6.6016 0 12.863 1.3516 18.75 3.4492v-97.199c0-31.012 25.238-56.25 56.25-56.25h93.75zm131.25-93.75h-375v-75h375z"
       id="path12"
       style="fill:#e6e6e6" />
  </g>
</svg>
