<?xml version="1.0" encoding="UTF-8" standalone="no"?>
<svg
   width="1200pt"
   height="1200pt"
   version="1.1"
   viewBox="0 0 1200 1200"
   id="svg14"
   sodipodi:docname="liste.svg"
   inkscape:version="1.2.2 (b0a8486541, 2022-12-01)"
   xmlns:inkscape="http://www.inkscape.org/namespaces/inkscape"
   xmlns:sodipodi="http://sodipodi.sourceforge.net/DTD/sodipodi-0.dtd"
   xmlns="http://www.w3.org/2000/svg"
   xmlns:svg="http://www.w3.org/2000/svg">
  <defs
     id="defs18" />
  <sodipodi:namedview
     id="namedview16"
     pagecolor="#ffffff"
     bordercolor="#666666"
     borderopacity="1.0"
     inkscape:showpageshadow="2"
     inkscape:pageopacity="0.0"
     inkscape:pagecheckerboard="0"
     inkscape:deskcolor="#d1d1d1"
     inkscape:document-units="pt"
     showgrid="false"
     inkscape:zoom="0.53125"
     inkscape:cx="800"
     inkscape:cy="800"
     inkscape:window-width="1674"
     inkscape:window-height="773"
     inkscape:window-x="1970"
     inkscape:window-y="89"
     inkscape:window-maximized="0"
     inkscape:current-layer="svg14" />
  <g
     fill-rule="evenodd"
     id="g12"
     style="fill:#e6e6e6">
    <path
       d="m857.29 951.98c-9.3555-2.5117-9.543-7.0117-4.5-13.5-24.301 8.6055-56.156 19.93-67.5-4.5-50.867 22.164-107.57-20.398-171.02 18-8.0078-3.3008-0.65625-8.1758 0-13.5-93.711 9.9766-285.24-3.75-378 4.5 0.20703-0.019531-22.273 3.9922-13.5 0-25.125 11.418-19.051 11.438-27 26.98v22.5c80.477 33.637 166.69 1.9688 252 0 167.81-3.8828 366.86 13.48 544.52-4.4805v-22.5c-38.625-16.391-89.891-17.383-135-13.5z"
       id="path2"
       style="fill:#e6e6e6" />
    <path
       d="m848.27 749.49c-16.52 22.707-36.039-8.832-40.5 9-13.949 13.426-11.832-14.605-26.98-13.52-15.375-3.375-5.7188 18.301-22.5 13.52 15.617-17.156-22.426-12.113-22.5 4.5-26.98-24.562-88.312-21.488-121.5 4.4805-8.0078-3.3008-0.65625-8.1953 0-13.5-104.44 5.9805-266.38-7.4258-364.5 0-25.855 1.9492-48.055 4.5938-54 31.5v18c53.363 26.773 210.52 10.555 274.5 9 136.8-3.3359 254.38-4.5 405-4.5 36.32 0 89.793 14.645 117-18-18.902-52.441-116.72-7.2148-144.02-40.48z"
       id="path4"
       style="fill:#e6e6e6" />
    <path
       d="m821.29 573.99c-4.125-0.019532-32.664-11.383-4.5-9-9.375-12.02-23.25 1.8945-13.5 13.5-10.238-3.2812-13.461-13.539-18-22.5-26.773 26.043-27.957-9.918-49.52 18-13.105-13.555-64.648-18.77-94.5-13.5-9.1875 1.6133-28.18 3.0391-27 18-8.0078-3.3008-0.65625-8.1953 0-13.5-62.887-7.4258-121.55 4.9883-211.5 9-74.457 3.3203-190.29-28.93-207 22.5v13.5c4.0312 12.488 17.418 15.582 27 22.5 216.04-15.617 469.93-6.2422 769.52-17.98v-22.5c-42.734-22.426-129.94-17.832-171-18.02z"
       id="path6"
       style="fill:#e6e6e6" />
    <path
       d="m857.29 389.49c-9.3555-2.5117-9.543-7.0312-4.5-13.5-24.301 8.6055-56.156 19.93-67.5-4.5-50.867 22.145-107.57-20.398-171.02 18-8.0078-3.3008-0.65625-8.1953 0-13.5-93.711 9.9922-285.24-3.75-378 4.5 0.20703-0.019532-22.273 3.9766-13.5 0-25.125 11.418-19.051 11.438-27 27v22.5c64.5 33.711 167.14 1.9492 252 0 175.16-4.0508 368.81 13.668 544.52-4.5v-22.5c-38.625-16.406-89.891-17.398-135-13.5z"
       id="path8"
       style="fill:#e6e6e6" />
    <path
       d="m978.77 195.99v-4.5h-72c-177.62 17.793-370.29 13.5-585 13.5-37.219 0-88.742-13.781-117 18 5.832 35.867 47.625 20.852 67.5 22.5 39.168 3.2617 84.469 15.523 126 4.5 10.555 1.4258 10.086 13.93 18 18 44.699-28.086 102.84 18 175.5-18-2.3828 3.6172-4.6875 7.3125-4.5 13.5 159.07-13.5 303.62 6.2617 414-18-3.1484-13.855-3.1484-8.6445 0-22.5h4.5v-4.5c-6.6211-9.8789-9.6758-23.324-27-22.5z"
       id="path10"
       style="fill:#e6e6e6" />
  </g>
</svg>
