<?xml version="1.0" encoding="UTF-8" standalone="no"?>
<svg
   width="1200pt"
   height="1200pt"
   version="1.1"
   viewBox="0 0 1200 1200"
   id="svg4"
   sodipodi:docname="localisation.svg"
   inkscape:version="1.2.2 (b0a8486541, 2022-12-01)"
   xmlns:inkscape="http://www.inkscape.org/namespaces/inkscape"
   xmlns:sodipodi="http://sodipodi.sourceforge.net/DTD/sodipodi-0.dtd"
   xmlns="http://www.w3.org/2000/svg"
   xmlns:svg="http://www.w3.org/2000/svg">
  <defs
     id="defs8" />
  <sodipodi:namedview
     id="namedview6"
     pagecolor="#ffffff"
     bordercolor="#666666"
     borderopacity="1.0"
     inkscape:showpageshadow="2"
     inkscape:pageopacity="0.0"
     inkscape:pagecheckerboard="0"
     inkscape:deskcolor="#d1d1d1"
     inkscape:document-units="pt"
     showgrid="false"
     inkscape:zoom="0.32816267"
     inkscape:cx="560.69754"
     inkscape:cy="767.91184"
     inkscape:window-width="1674"
     inkscape:window-height="773"
     inkscape:window-x="1970"
     inkscape:window-y="89"
     inkscape:window-maximized="0"
     inkscape:current-layer="svg4" />
  <path
     d="m 614.2363,197.40883 c -94.30537,0 -187.00683,76.68519 -187.00683,172.545 h -160.9352 c -4.55583,0.95132 -8.54696,4.2438 -10.33809,8.53954 L 11.393124,953.61801 c -4.2363789,10.03329 7.127413,22.55559 17.532283,19.32303 133.526023,-42.14688 271.237823,-35.3393 390.646393,-17.52486 119.41998,17.81482 218.63031,47.17932 280.96022,47.17932 88.70976,0 158.81758,-22.50421 230.61683,-44.03619 C 1002.95,937.02924 1076.61,916.323 1175.2553,916.323 c 9.7361,0 17.2944,-11.91365 13.036,-20.66818 L 943.72823,378.02742 c -2.36344,-4.84579 -7.64017,-8.12324 -13.03601,-8.08614 H 801.22449 c 0,-95.85982 -92.70907,-172.545 -187.00683,-172.545 z m 0,129.40875 c 31.95074,0 57.5391,25.58076 57.5391,57.51627 0,31.93552 -25.58836,57.51627 -57.5391,57.51627 -31.95073,0 -57.5391,-25.58075 -57.5391,-57.51627 0,-31.93551 25.58837,-57.51627 57.5391,-57.51627 z m -336.25042,71.89058 h 151.4963 c 4.97954,37.44361 18.92214,75.9641 37.30851,115.02683 -93.84493,0.90672 -173.82927,36.23164 -260.27871,53.02038 z m 521.01407,0 h 122.72674 l 17.97826,38.64036 c -12.41157,5.19511 -33.25213,8.5618 -58.43904,9.88469 -29.12725,1.53102 -62.95016,1.83573 -96.20039,6.74099 6.52542,-18.52088 11.33392,-37.09352 13.93519,-55.26547 z m 153.74138,65.14959 120.92877,256.11198 c -8.7996,8.23474 -18.9073,16.80396 -26.0716,22.46045 C 973.42664,707.87856 929.30864,667.65523 891.15916,626.0582 875.65583,609.15017 860.24155,591.90042 844.40412,574.8358 l 56.64106,-100.19969 c 19.0776,-1.42697 37.13158,-3.73085 51.69806,-10.78406 z m -85.41061,12.58261 -43.6043,76.8336 c -17.78514,-17.82967 -36.80432,-35.31648 -58.89186,-51.2224 2.82425,-5.95311 5.51456,-12.05482 8.09356,-17.97084 28.76194,-5.26931 63.56661,-6.42135 94.40241,-7.64017 z m -115.08581,51.2224 c 46.69605,34.06835 77.97707,74.8111 117.3309,117.72475 5.84162,6.36941 12.13664,12.91709 18.43166,19.32303 l -89.90651,76.83359 c -21.04681,-54.2761 -54.38075,-103.57495 -88.10853,-137.49489 7.7294,-13.49683 15.48848,-27.03056 22.9285,-40.43834 6.71111,-12.09211 13.13246,-23.96923 19.33064,-35.95004 z m -272.87408,12.12922 c 4.07276,7.97465 8.28687,15.79328 12.59003,23.81322 11.31166,21.08485 23.37372,42.54834 35.51054,63.80443 -17.34658,51.71327 -33.8895,94.02378 -57.09388,130.30679 -66.18272,-11.33392 -106.10924,-31.17827 -150.14353,-46.27938 28.89703,-16.42496 58.25258,-30.74638 83.61834,-40.89116 6.3247,-2.3486 10.40506,-9.59492 9.11927,-16.21681 -1.27833,-6.62208 -7.77392,-11.82442 -14.51491,-11.63872 -38.95239,14.52976 -78.48317,34.93785 -109.23716,53.02037 -18.11201,-33.05806 -20.05173,-67.58684 -20.23058,-113.68167 73.54016,-14.34406 145.94444,-40.32608 210.39197,-42.24392 z m -239.15961,48.9773 c 0.25269,44.94945 2.99511,84.14727 24.27366,122.21303 -33.49567,21.86494 -64.07271,46.45823 -85.86344,72.34341 -11.2523,-5.47746 -22.80864,-10.7542 -35.51054,-13.92777 -6.90443,-1.72425 -14.15076,-2.70534 -21.57574,-2.69792 L 193.00907,598.2 c 15.85265,-2.49719 31.51884,-5.88633 47.20215,-9.43871 z m 455.39263,40.89115 c 37.39794,39.59738 74.28407,102.83103 89.00656,165.34929 -65.63285,39.80666 -141.03187,91.02144 -197.359,155.46516 -31.62348,-50.45754 -86.26489,-95.54017 -137.10676,-124.01291 46.20518,-45.98258 72.41761,-99.1818 96.20039,-165.80402 19.76253,34.77423 38.98092,69.20028 54.84118,103.34283 4.69719,10.2266 22.52705,9.62461 26.52445,-0.89185 17.19058,-43.72987 42.25915,-88.57658 67.87795,-133.45183 z m 213.53128,55.26547 c 30.59797,28.10744 67.94455,55.25786 117.77617,79.53151 -10.0037,26.83078 -9.1267,52.13565 -4.0431,74.14329 5.3585,23.2253 14.7898,43.32841 21.5757,62.00645 -26.5625,5.67819 -59.05547,12.93194 -78.66961,17.07166 -54.51393,-27.24555 -125.06696,-84.73328 -151.49629,-123.5658 -1.70195,-7.95239 -3.96868,-15.93446 -6.29501,-23.81322 z m -622.15745,46.27938 c 48.14585,13.3703 90.81976,37.44361 164.98588,52.12234 -10.12252,12.58261 -21.15145,24.51909 -34.16539,35.95004 -6.78551,6.23547 -5.04632,19.14419 3.14371,23.36611 46.04155,23.01031 102.675,64.58451 135.30878,108.28584 -40.20812,-8.04163 -84.01219,-16.63311 -132.16565,-23.81322 -71.50435,-10.66515 -150.25579,-17.26478 -231.51107,-11.68324 -7.74425,-25.08418 -8.19764,-71.94195 2.69792,-106.94069 19.79868,-25.81097 53.85372,-53.01276 91.70448,-77.28642 z m 800.18582,17.52487 66.0857,139.73808 c -28.5317,0.92158 -54.8564,3.50806 -80.0224,7.18678 -7.5957,-22.39957 -17.6885,-43.06966 -22.4738,-63.80444 -4.5113,-19.54564 -4.3031,-38.46912 5.8416,-61.55934 11.4902,-6.37683 20.594,-14.58931 30.5676,-21.56812 z m -951.235,48.52447 c 9.33464,2.33376 20.31239,7.40234 31.02225,12.58261 -9.78804,36.55128 -12.56035,77.32447 -4.04307,108.73106 -37.96302,3.9761 -76.380767,10.46442 -114.632986,20.66818 L 108.51171,797.25329 c 9.26045,-3.72343 18.97428,-1.44927 27.4244,0 z m 661.732,22.91328 c 14.51491,18.74387 34.31379,38.43107 56.64106,57.06345 l -49.00013,85.81777 c -32.86399,6.68144 -66.91903,10.78406 -104.74125,10.78406 -21.53769,0 -51.68283,-4.80849 -87.66142,-11.68324 C 664.83464,904.34257 734.8226,858.21159 797.6605,820.16676 Z m 79.12245,75.03562 c 16.90803,12.68668 34.45458,24.49626 51.69805,34.59728 -29.05304,7.90768 -59.63579,17.68107 -84.9635,24.26604 z"
     id="path2"
     style="fill:#e6e6e6;stroke-width:0.999999" />
</svg>
