<?xml version="1.0" encoding="UTF-8" standalone="no"?>
<svg
   width="1200pt"
   height="1200pt"
   version="1.1"
   viewBox="0 0 1200 1200"
   id="svg16"
   sodipodi:docname="menus.svg"
   inkscape:version="1.2.2 (b0a8486541, 2022-12-01)"
   xmlns:inkscape="http://www.inkscape.org/namespaces/inkscape"
   xmlns:sodipodi="http://sodipodi.sourceforge.net/DTD/sodipodi-0.dtd"
   xmlns="http://www.w3.org/2000/svg"
   xmlns:svg="http://www.w3.org/2000/svg">
  <defs
     id="defs20" />
  <sodipodi:namedview
     id="namedview18"
     pagecolor="#ffffff"
     bordercolor="#666666"
     borderopacity="1.0"
     inkscape:showpageshadow="2"
     inkscape:pageopacity="0.0"
     inkscape:pagecheckerboard="0"
     inkscape:deskcolor="#d1d1d1"
     inkscape:document-units="pt"
     showgrid="false"
     inkscape:zoom="0.53125"
     inkscape:cx="800"
     inkscape:cy="800.94118"
     inkscape:window-width="1674"
     inkscape:window-height="752"
     inkscape:window-x="50"
     inkscape:window-y="114"
     inkscape:window-maximized="0"
     inkscape:current-layer="svg16" />
  <g
     id="g14"
     style="fill:#e6e6e6">
    <path
       d="m344.44 182.74v202.5h772.5v-202.5zm735 165h-697.5v-127.5h697.5z"
       id="path2"
       style="fill:#e6e6e6" />
    <path
       d="m344.44 701.25h772.5v-202.5h-772.5zm37.5-165h697.5v127.5h-697.5z"
       id="path4"
       style="fill:#e6e6e6" />
    <path
       d="m344.44 1017.3h772.5v-202.5h-772.5zm37.5-165h697.5v127.5h-697.5z"
       id="path6"
       style="fill:#e6e6e6" />
    <path
       d="m184.2 182.74c-26.852 0-52.605 10.668-71.594 29.656s-29.656 44.738-29.656 71.594c0 26.852 10.668 52.605 29.656 71.594s44.742 29.656 71.594 29.656c26.855 0 52.605-10.668 71.594-29.656s29.656-44.742 29.656-71.594c0-26.855-10.668-52.605-29.656-71.594s-44.738-29.656-71.594-29.656zm0 165c-16.906 0-33.121-6.7188-45.078-18.672-11.953-11.957-18.672-28.172-18.672-45.078 0-16.91 6.7188-33.125 18.672-45.078 11.957-11.957 28.172-18.672 45.078-18.672 16.91 0 33.125 6.7148 45.078 18.672 11.957 11.953 18.672 28.168 18.672 45.078-0.019531 16.895-6.7461 33.09-18.699 45.027-11.953 11.941-28.156 18.648-45.051 18.648z"
       id="path8"
       style="fill:#e6e6e6" />
    <path
       d="m184.2 498.75c-26.852 0-52.605 10.668-71.594 29.656s-29.656 44.742-29.656 71.594 10.668 52.605 29.656 71.594 44.742 29.656 71.594 29.656c26.855 0 52.605-10.668 71.594-29.656s29.656-44.742 29.656-71.594-10.668-52.605-29.656-71.594-44.738-29.656-71.594-29.656zm0 165c-16.906 0-33.121-6.7148-45.078-18.672-11.953-11.957-18.672-28.172-18.672-45.078s6.7188-33.121 18.672-45.078c11.957-11.957 28.172-18.672 45.078-18.672 16.91 0 33.125 6.7148 45.078 18.672 11.957 11.957 18.672 28.172 18.672 45.078s-6.7148 33.121-18.672 45.078c-11.953 11.957-28.168 18.672-45.078 18.672z"
       id="path10"
       style="fill:#e6e6e6" />
    <path
       d="m184.2 814.84c-26.852 0-52.605 10.668-71.594 29.656-18.988 18.988-29.656 44.742-29.656 71.594 0 26.855 10.668 52.609 29.656 71.598 18.988 18.988 44.742 29.652 71.594 29.652 26.855 0 52.605-10.664 71.594-29.652 18.988-18.988 29.656-44.742 29.656-71.598 0-26.852-10.668-52.605-29.656-71.594-18.988-18.988-44.738-29.656-71.594-29.656zm0 165c-16.906 0-33.121-6.7148-45.078-18.672-11.953-11.953-18.672-28.168-18.672-45.078 0-16.906 6.7188-33.121 18.672-45.078 11.957-11.953 28.172-18.672 45.078-18.672 16.91 0 33.125 6.7188 45.078 18.672 11.957 11.957 18.672 28.172 18.672 45.078-0.019531 16.895-6.7461 33.094-18.699 45.031s-28.156 18.645-45.051 18.645z"
       id="path12"
       style="fill:#e6e6e6" />
  </g>
</svg>
