<?xml version="1.0" encoding="UTF-8" standalone="no"?>
<svg
   width="1200pt"
   height="1200pt"
   version="1.1"
   viewBox="0 0 1200 1200"
   id="svg16"
   sodipodi:docname="noun-map-4853617.svg"
   inkscape:version="1.2.2 (b0a8486541, 2022-12-01)"
   xmlns:inkscape="http://www.inkscape.org/namespaces/inkscape"
   xmlns:sodipodi="http://sodipodi.sourceforge.net/DTD/sodipodi-0.dtd"
   xmlns="http://www.w3.org/2000/svg"
   xmlns:svg="http://www.w3.org/2000/svg">
  <defs
     id="defs20" />
  <sodipodi:namedview
     id="namedview18"
     pagecolor="#ffffff"
     bordercolor="#666666"
     borderopacity="1.0"
     inkscape:showpageshadow="2"
     inkscape:pageopacity="0.0"
     inkscape:pagecheckerboard="0"
     inkscape:deskcolor="#d1d1d1"
     inkscape:document-units="pt"
     showgrid="false"
     inkscape:zoom="0.53125"
     inkscape:cx="800"
     inkscape:cy="800.94118"
     inkscape:window-width="1674"
     inkscape:window-height="752"
     inkscape:window-x="50"
     inkscape:window-y="114"
     inkscape:window-maximized="0"
     inkscape:current-layer="svg16" />
  <g
     fill-rule="evenodd"
     id="g14"
     style="fill:#e6e6e6">
    <path
       d="m178.16 278.61c-5.3281 0-10.438 2.1172-14.203 5.8828-3.7656 3.7695-5.8828 8.8789-5.8828 14.207v584.59c-67.898 9.8828-120.53 68.027-120.53 138.58 0 77.418 63.195 140.62 140.62 140.62h964.23c5.3281 0 10.438-2.1172 14.203-5.8867 3.7695-3.7656 5.8867-8.875 5.8867-14.203v-843.7c0-5.3281-2.1172-10.438-5.8867-14.207-3.7656-3.7656-8.875-5.8828-14.203-5.8828h-81.137c-5.5938 0-10.938 2.3359-14.738 6.4414-3.8047 4.1094-5.7188 9.6133-5.2891 15.195 0.47266 6.168 0.72266 12.355 0.72266 18.543 0 133.38-107.68 241.06-241.06 241.06-133.36 0-241.05-107.67-241.06-241.04l0.003906-0.023438c0-6.1758 0.25-12.375 0.72266-18.543v0.003907c0.42969-5.582-1.4844-11.086-5.2852-15.195-3.8047-4.1055-9.1445-6.4414-14.742-6.4414zm20.09 40.176h321.41c0 155.08 126.15 281.23 281.23 281.23 155.08 0 281.23-126.15 281.23-281.23h40.176v803.52h-944.14c-26.66 0.082031-52.258-10.473-71.109-29.328-18.855-18.852-29.41-44.449-29.328-71.109-0.082031-26.664 10.473-52.258 29.328-71.113 18.852-18.852 44.449-29.41 71.109-29.328 5.3281 0 10.438-2.1172 14.207-5.8828 3.7656-3.7695 5.8828-8.8789 5.8828-14.207z"
       id="path2"
       style="fill:#e6e6e6" />
    <path
       d="m178.14 158.06c-37.27 0.089844-72.984 14.941-99.328 41.301-26.348 26.359-41.18 62.082-41.25 99.352v723.16c0.30469 6.9727 4.1992 13.289 10.297 16.691 6.0938 3.4023 13.516 3.4023 19.613 0 6.0938-3.4023 9.9922-9.7188 10.293-16.691-0.089844-26.652 10.453-52.242 29.297-71.09 18.844-18.852 44.426-29.406 71.078-29.324 5.3281 0 10.441-2.1133 14.215-5.8789 3.7695-3.7656 5.8945-8.875 5.9062-14.203v-723.2c0-5.3359-2.1211-10.453-5.8945-14.227-3.7734-3.7734-8.8906-5.8945-14.227-5.8945zm-20.082 48.48v678.85c-31.016 4.668-59.336 17.273-80.293 38.797v-625.48c0-47.832 35.684-81.887 80.293-92.176z"
       id="path4"
       style="fill:#e6e6e6" />
    <path
       d="m178.16 278.61c-5.3281 0-10.438 2.1172-14.203 5.8828-3.7656 3.7695-5.8828 8.8789-5.8828 14.207v584.59c-67.898 9.8828-120.53 68.027-120.53 138.58 0 69.656 51.035 127.7 117.81 138.64 4.8594 0.79688 9.8438-0.22266 14-2.8594 4.1602-2.6367 7.207-6.707 8.5586-11.441 9.8242-34.371 15.969-55.082 21.102-68.641 5.1211-13.559 8.707-19.656 15.477-28.688 13.559-18.051 40.477-45.742 100.91-136.4 30.656-45.98 47.879-78.637 56.949-105.86 9.0703-27.219 9.2695-49.398 6.4883-68.832-5.543-38.871-19.656-66.262-0.26953-153.5 26.484-119.19 119.66-203.54 173.3-242.89v0.003906c5.4375-3.9922 8.5078-10.449 8.1758-17.188-0.089843-1.8867-0.16016-3.7773-0.21094-5.6641 0.011718-6.1055 0.25-12.223 0.72266-18.309 0.42969-5.582-1.4844-11.086-5.2852-15.195-3.8047-4.1055-9.1445-6.4414-14.742-6.4414zm20.09 40.176h317.88c-58.688 45.098-148.7 130.41-176.79 256.79-20.793 93.551-4.7695 136.47-0.26953 167.91 2.2383 15.719 2.4414 28.695-4.8125 50.441-7.25 21.746-22.668 51.867-52.281 96.281-59.492 89.23-82.945 112.34-99.617 134.55-8.3359 11.109-14.836 22.5-20.934 38.609-4.3906 11.609-10.145 31.758-15.969 51.707-39.059-13.699-67.734-49.254-67.734-93.195-0.082031-26.664 10.473-52.258 29.328-71.113 18.852-18.852 44.449-29.41 71.109-29.328 5.3281 0 10.438-2.1172 14.207-5.8828 3.7656-3.7695 5.8828-8.8789 5.8828-14.207zm939.28 141.22s-41.715 10.387-88.68 31.258c-46.957 20.871-101.03 51.215-125.31 99.77-24.578 49.164-17.387 114.82-24.559 172.22-3.5977 28.695-10.176 54.711-22.578 74.777-12.414 20.078-29.973 35.133-60.938 43.992-68.238 19.484-129.66 23.473-178.65 55.172-24.496 15.848-44.777 39.441-57.715 72.668-12.938 33.219-19.266 75.766-19.266 132.54 0 5.3281 2.1172 10.438 5.8828 14.203 3.7695 3.7695 8.8789 5.8867 14.203 5.8867h562.47c5.3281 0 10.438-2.1172 14.203-5.8867 3.7695-3.7656 5.8867-8.875 5.8867-14.203v-662.91c-0.003906-6.1836-2.8516-12.023-7.7266-15.828-4.8711-3.8047-11.227-5.1562-17.223-3.6602zm-15.23 46.336v615.97h-521.01c1.5078-42.055 6.4492-75.27 15.246-97.848 10.285-26.414 23.906-41.742 42.086-53.516 36.391-23.543 95.5-29.602 167.88-50.281 39.344-11.25 66.992-33.848 84.07-61.48 17.105-27.641 24.336-59.379 28.273-90.949 7.8945-63.125 5.043-128.04 20.641-159.23 15.898-31.801 62.273-61.723 105.7-81.027v0.003907c18.641-8.2266 37.707-15.453 57.117-21.656zm-507.93-12.957c-43.883 24.375-76.758 70.711-91.34 125.04-12.535 46.805-9.9141 93.309 5.4531 131.6 15.367 38.289 44.445 68.941 83.586 79.43 39.141 10.477 79.648-1.5352 112.09-27.02 32.453-25.473 57.973-64.434 70.508-111.23 10.746-40.117 10.668-81.84-0.88281-118.76l0.003906-0.003906c-1.1758-3.7539-3.4258-7.082-6.4727-9.5703-3.0508-2.4844-6.7617-4.0234-10.676-4.4219-51.824-5.2109-100.57-27.07-138.93-62.301-3.1094-2.8555-7.0352-4.6562-11.227-5.1523-4.1914-0.49609-8.4297 0.33984-12.117 2.3906zm9.2812 42.586c38.426 31.348 84.488 51.926 133.47 59.641 6.0469 26.336 6.5781 55.945-1.2539 85.195-10.438 38.93-31.77 70.609-56.496 90.023-24.738 19.414-51.746 26.547-76.906 19.816-25.16-6.7383-44.996-26.414-56.707-55.605-11.723-29.18-14.363-67.297-3.918-106.23 10.746-40.055 34.23-73.262 61.812-92.848z"
       id="path6"
       style="fill:#e6e6e6" />
    <path
       d="m800.93 37.562c-155.12 0-281.27 126.15-281.27 281.23 0 155.12 126.15 281.27 281.27 281.27 155.08 0 281.23-126.15 281.23-281.27 0-155.08-126.15-281.23-281.23-281.23zm0 40.203c42.332-0.058594 83.934 11.047 120.61 32.195 36.668 21.148 67.117 51.594 88.266 88.266 21.148 36.672 32.254 78.273 32.191 120.61 0.054688 42.328-11.055 83.922-32.203 120.59-21.152 36.664-51.598 67.105-88.266 88.25-36.672 21.145-78.266 32.246-120.59 32.188-42.336 0.058594-83.934-11.043-120.61-32.195-36.672-21.148-67.117-51.594-88.266-88.266-21.152-36.672-32.254-78.273-32.195-120.61-0.058594-42.332 11.043-83.934 32.195-120.61 21.148-36.672 51.594-67.117 88.266-88.266 36.672-21.148 78.27-32.254 120.61-32.191z"
       id="path8"
       style="fill:#e6e6e6" />
    <path
       d="m800.93 238.43c-21.297 0.082031-41.695 8.5703-56.754 23.625-15.062 15.055-23.562 35.449-23.652 56.742 0 44.152 36.254 80.406 80.406 80.406 21.293-0.089844 41.688-8.5898 56.742-23.652 15.051-15.059 23.543-35.461 23.625-56.754-0.089844-21.285-8.5859-41.676-23.641-56.727-15.051-15.055-35.441-23.551-56.727-23.641zm0 40.203c22.398 0 40.164 17.766 40.164 40.164 0.089844 10.684-4.1094 20.957-11.66 28.516-7.5508 7.5586-17.82 11.77-28.504 11.688-10.691 0.09375-20.973-4.1133-28.531-11.672-7.5586-7.5625-11.766-17.84-11.672-28.531 0-22.398 17.766-40.164 40.203-40.164z"
       id="path10"
       style="fill:#e6e6e6" />
    <path
       d="m936 172.22c-5.2812-2.0469-11.18-1.7695-16.246 0.75781l-170.45 85.266h-0.003906c-3.8711 1.9453-7.0156 5.0859-8.957 8.9609l-85.188 170.45h-0.003907c-2.4883 5.0547-2.7461 10.926-0.70312 16.18 2.0391 5.2539 6.1914 9.4102 11.441 11.457s11.121 1.8008 16.18-0.68359l170.45-85.227c3.875-1.9453 7.0156-5.0859 8.9609-8.9609l85.266-170.45c2.5156-5.0625 2.7852-10.953 0.73828-16.227-2.043-5.2734-6.2109-9.4414-11.484-11.484zm-52.199 63.703-55.234 110.55-110.62 55.312 55.312-110.62z"
       id="path12"
       style="fill:#e6e6e6" />
  </g>
</svg>
