<?xml version="1.0" encoding="UTF-8" standalone="no"?>
<svg
   width="1200pt"
   height="1200pt"
   version="1.1"
   viewBox="0 0 1200 1200"
   id="svg2235"
   sodipodi:docname="non_essentiel.svg"
   inkscape:version="1.2.2 (b0a8486541, 2022-12-01)"
   xmlns:inkscape="http://www.inkscape.org/namespaces/inkscape"
   xmlns:sodipodi="http://sodipodi.sourceforge.net/DTD/sodipodi-0.dtd"
   xmlns="http://www.w3.org/2000/svg"
   xmlns:svg="http://www.w3.org/2000/svg">
  <defs
     id="defs2239" />
  <sodipodi:namedview
     id="namedview2237"
     pagecolor="#ffffff"
     bordercolor="#666666"
     borderopacity="1.0"
     inkscape:showpageshadow="2"
     inkscape:pageopacity="0.0"
     inkscape:pagecheckerboard="0"
     inkscape:deskcolor="#d1d1d1"
     inkscape:document-units="pt"
     showgrid="false"
     inkscape:zoom="0.4646271"
     inkscape:cx="389.55972"
     inkscape:cy="814.63178"
     inkscape:window-width="1920"
     inkscape:window-height="1016"
     inkscape:window-x="0"
     inkscape:window-y="27"
     inkscape:window-maximized="1"
     inkscape:current-layer="svg2235" />
  <rect
     style="fill:#ffffff;stroke:#ffd5d5;stroke-width:0.9"
     id="rect2732"
     width="529.74854"
     height="335.50699"
     x="251.31635"
     y="473.16788" />
  <path
     d="M 976.80201,295.20047 808.80156,127.20002 c -4.80081,-4.80082 -10.80102,-7.19922 -16.80104,-7.19922 H 239.99907 c -13.19903,0 -24.00006,10.80104 -24.00006,24.00007 v 912.00243 c 0,13.199 10.80103,24 24.00006,24 h 720.00189 c 13.19904,0 24.00006,-10.801 24.00006,-24 v -744.002 c 0,-6 -2.3984,-12.00002 -7.19921,-16.80104 z m -160.80043,-93.59826 86.39824,86.39824 H 816.00158 Z M 264.00013,1032.0044 V 168.00213 h 504.00133 v 144.00038 c 0,13.19903 10.80102,24.00007 24.00005,24.00007 H 936.0019 v 696.00182 z m 84.00023,-456.00119 h 192.0005 c 7.19921,0 12.00002,-4.80082 12.00002,-12.00004 V 252.00235 c 0,-7.19922 -4.80081,-12.00003 -12.00002,-12.00003 h -192.0005 c -7.19923,0 -12.00004,4.80081 -12.00004,12.00003 v 312.00082 c 0,7.19922 4.80081,12.00004 12.00004,12.00004 z M 360.00038,264.00238 H 528.00082 V 552.00314 H 360.00038 Z m 288.00076,12.00003 c 0,-6.00001 6.00002,-12.00003 12.00003,-12.00003 h 84.00023 v 24.00007 h -84.00023 c -6.00001,0 -12.00003,-6.00002 -12.00003,-12.00004 z m -48.00013,48.00013 c 0,-6.00002 6.00002,-12.00003 12.00004,-12.00003 H 744.0014 v 24.00007 H 612.00105 c -6.00002,0 -12.00004,-6.00002 -12.00004,-12.00004 z m 264.0007,48.00013 c 0,7.19921 -4.80082,12.00002 -12.00003,12.00002 h -48.00013 c -7.19921,0 -12.00004,-4.80081 -12.00004,-12.00002 0,-7.19923 4.80083,-12.00004 12.00004,-12.00004 h 48.00013 c 7.19921,0 12.00003,4.80081 12.00003,12.00004 z m -264.0007,0 c 0,-7.19923 4.80081,-12.00004 12.00004,-12.00004 h 144.00037 c 7.19923,0 12.00004,4.80081 12.00004,12.00004 0,7.19921 -4.80081,12.00002 -12.00004,12.00002 H 612.00105 c -7.19923,0 -12.00004,-4.80081 -12.00004,-12.00002 z m 264.0007,48.00013 c 0,7.19921 -4.80082,12.00002 -12.00003,12.00002 H 708.00129 c -7.19921,0 -12.00002,-4.80081 -12.00002,-12.00002 0,-7.19923 4.80081,-12.00004 12.00002,-12.00004 h 144.00039 c 7.19921,0 12.00003,4.80081 12.00003,12.00004 z m -264.0007,0 c 0,-7.19923 4.80081,-12.00004 12.00004,-12.00004 h 48.00012 c 7.19922,0 12.00003,4.80081 12.00003,12.00004 0,7.19921 -4.80081,12.00002 -12.00003,12.00002 h -48.00012 c -7.19923,0 -12.00004,-4.80081 -12.00004,-12.00002 z m 264.0007,48.00012 c 0,7.19922 -4.80082,12.00003 -12.00003,12.00003 H 612.00105 c -7.19923,0 -12.00004,-4.80081 -12.00004,-12.00003 0,-7.19922 4.80081,-12.00003 12.00004,-12.00003 h 240.00063 c 7.19921,0 12.00003,4.80081 12.00003,12.00003 z m 0,48.00012 c 0,7.19923 -4.80082,12.00004 -12.00003,12.00004 h -48.00013 c -7.19921,0 -12.00004,-4.80081 -12.00004,-12.00004 0,-7.19921 4.80083,-12.00003 12.00004,-12.00003 h 48.00013 c 7.19921,0 12.00003,4.80082 12.00003,12.00003 z m -264.0007,0 c 0,-7.19921 4.80081,-12.00003 12.00004,-12.00003 h 144.00037 c 7.19923,0 12.00004,4.80082 12.00004,12.00003 0,7.19923 -4.80081,12.00004 -12.00004,12.00004 H 612.00105 c -7.19923,0 -12.00004,-4.80081 -12.00004,-12.00004 z m 264.0007,48.00013 c 0,7.19922 -4.80082,12.00004 -12.00003,12.00004 H 612.00105 c -7.19923,0 -12.00004,-4.80082 -12.00004,-12.00004 0,-7.19922 4.80081,-12.00003 12.00004,-12.00003 h 240.00063 c 7.19921,0 12.00003,4.80081 12.00003,12.00003 z m 0,96.00025 c 0,7.19922 -4.80082,12.00003 -12.00003,12.00003 H 396.00047 c -7.19921,0 -12.00002,-4.80081 -12.00002,-12.00003 0,-7.19922 4.80081,-12.00003 12.00002,-12.00003 h 456.00121 c 7.19921,0 12.00003,4.80081 12.00003,12.00003 z m 0,48.00013 c 0,7.19922 -4.80082,12.00003 -12.00003,12.00003 h -96.00026 c -7.19921,0 -12.00002,-4.80081 -12.00002,-12.00003 0,-7.19922 4.80081,-12.00004 12.00002,-12.00004 h 96.00026 c 7.19921,0 12.00003,4.80082 12.00003,12.00004 z m -528.00139,0 c 0,-7.19922 4.80081,-12.00004 12.00004,-12.00004 h 360.00093 c 7.19923,0 12.00004,4.80082 12.00004,12.00004 0,7.19922 -4.80081,12.00003 -12.00004,12.00003 H 348.00036 c -7.19923,0 -12.00004,-4.80081 -12.00004,-12.00003 z m 528.00139,48.00012 c 0,7.19922 -4.80082,12.00004 -12.00003,12.00004 H 564.00092 c -7.19922,0 -12.00004,-4.80082 -12.00004,-12.00004 0,-7.19922 4.80082,-12.00003 12.00004,-12.00003 h 288.00076 c 7.19921,0 12.00003,4.80081 12.00003,12.00003 z m -528.00139,0 c 0,-7.19922 4.80081,-12.00003 12.00004,-12.00003 h 168.00043 c 7.19922,0 12.00003,4.80081 12.00003,12.00003 0,7.19922 -4.80081,12.00004 -12.00003,12.00004 H 348.00036 c -7.19923,0 -12.00004,-4.80082 -12.00004,-12.00004 z m 528.00139,48.00013 c 0,7.19922 -4.80082,12.00004 -12.00003,12.00004 h -96.00026 c -7.19921,0 -12.00002,-4.80082 -12.00002,-12.00004 0,-7.19922 4.80081,-12.00003 12.00002,-12.00003 h 96.00026 c 7.19921,0 12.00003,4.80081 12.00003,12.00003 z m -528.00139,0 c 0,-7.19922 4.80081,-12.00003 12.00004,-12.00003 h 360.00093 c 7.19923,0 12.00004,4.80081 12.00004,12.00003 0,7.19922 -4.80081,12.00004 -12.00004,12.00004 H 348.00036 c -7.19923,0 -12.00004,-4.80082 -12.00004,-12.00004 z m 528.00139,48.00012 c 0,7.19923 -4.80082,12.00004 -12.00003,12.00004 H 564.00092 c -7.19922,0 -12.00004,-4.80081 -12.00004,-12.00004 0,-7.19921 4.80082,-12.00002 12.00004,-12.00002 h 288.00076 c 7.19921,0 12.00003,4.80081 12.00003,12.00002 z m -528.00139,0 c 0,-7.19921 4.80081,-12.00002 12.00004,-12.00002 h 168.00043 c 7.19922,0 12.00003,4.80081 12.00003,12.00002 0,7.19923 -4.80081,12.00004 -12.00003,12.00004 H 348.00036 c -7.19923,0 -12.00004,-4.80081 -12.00004,-12.00004 z m 528.00139,48.00013 c 0,7.19922 -4.80082,12.00003 -12.00003,12.00003 H 660.00117 c -7.19922,0 -12.00003,-4.80081 -12.00003,-12.00003 0,-7.19921 4.80081,-12.00004 12.00003,-12.00004 h 192.00051 c 7.19921,0 12.00003,4.80083 12.00003,12.00004 z m -528.00139,0 c 0,-7.19921 4.80081,-12.00004 12.00004,-12.00004 h 264.00069 c 7.19921,0 12.00003,4.80083 12.00003,12.00004 0,7.19922 -4.80082,12.00003 -12.00003,12.00003 H 348.00036 c -7.19923,0 -12.00004,-4.80081 -12.00004,-12.00003 z m 528.00139,48.00013 c 0,7.19922 -4.80082,12.00003 -12.00003,12.00003 H 348.00036 c -7.19923,0 -12.00004,-4.80081 -12.00004,-12.00003 0,-7.19923 4.80081,-12.00004 12.00004,-12.00004 h 504.00132 c 7.19921,0 12.00003,4.80081 12.00003,12.00004 z"
     id="path2233"
     style="fill:#b3b3b3;stroke-width:0.999997" />
</svg>
