<?xml version="1.0" encoding="UTF-8" standalone="no"?>
<svg
   width="1200pt"
   height="1200pt"
   version="1.1"
   viewBox="0 0 1200 1200"
   id="svg1971"
   sodipodi:docname="noun-pdf-2392908.svg"
   inkscape:version="1.2.2 (b0a8486541, 2022-12-01)"
   xmlns:inkscape="http://www.inkscape.org/namespaces/inkscape"
   xmlns:sodipodi="http://sodipodi.sourceforge.net/DTD/sodipodi-0.dtd"
   xmlns="http://www.w3.org/2000/svg"
   xmlns:svg="http://www.w3.org/2000/svg">
  <defs
     id="defs1975" />
  <sodipodi:namedview
     id="namedview1973"
     pagecolor="#ffffff"
     bordercolor="#666666"
     borderopacity="1.0"
     inkscape:showpageshadow="2"
     inkscape:pageopacity="0.0"
     inkscape:pagecheckerboard="0"
     inkscape:deskcolor="#d1d1d1"
     inkscape:document-units="pt"
     showgrid="false"
     inkscape:zoom="0.53125"
     inkscape:cx="751.05882"
     inkscape:cy="800.94118"
     inkscape:window-width="1674"
     inkscape:window-height="752"
     inkscape:window-x="50"
     inkscape:window-y="114"
     inkscape:window-maximized="0"
     inkscape:current-layer="svg1971" />
  <g
     id="g1969"
     style="fill:#aa0000">
    <path
       d="m850.8 270h193.2c-3.6016-6-8.3984-12-14.398-18l-190.8-190.8c-4.8008-4.8008-10.801-9.6016-18-14.398v192c0 18 13.199 31.199 30 31.199z"
       id="path1957"
       style="fill:#aa0000" />
    <path
       d="m570 454.8c-1.1992-2.3984-3.6016-4.8008-10.801-4.8008s-8.3984 2.3984-8.3984 3.6016c-7.1992 16.801 1.1992 54 18 93.602 10.801-50.402 9.5977-80.402 1.1992-92.402z"
       id="path1959"
       style="fill:#aa0000" />
    <path
       d="m850.8 350.4c-61.199 0-110.4-49.199-110.4-110.4l-0.003906-210h-493.2c-28.801 0-55.199 10.801-75.602 31.199-20.398 20.398-31.199 46.801-31.199 75.602v925.2c0 58.801 48 106.8 106.8 106.8h706.8c58.801 0 106.8-48 106.8-106.8v-711.6zm3.5977 442.8c-16.801 16.801-39.602 26.398-62.398 26.398-33.602 0-73.199-19.199-117.6-55.199-24 4.8008-50.398 12-81.602 20.398-26.398 7.1992-49.199 15.602-69.602 22.801-36 64.801-82.801 130.8-127.2 141.6-4.8008 1.1992-9.6016 2.3984-14.398 2.3984-12 0-22.801-3.6016-32.398-12-15.602-13.199-22.801-31.199-19.199-50.398 9.6016-49.199 88.801-91.199 160.8-120 9.6016-18 18-37.199 26.398-56.398 14.398-36 26.398-68.398 34.801-96-33.602-62.398-61.199-139.2-42-181.2 9.6016-20.398 27.602-32.398 51.602-32.398 21.602 0 38.398 8.3984 49.199 25.199 21.602 31.199 18 92.398-8.3984 183.6 12 20.398 25.199 39.602 37.199 52.801 16.801 18 33.602 34.801 49.199 48 96-16.801 159.6-9.6016 178.8 21.602 2.3984 7.1953 13.199 31.195-13.203 58.793z"
       id="path1961"
       style="fill:#aa0000" />
    <path
       d="m582 669.6c-7.1992 19.199-14.398 39.602-22.801 61.199-2.3984 6-4.8008 10.801-7.1992 16.801 10.801-3.6016 19.199-6 27.602-8.3984 18-4.8008 36-9.6016 51.602-14.398-9.6016-8.3984-18-18-27.602-28.801-6-6.0039-13.203-15.605-21.602-26.402z"
       id="path1963"
       style="fill:#aa0000" />
    <path
       d="m374.4 898.8c3.6016 6 4.8008 6 8.3984 6 16.801-4.8008 40.801-28.801 64.801-64.801-47.996 24-70.797 46.801-73.199 58.801z"
       id="path1965"
       style="fill:#aa0000" />
    <path
       d="m739.2 752.4c20.398 12 38.398 19.199 54 19.199 13.199 1.1992 22.801-2.3984 28.801-12 6-9.5977-25.199-13.199-82.801-7.1992z"
       id="path1967"
       style="fill:#aa0000" />
  </g>
</svg>
