<?xml version="1.0" encoding="UTF-8" standalone="no"?>
<svg
   width="1200pt"
   height="1200pt"
   version="1.1"
   viewBox="0 0 1200 1200"
   id="svg10"
   sodipodi:docname="periode.svg"
   inkscape:version="1.2.2 (b0a8486541, 2022-12-01)"
   xmlns:inkscape="http://www.inkscape.org/namespaces/inkscape"
   xmlns:sodipodi="http://sodipodi.sourceforge.net/DTD/sodipodi-0.dtd"
   xmlns="http://www.w3.org/2000/svg"
   xmlns:svg="http://www.w3.org/2000/svg">
  <defs
     id="defs14" />
  <sodipodi:namedview
     id="namedview12"
     pagecolor="#ffffff"
     bordercolor="#666666"
     borderopacity="1.0"
     inkscape:showpageshadow="2"
     inkscape:pageopacity="0.0"
     inkscape:pagecheckerboard="0"
     inkscape:deskcolor="#d1d1d1"
     inkscape:document-units="pt"
     showgrid="false"
     inkscape:zoom="0.53125"
     inkscape:cx="800"
     inkscape:cy="800"
     inkscape:window-width="1674"
     inkscape:window-height="773"
     inkscape:window-x="1970"
     inkscape:window-y="89"
     inkscape:window-maximized="0"
     inkscape:current-layer="svg10" />
  <g
     id="g8"
     style="fill:#e6e6e6">
    <path
       d="m679.42 556.93c53.488-25.691 98.656-65.93 130.32-116.11 31.668-50.18 48.555-108.27 48.727-167.61v-126.49h95.75v-50h-700v50h95.75v127.98c0.23828 59.004 16.969 116.77 48.309 166.76 31.34 49.992 76.031 90.227 129.04 116.15 10.633 5.2539 18.91 14.301 23.203 25.359 4.293 11.055 4.2852 23.316-0.019531 34.371-4.3047 11.051-12.594 20.086-23.234 25.328-53.008 25.902-97.707 66.121-129.04 116.11-31.332 49.988-48.047 107.75-48.25 166.75v123.68h-95.75v50h700v-50h-95.75v-122.65c-0.26172-59.555-17.324-117.83-49.223-168.12-31.898-50.289-77.34-90.559-131.1-116.18-7.9648-3.8516-14.691-9.8672-19.406-17.355-4.7109-7.4922-7.2266-16.152-7.2539-25.004 0.089844-9.0781 2.7656-17.941 7.7109-25.551 4.9492-7.6094 11.961-13.652 20.223-17.418zm-279.45-282.23v-123.9h408.5v122.41c-0.11328 26.949-4.3984 53.715-12.703 79.352h-0.042969c-0.77734 2.3281-1.8398 5.0312-2.7734 7.5703-0.83203 2.3633-1.7227 4.6992-2.6211 7.0391l-0.003906-0.003906c-20.566 50.75-55.391 94.457-100.26 125.84l-28.906-40.773c35.652-25.109 63.648-59.613 80.871-99.676h-329.86c-7.9805-25.188-12.094-51.441-12.195-77.863zm258.2 413.43v0.003906c44.906 21.625 82.82 55.457 109.4 97.621 26.578 42.168 40.75 90.961 40.895 140.8v41.176c-97.398-4.7812-149.98-36.656-177.03-80.117-5.2812-8.8984-14.844-14.371-25.191-14.43-10.344-0.054688-19.965 5.3125-25.348 14.152-20.273 28.859-47.453 52.18-79.059 67.836-31.602 15.656-66.625 23.148-101.87 21.793v-51.434c0.16797-49.613 14.227-98.191 40.582-140.23 26.355-42.035 63.957-75.848 108.54-97.613 27.602-13.684 47.113-39.609 52.617-69.922l1.5078-1.0859v-0.003906c5.7383 31.277 26.195 57.875 54.953 71.449z"
       id="path2"
       style="fill:#e6e6e6" />
    <path
       d="m628.53 815.86c0 13.422-10.879 24.305-24.305 24.305-13.422 0-24.301-10.883-24.301-24.305s10.879-24.305 24.301-24.305c13.426 0 24.305 10.883 24.305 24.305"
       id="path4"
       style="fill:#e6e6e6" />
    <path
       d="m628.53 728c0 13.422-10.879 24.305-24.305 24.305-13.422 0-24.301-10.883-24.301-24.305s10.879-24.305 24.301-24.305c13.426 0 24.305 10.883 24.305 24.305"
       id="path6"
       style="fill:#e6e6e6" />
  </g>
</svg>
