<?xml version="1.0" encoding="UTF-8" standalone="no"?>
<svg
   width="1200pt"
   height="1200pt"
   version="1.1"
   viewBox="0 0 1200 1200"
   id="svg623"
   sodipodi:docname="noun-picture-5761512.svg"
   inkscape:version="1.2.2 (b0a8486541, 2022-12-01)"
   xmlns:inkscape="http://www.inkscape.org/namespaces/inkscape"
   xmlns:sodipodi="http://sodipodi.sourceforge.net/DTD/sodipodi-0.dtd"
   xmlns="http://www.w3.org/2000/svg"
   xmlns:svg="http://www.w3.org/2000/svg">
  <defs
     id="defs627" />
  <sodipodi:namedview
     id="namedview625"
     pagecolor="#ffffff"
     bordercolor="#666666"
     borderopacity="1.0"
     inkscape:showpageshadow="2"
     inkscape:pageopacity="0.0"
     inkscape:pagecheckerboard="0"
     inkscape:deskcolor="#d1d1d1"
     inkscape:document-units="pt"
     showgrid="false"
     inkscape:zoom="0.29552039"
     inkscape:cx="666.62067"
     inkscape:cy="702.15122"
     inkscape:window-width="1674"
     inkscape:window-height="752"
     inkscape:window-x="50"
     inkscape:window-y="114"
     inkscape:window-maximized="0"
     inkscape:current-layer="g621" />
  <g
     id="g621">
    <g
       id="g752"
       transform="matrix(0.82456459,0,0,0.82456459,105.26212,105.26168)"
       style="stroke-width:1.21276">
      <path
         d="m 153.24,174.47 v 851.05 c 0,11.738 9.4922,21.23 21.23,21.23 h 851.05 c 11.738,0 21.23,-9.4922 21.23,-21.23 V 174.47 c 0,-11.738 -9.4922,-21.23 -21.23,-21.23 H 174.47 c -11.738,0 -21.23,9.4922 -21.23,21.23 z m 42.461,21.23 h 808.59 V 521.87 L 837.631,378.49 c -8.0078,-6.8945 -19.883,-6.8164 -27.852,0.13672 l -157.01,137.68 -177.95,-192.64 c -7.9492,-8.5938 -21.367,-9.1211 -29.98,-1.2305 l -249.14,229.18 z"
         id="path609"
         style="fill:#999999;stroke-width:1.21276" />
      <path
         d="m 678.67,387.64 c 39.023,0 70.781,-31.758 70.781,-70.781 0,-39.043 -31.758,-70.801 -70.781,-70.801 -39.043,0 -70.781,31.758 -70.781,70.801 0,39.023 31.738,70.781 70.781,70.781 z"
         id="path611"
         style="stroke-width:1.21276" />
      <path
         d="M 100.61,943.36 H 58.13 v 177.29 c 0,11.738 9.4922,21.23 21.23,21.23 H 281.45 V 1099.4 H 100.61 Z"
         id="path613"
         style="stroke-width:1.21276" />
      <path
         d="M 1099.4,1099.4 H 900.86 v 42.48 h 219.79 c 11.738,0 21.23,-9.4922 21.23,-21.23 V 943.36 h -42.48 z"
         id="path615"
         style="stroke-width:1.21276" />
      <path
         d="M 1120.6,58.125 H 900.81 v 42.48 h 198.54 v 184.41 h 42.48 V 79.355 c 0,-11.738 -9.4922,-21.23 -21.23,-21.23 z"
         id="path617"
         style="stroke-width:1.21276" />
      <path
         d="M 100.61,100.61 H 281.45 V 58.13 H 79.36 c -11.738,0 -21.23,9.4922 -21.23,21.23 v 205.66 h 42.48 z"
         id="path619"
         style="stroke-width:1.21276" />
    </g>
  </g>
</svg>
