<?xml version="1.0" encoding="UTF-8" standalone="no"?>
<svg
   width="1200pt"
   height="1200pt"
   version="1.1"
   viewBox="0 0 1200 1200"
   id="svg767"
   sodipodi:docname="noun-floor-plan-2358561.svg"
   inkscape:version="1.2.2 (b0a8486541, 2022-12-01)"
   xmlns:inkscape="http://www.inkscape.org/namespaces/inkscape"
   xmlns:sodipodi="http://sodipodi.sourceforge.net/DTD/sodipodi-0.dtd"
   xmlns="http://www.w3.org/2000/svg"
   xmlns:svg="http://www.w3.org/2000/svg">
  <defs
     id="defs771" />
  <sodipodi:namedview
     id="namedview769"
     pagecolor="#ffffff"
     bordercolor="#666666"
     borderopacity="1.0"
     inkscape:showpageshadow="2"
     inkscape:pageopacity="0.0"
     inkscape:pagecheckerboard="0"
     inkscape:deskcolor="#d1d1d1"
     inkscape:document-units="pt"
     showgrid="false"
     inkscape:zoom="0.28798414"
     inkscape:cx="100.69999"
     inkscape:cy="713.58096"
     inkscape:window-width="1674"
     inkscape:window-height="752"
     inkscape:window-x="50"
     inkscape:window-y="114"
     inkscape:window-maximized="0"
     inkscape:current-layer="svg767" />
  <path
     d="m 512.14257,995.30842 h 43.92871 V 819.59357 h 234.28648 v 73.21452 H 629.28581 v 102.50033 h 58.57161 v 73.21448 H 512.14257 Z m -292.85809,0 v 73.21448 H 131.42705 V 131.37705 h 571.07328 v 87.85743 h -73.21452 v -14.6429 h -58.57162 v 161.07195 h 58.57162 v -29.28581 h 73.21452 V 438.87805 H 497.49966 V 204.59158 H 204.64157 v 307.50099 h 234.28648 v 73.21452 H 204.64157 v 410.00133 z m 761.43103,0 h 14.64291 V 892.80809 h -87.85743 v -73.21452 h 87.85743 V 585.30709 H 629.28581 v 43.92872 H 556.07128 V 512.09257 H 819.64356 V 380.30643 h 73.21453 V 512.09257 H 995.35842 V 204.59158 H 892.85809 v 58.57161 H 819.64356 V 131.37705 h 248.92934 v 937.14585 h -87.85739 z"
     fill-rule="evenodd"
     id="path765"
     style="stroke-width:0.999997" />
</svg>
