<?xml version="1.0" encoding="UTF-8" standalone="no"?>
<svg
   width="1200pt"
   height="1200pt"
   version="1.1"
   viewBox="0 0 1200 1200"
   id="svg183"
   sodipodi:docname="noun-text-3343098.svg"
   inkscape:version="1.2.2 (b0a8486541, 2022-12-01)"
   xmlns:inkscape="http://www.inkscape.org/namespaces/inkscape"
   xmlns:sodipodi="http://sodipodi.sourceforge.net/DTD/sodipodi-0.dtd"
   xmlns="http://www.w3.org/2000/svg"
   xmlns:svg="http://www.w3.org/2000/svg">
  <defs
     id="defs187" />
  <sodipodi:namedview
     id="namedview185"
     pagecolor="#ffffff"
     bordercolor="#666666"
     borderopacity="1.0"
     inkscape:showpageshadow="2"
     inkscape:pageopacity="0.0"
     inkscape:pagecheckerboard="0"
     inkscape:deskcolor="#d1d1d1"
     inkscape:document-units="pt"
     showgrid="false"
     inkscape:zoom="0.23259951"
     inkscape:cx="855.54782"
     inkscape:cy="1167.2424"
     inkscape:window-width="1674"
     inkscape:window-height="752"
     inkscape:window-x="50"
     inkscape:window-y="114"
     inkscape:window-maximized="0"
     inkscape:current-layer="svg183" />
  <g
     id="g181"
     transform="matrix(0.86321259,0,0,0.86321259,82.070871,82.072991)"
     style="stroke-width:1.15846">
    <path
       d="m 76.777,67.008 h 1046.4 c 4.9688,0 9,-4.0312 9,-9 0,-4.9688 -4.0312,-9 -9,-9 H 76.777 c -4.9688,0 -9,4.0312 -9,9 0,4.9688 4.0312,9 9,9 z"
       id="path157"
       style="stroke-width:1.15846" />
    <path
       d="M 1123.2,443.2 H 76.8 c -4.9688,0 -9,4.0312 -9,9 0,4.9688 4.0312,9 9,9 h 1046.4 c 4.9688,0 9,-4.0312 9,-9 0,-4.9688 -4.0312,-9 -9,-9 z"
       id="path159"
       style="stroke-width:1.15846" />
    <path
       d="M 1123.2,541.74 H 76.8 c -4.9688,0 -9,4.0312 -9,9 0,4.9688 4.0312,9 9,9 h 1046.4 c 4.9688,0 9,-4.0312 9,-9 0,-4.9648 -4.0312,-9 -9,-9 z"
       id="path161"
       style="stroke-width:1.15846" />
    <path
       d="M 1123.2,640.27 H 76.8 c -4.9688,0 -9,4.0312 -9,9 0,4.9688 4.0312,9 9,9 h 1046.4 c 4.9688,0 9,-4.0312 9,-9 0,-4.9688 -4.0312,-9 -9,-9 z"
       id="path163"
       style="stroke-width:1.15846" />
    <path
       d="M 1123.2,738.8 H 76.8 c -4.9688,0 -9,4.0312 -9,9 0,4.9688 4.0312,9 9,9 h 1046.4 c 4.9688,0 9,-4.0312 9,-9 0,-4.9688 -4.0312,-9 -9,-9 z"
       id="path165"
       style="stroke-width:1.15846" />
    <path
       d="M 1123.2,837.35 H 76.8 c -4.9688,0 -9,4.0312 -9,9 0,4.9688 4.0312,9 9,9 h 1046.4 c 4.9688,0 9,-4.0312 9,-9 0,-4.9688 -4.0312,-9 -9,-9 z"
       id="path167"
       style="stroke-width:1.15846" />
    <path
       d="M 1123.2,935.9 H 76.8 c -4.9688,0 -9,4.0312 -9,9 0,4.9688 4.0312,9 9,9 h 1046.4 c 4.9688,0 9,-4.0312 9,-9 0,-4.9648 -4.0312,-9 -9,-9 z"
       id="path169"
       style="stroke-width:1.15846" />
    <path
       d="M 1123.2,1034.4 H 76.8 c -4.9688,0 -9,4.0312 -9,9 0,4.9688 4.0312,9 9,9 h 1046.4 c 4.9688,0 9,-4.0312 9,-9 0,-4.9688 -4.0312,-9 -9,-9 z"
       id="path171"
       style="stroke-width:1.15846" />
    <path
       d="M 1123.2,147.55 H 76.8 c -4.9688,0 -9,4.0312 -9,9 0,4.9688 4.0312,9 9,9 h 1046.4 c 4.9688,0 9,-4.0312 9,-9 0,-4.9648 -4.0312,-9 -9,-9 z"
       id="path173"
       style="stroke-width:1.15846" />
    <path
       d="M 1123.2,246.1 H 76.8 c -4.9688,0 -9,4.0312 -9,9 0,4.9688 4.0312,9 9,9 h 1046.4 c 4.9688,0 9,-4.0312 9,-9 0,-4.9688 -4.0312,-9 -9,-9 z"
       id="path175"
       style="stroke-width:1.15846" />
    <path
       d="M 1123.2,344.64 H 76.8 c -4.9688,0 -9,4.0312 -9,9 0,4.9688 4.0312,9 9,9 h 1046.4 c 4.9688,0 9,-4.0312 9,-9 0,-4.9688 -4.0312,-9 -9,-9 z"
       id="path177"
       style="stroke-width:1.15846" />
    <path
       d="M 937.87,1133 H 262.13 c -4.9688,0 -9,4.0312 -9,9 0,4.9688 4.0312,9 9,9 h 675.76 c 4.9688,0 9,-4.0312 9,-9 -0.004,-4.9688 -4.0469,-9 -9.0156,-9 z"
       id="path179"
       style="stroke-width:1.15846" />
  </g>
</svg>
