<?xml version="1.0" encoding="UTF-8" standalone="no"?>
<svg
   width="1200pt"
   height="1200pt"
   version="1.1"
   viewBox="0 0 1200 1200"
   id="svg914"
   sodipodi:docname="quantiquali.svg"
   inkscape:version="1.2.2 (b0a8486541, 2022-12-01)"
   xmlns:inkscape="http://www.inkscape.org/namespaces/inkscape"
   xmlns:sodipodi="http://sodipodi.sourceforge.net/DTD/sodipodi-0.dtd"
   xmlns="http://www.w3.org/2000/svg"
   xmlns:svg="http://www.w3.org/2000/svg">
  <defs
     id="defs918" />
  <sodipodi:namedview
     id="namedview916"
     pagecolor="#ffffff"
     bordercolor="#666666"
     borderopacity="1.0"
     inkscape:showpageshadow="2"
     inkscape:pageopacity="0.0"
     inkscape:pagecheckerboard="0"
     inkscape:deskcolor="#d1d1d1"
     inkscape:document-units="pt"
     showgrid="false"
     inkscape:zoom="0.31163873"
     inkscape:cx="519.8327"
     inkscape:cy="951.42219"
     inkscape:window-width="1920"
     inkscape:window-height="1016"
     inkscape:window-x="0"
     inkscape:window-y="27"
     inkscape:window-maximized="1"
     inkscape:current-layer="svg914" />
  <g
     id="g912"
     transform="matrix(0.92309826,0,0,0.92309826,43.372579,32.98742)"
     style="stroke-width:1.08331">
    <path
       d="M 432,300 H 324 V 192 c 0,-6.6289 -5.3711,-12 -12,-12 -6.6289,0 -12,5.3711 -12,12 V 300 H 192 c -6.6289,0 -12,5.3711 -12,12 0,6.6289 5.3711,12 12,12 h 108 v 108 c 0,6.6289 5.3711,12 12,12 6.6289,0 12,-5.3711 12,-12 V 324 h 108 c 6.6289,0 12,-5.3711 12,-12 0,-6.6289 -5.3711,-12 -12,-12 z"
       id="path894"
       style="stroke-width:1.08331" />
    <path
       d="m 416.48,783.52 c -4.6875,-4.6875 -12.285,-4.6875 -16.969,0 l -87.516,87.512 -87.516,-87.516 v 0.004 c -4.6992,-4.6133 -12.234,-4.5781 -16.891,0.0781 -4.657,4.65623 -4.6914,12.191 -0.0781,16.891 l 87.51201,87.516 -87.51601,87.516 h 0.004 c -2.2891,2.2422 -3.582,5.3047 -3.5977,8.5078 -0.0156,3.2031 1.25,6.2773 3.5156,8.543 2.2656,2.2617 5.3398,3.5273 8.543,3.5117 3.2031,-0.0156 6.2656,-1.3086 8.5078,-3.5938 l 87.516,-87.516 87.516,87.516 c 2.2422,2.2773 5.3047,3.5625 8.5,3.5742 3.1992,0.0117 6.2656,-1.2539 8.5273,-3.5156 2.2617,-2.2617 3.5273,-5.3281 3.5156,-8.5273 -0.0117,-3.1953 -1.2969,-6.2578 -3.5742,-8.5 l -87.516,-87.516 87.516,-87.516 c 4.6875,-4.6875 4.6875,-12.285 0,-16.969 z"
       id="path896"
       style="stroke-width:1.08331" />
    <path
       d="M 492,60 H 132 C 112.902,60 94.59,67.5859 81.086,81.086 67.586,94.59 60,112.902 60,132 v 360 c 0,19.094 7.5859,37.41 21.09,50.91 C 94.59,556.414 112.906,564 132,564 h 360 c 19.094,0 37.41,-7.5859 50.91,-21.09 C 556.414,529.41 564,511.094 564,492 V 132 C 564,112.906 556.4141,94.59 542.91,81.09 529.41,67.586 511.094,60 492,60 Z m 48,432 c 0,12.73 -5.0547,24.941 -14.059,33.941 C 516.941,534.9449 504.73,540 492,540 H 132 C 119.27,540 107.059,534.9453 98.059,525.941 89.0551,516.941 83.997,504.73 84,492 V 132 C 83.996094,119.27 89.0547,107.059 98.059,98.059 107.059,89.0551 119.27,83.997 132,84 h 360 c 12.73,-0.0039 24.941,5.0547 33.941,14.059 9.0039,9 14.059,21.211 14.059,33.941 z"
       id="path904"
       style="stroke-width:1.08331" />
    <path
       d="M 492,636 H 132 c -19.098,0 -37.41,7.5859 -50.914,21.086 C 67.586,670.59 60,688.902 60,708 v 360 c 0,19.094 7.5859,37.41 21.09,50.91 13.5,13.504 31.816,21.09 50.91,21.09 h 360 c 19.094,0 37.41,-7.5859 50.91,-21.09 C 556.414,1105.41 564,1087.094 564,1068 V 708 c 0,-19.094 -7.5859,-37.41 -21.09,-50.91 C 529.41,643.586 511.094,636 492,636 Z m 48,432 c 0,12.73 -5.0547,24.941 -14.059,33.941 -9,9.0039 -21.211,14.059 -33.941,14.059 H 132 c -12.73,0 -24.941,-5.0547 -33.941,-14.059 C 89.0551,1092.941 83.997,1080.73 84,1068 V 708 c -0.0039,-12.73 5.0547,-24.941 14.059,-33.941 9,-9.0039 21.211,-14.062 33.941,-14.059 h 360 c 12.73,-0.004 24.941,5.0547 33.941,14.059 9.0039,9 14.059,21.211 14.059,33.941 z"
       id="path908"
       style="stroke-width:1.08331" />
  </g>
  <g
     id="g181"
     transform="matrix(0.45997978,0,0,0.86321259,602.13039,64.506233)"
     style="stroke-width:1.58698">
    <path
       d="m 76.777,67.008 h 1046.4 c 4.9688,0 9,-4.0312 9,-9 0,-4.9688 -4.0312,-9 -9,-9 H 76.777 c -4.9688,0 -9,4.0312 -9,9 0,4.9688 4.0312,9 9,9 z"
       id="path157"
       style="stroke-width:1.58698" />
    <path
       d="M 1123.2,443.2 H 76.8 c -4.9688,0 -9,4.0312 -9,9 0,4.9688 4.0312,9 9,9 h 1046.4 c 4.9688,0 9,-4.0312 9,-9 0,-4.9688 -4.0312,-9 -9,-9 z"
       id="path159"
       style="stroke-width:1.58698" />
    <path
       d="M 1123.2,541.74 H 76.8 c -4.9688,0 -9,4.0312 -9,9 0,4.9688 4.0312,9 9,9 h 1046.4 c 4.9688,0 9,-4.0312 9,-9 0,-4.9648 -4.0312,-9 -9,-9 z"
       id="path161"
       style="stroke-width:1.58698" />
    <path
       d="M 1123.2,640.27 H 76.8 c -4.9688,0 -9,4.0312 -9,9 0,4.9688 4.0312,9 9,9 h 1046.4 c 4.9688,0 9,-4.0312 9,-9 0,-4.9688 -4.0312,-9 -9,-9 z"
       id="path163"
       style="stroke-width:1.58698" />
    <path
       d="M 1123.2,738.8 H 76.8 c -4.9688,0 -9,4.0312 -9,9 0,4.9688 4.0312,9 9,9 h 1046.4 c 4.9688,0 9,-4.0312 9,-9 0,-4.9688 -4.0312,-9 -9,-9 z"
       id="path165"
       style="stroke-width:1.58698" />
    <path
       d="M 1123.2,837.35 H 76.8 c -4.9688,0 -9,4.0312 -9,9 0,4.9688 4.0312,9 9,9 h 1046.4 c 4.9688,0 9,-4.0312 9,-9 0,-4.9688 -4.0312,-9 -9,-9 z"
       id="path167"
       style="stroke-width:1.58698" />
    <path
       d="M 1123.2,935.9 H 76.8 c -4.9688,0 -9,4.0312 -9,9 0,4.9688 4.0312,9 9,9 h 1046.4 c 4.9688,0 9,-4.0312 9,-9 0,-4.9648 -4.0312,-9 -9,-9 z"
       id="path169"
       style="stroke-width:1.58698" />
    <path
       d="M 1123.2,1034.4 H 76.8 c -4.9688,0 -9,4.0312 -9,9 0,4.9688 4.0312,9 9,9 h 1046.4 c 4.9688,0 9,-4.0312 9,-9 0,-4.9688 -4.0312,-9 -9,-9 z"
       id="path171"
       style="stroke-width:1.58698" />
    <path
       d="M 1123.2,147.55 H 76.8 c -4.9688,0 -9,4.0312 -9,9 0,4.9688 4.0312,9 9,9 h 1046.4 c 4.9688,0 9,-4.0312 9,-9 0,-4.9648 -4.0312,-9 -9,-9 z"
       id="path173"
       style="stroke-width:1.58698" />
    <path
       d="M 1123.2,246.1 H 76.8 c -4.9688,0 -9,4.0312 -9,9 0,4.9688 4.0312,9 9,9 h 1046.4 c 4.9688,0 9,-4.0312 9,-9 0,-4.9688 -4.0312,-9 -9,-9 z"
       id="path175"
       style="stroke-width:1.58698" />
    <path
       d="M 1123.2,344.64 H 76.8 c -4.9688,0 -9,4.0312 -9,9 0,4.9688 4.0312,9 9,9 h 1046.4 c 4.9688,0 9,-4.0312 9,-9 0,-4.9688 -4.0312,-9 -9,-9 z"
       id="path177"
       style="stroke-width:1.58698" />
    <path
       d="M 937.87,1133 H 262.13 c -4.9688,0 -9,4.0312 -9,9 0,4.9688 4.0312,9 9,9 h 675.76 c 4.9688,0 9,-4.0312 9,-9 -0.004,-4.9688 -4.0469,-9 -9.0156,-9 z"
       id="path179"
       style="stroke-width:1.58698" />
  </g>
</svg>
