<?xml version="1.0" encoding="UTF-8"?>
<svg width="1200pt" height="1200pt" version="1.1" viewBox="0 0 1200 1200" xmlns="http://www.w3.org/2000/svg">
 <g>
  <path d="m432 300h-108v-108c0-6.6289-5.3711-12-12-12s-12 5.3711-12 12v108h-108c-6.6289 0-12 5.3711-12 12s5.3711 12 12 12h108v108c0 6.6289 5.3711 12 12 12s12-5.3711 12-12v-108h108c6.6289 0 12-5.3711 12-12s-5.3711-12-12-12z"/>
  <path d="m416.48 783.52c-4.6875-4.6875-12.285-4.6875-16.969 0l-87.516 87.512-87.516-87.516v0.003906c-4.6992-4.6133-12.234-4.5781-16.891 0.078125s-4.6914 12.191-0.078125 16.891l87.512 87.516-87.516 87.516h0.003906c-2.2891 2.2422-3.582 5.3047-3.5977 8.5078-0.015625 3.2031 1.25 6.2773 3.5156 8.543 2.2656 2.2617 5.3398 3.5273 8.543 3.5117 3.2031-0.015625 6.2656-1.3086 8.5078-3.5938l87.516-87.516 87.516 87.516c2.2422 2.2773 5.3047 3.5625 8.5 3.5742 3.1992 0.011718 6.2656-1.2539 8.5273-3.5156s3.5273-5.3281 3.5156-8.5273c-0.011719-3.1953-1.2969-6.2578-3.5742-8.5l-87.516-87.516 87.516-87.516c4.6875-4.6875 4.6875-12.285 0-16.969z"/>
  <path d="m1008 300h-240c-6.6289 0-12 5.3711-12 12s5.3711 12 12 12h240c6.6289 0 12-5.3711 12-12s-5.3711-12-12-12z"/>
  <path d="m1008 936h-240c-6.6289 0-12 5.3711-12 12s5.3711 12 12 12h240c6.6289 0 12-5.3711 12-12s-5.3711-12-12-12z"/>
  <path d="m1008 816h-240c-6.6289 0-12 5.3711-12 12s5.3711 12 12 12h240c6.6289 0 12-5.3711 12-12s-5.3711-12-12-12z"/>
  <path d="m492 60h-360c-19.098 0-37.41 7.5859-50.914 21.086-13.5 13.504-21.086 31.816-21.086 50.914v360c0 19.094 7.5859 37.41 21.09 50.91 13.5 13.504 31.816 21.09 50.91 21.09h360c19.094 0 37.41-7.5859 50.91-21.09 13.504-13.5 21.09-31.816 21.09-50.91v-360c0-19.094-7.5859-37.41-21.09-50.91-13.5-13.504-31.816-21.09-50.91-21.09zm48 432c0 12.73-5.0547 24.941-14.059 33.941-9 9.0039-21.211 14.059-33.941 14.059h-360c-12.73 0-24.941-5.0547-33.941-14.059-9.0039-9-14.062-21.211-14.059-33.941v-360c-0.003906-12.73 5.0547-24.941 14.059-33.941 9-9.0039 21.211-14.062 33.941-14.059h360c12.73-0.003906 24.941 5.0547 33.941 14.059 9.0039 9 14.059 21.211 14.059 33.941z"/>
  <path d="m1068 60h-360c-19.098 0-37.41 7.5859-50.914 21.086-13.5 13.504-21.086 31.816-21.086 50.914v360c0 19.094 7.5859 37.41 21.09 50.91 13.5 13.504 31.816 21.09 50.91 21.09h360c19.094 0 37.41-7.5859 50.91-21.09 13.504-13.5 21.09-31.816 21.09-50.91v-360c0-19.094-7.5859-37.41-21.09-50.91-13.5-13.504-31.816-21.09-50.91-21.09zm48 432c0 12.73-5.0547 24.941-14.059 33.941-9 9.0039-21.211 14.059-33.941 14.059h-360c-12.73 0-24.941-5.0547-33.941-14.059-9.0039-9-14.062-21.211-14.059-33.941v-360c-0.003906-12.73 5.0547-24.941 14.059-33.941 9-9.0039 21.211-14.062 33.941-14.059h360c12.73-0.003906 24.941 5.0547 33.941 14.059 9.0039 9 14.059 21.211 14.059 33.941z"/>
  <path d="m492 636h-360c-19.098 0-37.41 7.5859-50.914 21.086-13.5 13.504-21.086 31.816-21.086 50.914v360c0 19.094 7.5859 37.41 21.09 50.91 13.5 13.504 31.816 21.09 50.91 21.09h360c19.094 0 37.41-7.5859 50.91-21.09 13.504-13.5 21.09-31.816 21.09-50.91v-360c0-19.094-7.5859-37.41-21.09-50.91-13.5-13.504-31.816-21.09-50.91-21.09zm48 432c0 12.73-5.0547 24.941-14.059 33.941-9 9.0039-21.211 14.059-33.941 14.059h-360c-12.73 0-24.941-5.0547-33.941-14.059-9.0039-9-14.062-21.211-14.059-33.941v-360c-0.003906-12.73 5.0547-24.941 14.059-33.941 9-9.0039 21.211-14.062 33.941-14.059h360c12.73-0.003906 24.941 5.0547 33.941 14.059 9.0039 9 14.059 21.211 14.059 33.941z"/>
  <path d="m1068 636h-360c-19.098 0-37.41 7.5859-50.914 21.086-13.5 13.504-21.086 31.816-21.086 50.914v360c0 19.094 7.5859 37.41 21.09 50.91 13.5 13.504 31.816 21.09 50.91 21.09h360c19.094 0 37.41-7.5859 50.91-21.09 13.504-13.5 21.09-31.816 21.09-50.91v-360c0-19.094-7.5859-37.41-21.09-50.91-13.5-13.504-31.816-21.09-50.91-21.09zm48 432c0 12.73-5.0547 24.941-14.059 33.941-9 9.0039-21.211 14.059-33.941 14.059h-360c-12.73 0-24.941-5.0547-33.941-14.059-9.0039-9-14.062-21.211-14.059-33.941v-360c-0.003906-12.73 5.0547-24.941 14.059-33.941 9-9.0039 21.211-14.062 33.941-14.059h360c12.73-0.003906 24.941 5.0547 33.941 14.059 9.0039 9 14.059 21.211 14.059 33.941z"/>
 </g>
</svg>
