<?xml version="1.0" encoding="UTF-8" standalone="no"?>
<svg
   width="1200pt"
   height="1200pt"
   version="1.1"
   viewBox="0 0 1200 1200"
   id="svg12"
   sodipodi:docname="noun-people-5702857.svg"
   inkscape:version="1.2.2 (b0a8486541, 2022-12-01)"
   xmlns:inkscape="http://www.inkscape.org/namespaces/inkscape"
   xmlns:sodipodi="http://sodipodi.sourceforge.net/DTD/sodipodi-0.dtd"
   xmlns="http://www.w3.org/2000/svg"
   xmlns:svg="http://www.w3.org/2000/svg">
  <defs
     id="defs16" />
  <sodipodi:namedview
     id="namedview14"
     pagecolor="#ffffff"
     bordercolor="#666666"
     borderopacity="1.0"
     inkscape:showpageshadow="2"
     inkscape:pageopacity="0.0"
     inkscape:pagecheckerboard="0"
     inkscape:deskcolor="#d1d1d1"
     inkscape:document-units="pt"
     showgrid="false"
     inkscape:zoom="0.53125"
     inkscape:cx="800"
     inkscape:cy="800"
     inkscape:window-width="1674"
     inkscape:window-height="773"
     inkscape:window-x="1970"
     inkscape:window-y="89"
     inkscape:window-maximized="0"
     inkscape:current-layer="svg12" />
  <g
     id="g10"
     style="fill:#e6e6e6">
    <path
       d="m509.22 874.2c43.438 21.211 92.914 26.586 139.89 15.203 46.98-11.383 88.508-38.812 117.41-77.555 28.91-38.738 43.387-86.355 40.926-134.63-2.457-48.277-21.695-94.176-54.391-129.78l-0.23828-0.23828c-0.12109-0.12109-0.12109-0.12109-0.12109-0.23828-4.4414-4.8008-9.1211-9.3594-14.039-13.801v-0.003906c-35.812-32.141-81.68-50.832-129.76-52.879-48.074-2.0469-95.363 12.684-133.78 41.668-38.41 28.98-65.555 70.414-76.781 117.2-11.227 46.793-5.8398 96.031 15.234 139.29 6.7852 14.027 9.0234 29.824 6.3984 45.184s-9.9805 29.516-21.035 40.496l-17.039 17.039-15.121-15.121c-0.58203-0.62109-1.2266-1.1836-1.9219-1.6797-7.1367-6.2734-16.395-9.5938-25.891-9.2812-9.5 0.3125-18.52 4.2344-25.23 10.961l-148.8 148.8h0.003906c-7.0703 7.0156-11.043 16.562-11.043 26.52s3.9727 19.504 11.043 26.52l55.078 55.199c7.0781 6.9961 16.629 10.922 26.582 10.922 9.9492 0 19.5-3.9258 26.578-10.922l148.68-148.8v0.003906c6.7461-6.7188 10.684-15.75 11.016-25.266 0.33594-9.5156-2.9609-18.801-9.2148-25.977-0.60156-0.71875-1.1992-1.3203-1.8008-1.9219l-15.059-15.117 17.039-17.039c10.93-11.035 25.027-18.391 40.328-21.035 15.305-2.6445 31.055-0.45312 45.051 6.2734zm-7.4414-284.76 0.003906 0.003906c26.078-26.082 61.453-40.73 98.336-40.73 36.883 0.003906 72.254 14.652 98.332 40.734 26.078 26.082 40.73 61.453 40.73 98.336s-14.652 72.254-40.73 98.332c-26.078 26.082-61.449 40.734-98.332 40.734-36.883 0-72.258-14.648-98.336-40.727-26.168-26.039-40.879-61.43-40.879-98.34 0-36.914 14.711-72.305 40.879-98.34zm-119.28 370.08 0.003906 0.003906c-4.6797 4.6523-12.238 4.6523-16.922 0l-37.199-37.199c-4.0781-4.7617-3.8008-11.859 0.62891-16.293 4.4336-4.4297 11.531-4.7031 16.293-0.62891l37.199 37.199v0.003906c4.6523 4.6797 4.6523 12.238 0 16.918z"
       id="path2"
       style="fill:#e6e6e6" />
    <path
       d="m410.1 523.56c0.015626 2.4453 0.76953 4.8281 2.1602 6.8398 0.49219 0.69531 1.0547 1.3398 1.6797 1.9219l0.35938 0.35938 7.6797 7.1992c1.4414-1.8008 2.8789-3.4805 4.4414-5.1602 1.1992-1.3203 2.3984-2.543 3.6016-3.8398l3.6016-3.8398h-0.003906c1.4766-1.7188 3.082-3.3203 4.8008-4.8008 3.9609-4.0781 8.1602-7.8008 12.48-11.52h-0.003906c42.727-35.961 96.992-55.301 152.83-54.465 55.84 0.83984 109.5 21.797 151.13 59.027 2.5195 2.2812 4.9219 4.5586 7.3203 6.8398 1.5586 1.5586 3 3 4.4414 4.5586 2.6406 2.6406 5.1602 5.3984 7.5586 8.1602 1.4414 1.6797 2.8789 3.2383 4.3203 4.9219l7.9219-7.4414c2.3516-2.3125 3.6875-5.4609 3.7188-8.7617-0.046875-40.066-12.738-79.094-36.27-111.52-23.527-32.43-56.695-56.602-94.77-69.074 33.777-17.699 57.812-49.645 65.461-87.004 7.6445-37.363-1.9062-76.184-26.02-105.73-24.113-29.543-60.227-46.688-98.363-46.688-38.137 0-74.25 17.145-98.363 46.688-24.109 29.547-33.664 68.367-26.02 105.73 7.6484 37.359 31.684 69.305 65.465 87.004-38.098 12.449-71.293 36.617-94.844 69.047-23.555 32.43-36.266 71.473-36.316 111.55z"
       id="path4"
       style="fill:#e6e6e6" />
    <path
       d="m993.06 182.52c0.003906-27.492-9.7266-54.098-27.461-75.105-17.738-21.004-42.34-35.055-69.441-39.66-27.105-4.6055-54.965 0.53516-78.645 14.504-23.68 13.973-41.648 35.871-50.727 61.824-9.0742 25.949-8.6719 54.277 1.1367 79.961 9.8086 25.684 28.391 47.062 52.457 60.355-32.91 11.273-61.676 32.18-82.559 60-0.48047 0.54297-0.88672 1.1484-1.1992 1.8008-0.35156 0.52344-0.63281 1.0859-0.83984 1.6797-0.12109 0.23828-0.23828 0.35938-0.23828 0.60156h-0.003907c-0.375 1.2031-0.57422 2.457-0.59766 3.7188-0.007812 0.89453 0.11328 1.7812 0.35938 2.6406 0.25 1.2422 0.73828 2.4258 1.4375 3.4805 0.28125 0.50781 0.60156 0.98828 0.96094 1.4414 0.38281 0.60156 0.87109 1.1289 1.4414 1.5586 38.039 32.469 63.441 77.285 71.758 126.6-0.015626 0.12891 0.03125 0.26172 0.12109 0.35938 0.24609 1.3164 0.73438 2.5781 1.4414 3.7188 0.28906 0.63281 0.69531 1.2031 1.1992 1.6797 0.35156 0.59375 0.84766 1.0859 1.4414 1.4414 0.50781 0.46484 1.0703 0.86719 1.6797 1.1992 1.8086 1.0977 3.8828 1.6797 6 1.6797h121.32c37.379 0.054688 73.395-14.055 100.8-39.48 0.55078-0.40234 1.0703-0.84375 1.5625-1.3203 0.62109-0.58203 1.1836-1.2266 1.6797-1.918 0.40625-0.65625 0.76562-1.3359 1.0781-2.043 0.66797-1.4414 0.99219-3.0195 0.94922-4.6055v-1.6328c0.019531-0.24609-0.023438-0.49219-0.12109-0.71875-0.44141-35.754-11.918-70.492-32.859-99.473-20.945-28.977-50.332-50.773-84.141-62.41 18.18-10.086 33.332-24.852 43.883-42.766 10.551-17.914 16.121-38.324 16.129-59.113z"
       id="path6"
       style="fill:#e6e6e6" />
    <path
       d="m149.82 448.56c0.039063 3.9805 2.0078 7.6953 5.2812 9.9609 27.434 25.449 63.496 39.555 100.92 39.48h121.32c2.1172 0 4.1914-0.58203 6-1.6797 0.60547-0.33203 1.1719-0.73437 1.6797-1.1992 0.59375-0.35547 1.0859-0.84766 1.4414-1.4414 0.50391-0.47656 0.91016-1.0469 1.1992-1.6797 0.70312-1.1406 1.1914-2.4023 1.4414-3.7188 0.089844-0.097656 0.13281-0.23047 0.11719-0.35938 8.3359-49.07 33.496-93.707 71.16-126.24 0.23828-0.12109 0.35938-0.35938 0.60156-0.48047 0.57031-0.42578 1.0586-0.95703 1.4414-1.5586 0.35938-0.45312 0.67969-0.93359 0.95703-1.4414 0.70312-1.0547 1.1914-2.2383 1.4414-3.4805 0.23828-0.85938 0.35938-1.7461 0.35938-2.6406-0.015626-1.2617-0.21484-2.5156-0.60156-3.7188 0-0.23828-0.12109-0.35938-0.23828-0.60156v0.003907c-0.20703-0.59375-0.48828-1.1602-0.83984-1.6836-0.31641-0.65234-0.71875-1.2578-1.1992-1.7969-20.684-27.871-49.352-48.797-82.199-60 30.258-16.852 51.441-46.297 57.793-80.34 6.3555-34.043-2.7773-69.152-24.922-95.781-22.141-26.629-54.992-42.012-89.625-41.977-34.633 0.035156-67.449 15.492-89.535 42.168-22.086 26.676-31.145 61.801-24.719 95.832s27.672 63.434 57.965 80.215c-34.188 11.77-63.855 33.906-84.871 63.332s-32.328 64.672-32.367 100.83z"
       id="path8"
       style="fill:#e6e6e6" />
  </g>
</svg>
