<?xml version="1.0" encoding="UTF-8" standalone="no"?>
<svg
   width="1200pt"
   height="1200pt"
   version="1.1"
   viewBox="0 0 1200 1200"
   id="svg482"
   sodipodi:docname="noun-map-1700673.svg"
   inkscape:version="1.2.2 (b0a8486541, 2022-12-01)"
   xmlns:inkscape="http://www.inkscape.org/namespaces/inkscape"
   xmlns:sodipodi="http://sodipodi.sourceforge.net/DTD/sodipodi-0.dtd"
   xmlns="http://www.w3.org/2000/svg"
   xmlns:svg="http://www.w3.org/2000/svg">
  <defs
     id="defs486" />
  <sodipodi:namedview
     id="namedview484"
     pagecolor="#ffffff"
     bordercolor="#666666"
     borderopacity="1.0"
     inkscape:showpageshadow="2"
     inkscape:pageopacity="0.0"
     inkscape:pagecheckerboard="0"
     inkscape:deskcolor="#d1d1d1"
     inkscape:document-units="pt"
     showgrid="false"
     inkscape:zoom="0.2022866"
     inkscape:cx="-578.38731"
     inkscape:cy="1144.4159"
     inkscape:window-width="1674"
     inkscape:window-height="752"
     inkscape:window-x="50"
     inkscape:window-y="114"
     inkscape:window-maximized="0"
     inkscape:current-layer="svg482" />
  <path
     d="m 611.73433,268.08814 c -77.72839,0 -154.19371,63.0187 -154.19371,142.01016 H 324.77364 c -3.78168,0.83968 -7.14036,3.78169 -8.40296,7.14036 L 114.7027,891.57342 c -3.78168,8.40296 5.88388,18.48479 14.28684,15.96649 110.07717,-34.87492 223.93258,-29.40684 322.24827,-14.70357 98.31569,14.70326 180.25066,39.07209 231.49532,39.07209 73.52338,0 131.08811,-18.48479 190.32386,-36.13015 59.2436,-18.069 120.15978,-34.87493 201.24431,-34.87493 7.98,0 14.2869,-10.0823 10.9219,-17.228 L 883.55524,416.81957 c -2.10219,-3.78168 -6.30061,-6.72362 -10.92189,-6.72362 H 765.91391 c 0,-78.98519 -76.46531,-142.01016 -154.1937,-142.01016 z m 0,23.52924 c 64.70383,0 130.66447,55.46223 130.66447,118.48092 0,43.2771 -23.52924,94.53432 -53.35972,148.30983 -26.04911,47.05848 -55.46223,96.21318 -77.72839,145.79153 C 586.52465,654.62131 557.11154,605.46661 531.48607,558.40813 502.91866,504.63262 481.06829,453.7912 481.06829,410.0983 c 0,-63.01869 65.96063,-118.48092 130.66447,-118.48092 z m 0,83.1902 c 26.47117,0 47.47584,21.00466 47.47584,47.05848 0,26.47118 -21.00467,47.47584 -47.47584,47.47584 -26.47118,0 -47.47584,-21.00466 -47.47584,-47.47584 0,-26.04911 21.00466,-47.05848 47.47584,-47.05848 z m -277.29544,59.2436 h 124.7806 c 4.19842,30.66991 15.96649,62.60133 31.09198,94.53431 -77.72839,0.83969 -143.68902,30.25256 -214.69096,44.11654 z m 429.80557,0 h 101.25763 l 14.70358,31.93298 c -10.0823,4.19843 -27.31061,6.72363 -48.31528,7.97996 -23.9466,1.26258 -51.68085,1.67933 -79.40725,5.46102 5.46102,-15.12643 9.66556,-30.66991 11.76163,-45.37333 z m 126.46103,53.77551 99.99455,210.90959 c -7.14036,6.72363 -15.54316,13.86383 -21.42673,18.48479 -61.33983,-28.15004 -97.89362,-61.33982 -128.9856,-95.79111 -13.02424,-13.86383 -25.63175,-28.15004 -38.6563,-42.43767 l 46.63641,-82.3492 c 15.54316,-1.26258 30.66991,-3.35867 42.43767,-8.82581 z m -70.16565,10.0823 -36.13015,63.44233 c -14.70358,-14.70357 -30.25255,-28.99104 -48.31527,-42.01403 2.10219,-5.04413 4.19842,-10.0823 6.72362,-15.12643 23.52924,-4.19842 52.09665,-5.04413 77.72839,-6.30061 z m -94.95168,42.43767 c 38.6563,28.15005 64.28177,61.7619 96.63055,97.05262 5.04413,5.04413 10.0823,10.50515 15.12643,15.96649 l -73.94702,63.44233 c -17.22799,-44.95597 -44.95597,-85.70849 -72.68394,-113.43647 6.30061,-11.3449 12.60123,-22.26616 18.90843,-33.61185 5.46102,-9.66557 10.92189,-19.74787 15.96649,-29.40684 z m -225.20349,10.0823 c 3.35867,6.30062 7.14036,13.02424 10.50515,19.32423 9.24256,17.64536 19.32423,35.29072 29.40685,52.93608 -14.28685,42.43767 -28.15005,77.30632 -47.05848,107.13523 -54.61652,-9.24255 -87.81101,-25.63174 -123.94116,-37.81059 23.9466,-13.86383 47.89791,-25.63174 68.90257,-34.03392 5.46103,-1.67934 8.82582,-7.97995 7.56322,-13.4471 -1.26259,-5.46102 -6.30061,-9.66556 -11.76164,-9.24255 -32.34878,11.76164 -65.1212,28.56741 -90.3293,43.69447 -14.70358,-27.31061 -16.38229,-55.87802 -16.79965,-93.69489 60.91618,-12.18449 120.57714,-33.61185 173.5195,-34.86865 z m -197.05502,40.33517 c 0,36.96958 2.51909,69.32621 20.16523,100.83556 -27.72797,18.06899 -52.93608,38.23265 -71.00508,59.65939 -9.23643,-4.63352 -18.90215,-8.83194 -29.40056,-11.77388 -5.46103,-1.26259 -11.3449,-2.10219 -17.64536,-2.10219 l 58.81996,-139.06822 c 13.02424,-2.10219 26.0491,-4.62128 39.07209,-7.56321 z m 375.61112,33.61185 c 30.66992,32.77242 61.33983,84.86907 73.10759,136.54835 -53.77552,32.77242 -115.96105,74.78645 -162.59903,128.14617 -26.04911,-41.59196 -71.00508,-78.98519 -113.01911,-102.51443 38.23266,-37.81059 59.65939,-81.50976 79.40726,-136.54835 16.38229,28.56741 31.93299,57.1411 44.95597,85.29114 4.19842,8.40296 18.90843,7.97995 22.26617,-0.83968 13.86383,-36.13016 34.45128,-73.10759 55.87801,-110.07717 z m 176.04565,45.37333 c 25.20811,23.52924 55.87802,45.79698 97.05262,65.96064 -8.40297,21.85037 -7.56322,42.85346 -3.35868,60.92246 4.62128,19.32423 12.1845,35.71436 17.64536,51.25721 -21.85037,4.62128 -48.31527,10.50516 -64.70383,13.86383 -44.95597,-22.26616 -102.9365,-69.742 -124.78059,-101.67499 -1.67934,-6.72362 -3.35868,-13.44709 -5.46103,-19.74786 z m -512.99576,38.23266 c 39.49573,11.34491 74.78645,31.09199 136.12627,43.27711 -8.40296,10.0823 -17.64536,20.16523 -28.5674,29.40684 -5.46103,5.04413 -3.78169,15.96649 2.94194,19.32422 37.81058,18.90844 84.4517,53.35972 111.34024,89.48988 -33.18821,-6.72363 -69.32621,-13.86383 -108.81567,-19.74787 -59.24359,-8.82582 -123.94115,-14.28684 -191.17114,-9.66557 -6.30061,-20.58729 -6.72362,-59.24359 2.51909,-88.22679 16.38229,-21.42674 44.11654,-43.69447 75.62588,-63.86441 z m 659.62204,14.70358 54.6165,115.12162 c -23.5292,0.83968 -45.3733,2.94194 -65.96064,5.88387 -6.30062,-18.48479 -14.70358,-35.29071 -18.48479,-52.52028 -3.78169,-16.38229 -3.78169,-31.93299 4.62127,-50.83985 9.66557,-5.04413 17.228,-12.18449 25.20806,-17.64536 z m -784.40734,39.90682 c 7.97995,2.10219 16.80593,5.88388 25.63174,10.50515 -7.97995,29.83048 -10.50515,63.44234 -3.35867,89.48988 -31.09199,3.35867 -63.0187,8.82581 -94.53432,17.22799 l 49.57835,-117.21784 c 7.97995,-2.94194 15.96649,-1.26259 22.6898,0 z m 545.77289,18.90843 c 12.18449,15.54317 28.15004,31.50935 46.63641,47.05848 l -40.33517,70.58144 c -26.88854,5.88388 -55.03858,9.24255 -86.54793,9.24255 -17.64536,0 -42.43767,-4.19842 -72.26815,-9.66556 42.85346,-47.89792 100.83556,-85.7085 152.51484,-117.21785 z m 65.1212,61.7619 c 14.28684,10.50515 28.56741,20.16523 42.85346,28.56741 -23.9466,6.72362 -49.1547,14.70357 -70.16564,20.16522 z"
     id="path480"
     style="stroke-width:1" />
</svg>
