<?xml version="1.0" encoding="UTF-8" standalone="no"?>
<svg
   width="1200pt"
   height="1200pt"
   version="1.1"
   viewBox="0 0 1200 1200"
   id="svg4"
   sodipodi:docname="noun-books-1078634.svg"
   inkscape:version="1.2.2 (b0a8486541, 2022-12-01)"
   xmlns:inkscape="http://www.inkscape.org/namespaces/inkscape"
   xmlns:sodipodi="http://sodipodi.sourceforge.net/DTD/sodipodi-0.dtd"
   xmlns="http://www.w3.org/2000/svg"
   xmlns:svg="http://www.w3.org/2000/svg">
  <defs
     id="defs8" />
  <sodipodi:namedview
     id="namedview6"
     pagecolor="#ffffff"
     bordercolor="#666666"
     borderopacity="1.0"
     inkscape:showpageshadow="2"
     inkscape:pageopacity="0.0"
     inkscape:pagecheckerboard="0"
     inkscape:deskcolor="#d1d1d1"
     inkscape:document-units="pt"
     showgrid="false"
     inkscape:zoom="0.32885006"
     inkscape:cx="544.32102"
     inkscape:cy="863.61547"
     inkscape:window-width="1674"
     inkscape:window-height="773"
     inkscape:window-x="1970"
     inkscape:window-y="89"
     inkscape:window-maximized="0"
     inkscape:current-layer="svg4" />
  <path
     d="m 470.17597,177.70657 -44.12209,11.98437 547.66411,184.4955 38.93241,-15.83615 z M 378.89802,202.10468 97.71138,277.4477 649.70171,506.46727 934.78196,390.03052 Z M 83.002213,300.98598 V 407.57877 L 637.15566,637.87818 636.72614,530.85637 83.005313,300.98958 Z m 960.349987,74.05416 -378.95934,154.96 0.42952,108.30345 376.77822,-151.96769 c 9.3509,-36.67197 9.0692,-78.03249 1.7322,-111.29576 z M 137.08003,459.79811 69.165501,529.57112 424.3306,579.22718 Z m 868.20137,70.63285 -41.52996,16.69508 -67.05469,113.01363 v 60.78888 z M 69.158291,556.97055 68.728769,635.30588 869.02643,751.74263 v -83.0455 L 715.89066,647.29132 c -21.62392,8.71717 -43.19196,17.58233 -64.88617,26.10878 -42.69264,-17.6739 -85.36184,-35.38312 -128.04727,-53.07739 L 69.172207,556.97055 Z m 852.626959,7.27383 -155.29708,62.49954 108.57745,15.40659 z M 166.04772,684.53147 v 106.59279 l 553.72082,230.29944 -0.86609,-107.44364 z m 81.75665,4.28116 484.93384,201.18752 288.10859,-117.7184 -101.65728,-34.67109 c -8.63281,14.99109 -17.23028,30.00417 -25.95375,44.94588 C 668.86689,750.01791 439.99153,716.74022 247.81699,688.80723 Z m 697.33349,2.9997 -12.54768,21.82761 126.31502,43.23342 36.7693,-14.98407 z m 180.81824,67.20972 -379.37397,154.9672 0.86609,108.30345 376.36358,-154.9672 c 9.1538,-33.12987 9.9002,-74.46876 2.1617,-108.30345 z"
     id="path2"
     style="stroke-width:1;fill:#e6e6e6" />
</svg>
