<?xml version="1.0" encoding="UTF-8" standalone="no"?>
<svg
   width="1200pt"
   height="1200pt"
   version="1.1"
   viewBox="0 0 1200 1200"
   id="svg40"
   sodipodi:docname="noun-archeology-1616705.svg"
   inkscape:version="1.2.2 (b0a8486541, 2022-12-01)"
   xmlns:inkscape="http://www.inkscape.org/namespaces/inkscape"
   xmlns:sodipodi="http://sodipodi.sourceforge.net/DTD/sodipodi-0.dtd"
   xmlns="http://www.w3.org/2000/svg"
   xmlns:svg="http://www.w3.org/2000/svg">
  <defs
     id="defs44" />
  <sodipodi:namedview
     id="namedview42"
     pagecolor="#ffffff"
     bordercolor="#666666"
     borderopacity="1.0"
     inkscape:showpageshadow="2"
     inkscape:pageopacity="0.0"
     inkscape:pagecheckerboard="0"
     inkscape:deskcolor="#d1d1d1"
     inkscape:document-units="pt"
     showgrid="false"
     inkscape:zoom="0.53125"
     inkscape:cx="800"
     inkscape:cy="800"
     inkscape:window-width="1674"
     inkscape:window-height="773"
     inkscape:window-x="1970"
     inkscape:window-y="89"
     inkscape:window-maximized="0"
     inkscape:current-layer="svg40" />
  <g
     id="g38"
     style="fill:#e6e6e6">
    <path
       d="m208.66 1007.7v2.0391h152.51v-2.0391c0-13.512-5.1953-21.504-7.3086-22.441h-137.9c-2.0898 0.9375-7.2969 8.9297-7.2969 22.441z"
       id="path2"
       style="fill:#e6e6e6" />
    <path
       d="m229.44 626.58v335.2h110.93v-335.2zm32.316 207.05c0 6.4805-5.2695 11.746-11.746 11.746-6.4805 0-11.746-5.2695-11.746-11.746v-188.09c0-6.4805 5.2695-11.746 11.746-11.746 6.4805 0 11.746 5.2695 11.746 11.746zm34.906 83.109c0 6.5039-5.2695 11.746-11.746 11.746-6.5039 0-11.746-5.2422-11.746-11.746v-271.19c0-6.4805 5.2422-11.746 11.746-11.746 6.4805 0 11.746 5.2695 11.746 11.746zm34.895-83.109c0 6.4805-5.2695 11.746-11.746 11.746-6.4805 0-11.746-5.2695-11.746-11.746v-188.09c0-6.4805 5.2695-11.746 11.746-11.746 6.4805 0 11.746 5.2695 11.746 11.746z"
       id="path4"
       style="fill:#e6e6e6" />
    <path
       d="m394.52 1055.7c0-13.512-5.1953-21.504-7.3086-22.441h-204.62c-2.1133 0.9375-7.3086 8.9297-7.3086 22.414v0.023438 2.0391h219.24z"
       id="path6"
       style="fill:#e6e6e6" />
    <path
       d="m361.16 578.61h-152.51v2.0391c0 13.512 5.2188 21.504 7.3086 22.441h137.9c2.0898-0.9375 7.3086-8.9297 7.3086-22.441v-2.0391z"
       id="path8"
       style="fill:#e6e6e6" />
    <path
       d="m394.52 532.67v-2.0391h-219.24v2.0391c0 13.512 5.1953 21.504 7.3086 22.441h204.62c2.1211-0.9375 7.3047-8.9297 7.3047-22.441z"
       id="path10"
       style="fill:#e6e6e6" />
    <path
       d="m103.2 474.21c0 18.145 16.586 32.914 36.961 32.914h0.046875 919.38 0.046874c20.578 0 37.152-14.785 37.152-32.914v-32.914h-993.59z"
       id="path12"
       style="fill:#e6e6e6" />
    <path
       d="m523.73 1007.7v2.0391h152.53v-2.0391c0-13.512-5.2188-21.504-7.3086-22.441h-137.9c-2.0977 0.9375-7.3203 8.9297-7.3203 22.441z"
       id="path14"
       style="fill:#e6e6e6" />
    <path
       d="m600 69.348-441.18 348.45h882.37zm0 314.84c-62.594 0-113.51-47.137-113.51-105.07 0-57.91 50.914-105.05 113.51-105.05s113.51 47.137 113.51 105.05c0 57.945-50.914 105.07-113.51 105.07z"
       id="path16"
       style="fill:#e6e6e6" />
    <path
       d="m103.2 1114.2c0 18.168 16.586 32.941 36.984 32.941h0.023437 919.61c19.836 0 36.371-14.328 36.984-31.98v-33.875h-993.6z"
       id="path18"
       style="fill:#e6e6e6" />
    <path
       d="m709.63 1055.7c0-13.512-5.2188-21.504-7.3086-22.441h-204.65c-2.0898 0.9375-7.3086 8.9297-7.3086 22.441v2.0391h219.27z"
       id="path20"
       style="fill:#e6e6e6" />
    <path
       d="m838.84 1007.7v2.0391h152.51v-2.0391c0-13.512-5.1953-21.504-7.3086-22.441h-137.9c-2.0781 0.9375-7.2969 8.9297-7.2969 22.441z"
       id="path22"
       style="fill:#e6e6e6" />
    <path
       d="m709.63 532.67v-2.0391h-219.27v2.0391c0 13.512 5.2188 21.504 7.3086 22.441h204.62c2.1094-0.9375 7.332-8.9297 7.332-22.441z"
       id="path24"
       style="fill:#e6e6e6" />
    <path
       d="m859.63 626.58v335.2h110.93v-335.2zm32.305 207.05c0 6.4805-5.2695 11.746-11.746 11.746-6.4805 0-11.746-5.2695-11.746-11.746v-188.09c0-6.4805 5.2695-11.746 11.746-11.746 6.4805 0 11.746 5.2695 11.746 11.746zm34.895 83.109c0 6.5039-5.2695 11.746-11.746 11.746-6.4805 0-11.746-5.2422-11.746-11.746l0.023437-271.19c0-6.4805 5.2422-11.746 11.746-11.746 6.4805 0 11.746 5.2695 11.746 11.746zm34.906-83.109c0 6.4805-5.2695 11.746-11.746 11.746-6.4805 0-11.746-5.2695-11.746-11.746v-188.09c0-6.4805 5.2695-11.746 11.746-11.746 6.4805 0 11.746 5.2695 11.746 11.746z"
       id="path26"
       style="fill:#e6e6e6" />
    <path
       d="m805.48 532.67c0 13.512 5.1953 21.504 7.3086 22.441h204.62c1.0547-0.46875 2.8672-2.6992 4.4414-6.5039 1.5469-3.8047 2.8672-9.1914 2.8672-15.938v-2.0391h-219.24z"
       id="path28"
       style="fill:#e6e6e6" />
    <path
       d="m1024.7 1055.7c0-13.512-5.1953-21.504-7.3086-22.441h-204.62c-2.1133 0.9375-7.3086 8.9297-7.3086 22.441v2.0391h219.24z"
       id="path30"
       style="fill:#e6e6e6" />
    <path
       d="m991.34 578.61h-152.51v2.0391c0 13.512 5.2188 21.504 7.3086 22.441h137.9c2.0898-0.9375 7.3086-8.9297 7.3086-22.441v-2.0391z"
       id="path32"
       style="fill:#e6e6e6" />
    <path
       d="m676.27 580.62v-2.0156h-152.53v2.0391c0 13.512 5.2188 21.504 7.332 22.441h137.88c2.1133-0.9375 7.332-8.9297 7.332-22.441l-0.011718-0.023437z"
       id="path34"
       style="fill:#e6e6e6" />
    <path
       d="m544.52 626.58v335.2h110.95v-335.2zm32.305 207.05c0 6.4805-5.2695 11.746-11.746 11.746-6.4805 0-11.746-5.2695-11.746-11.746v-188.09c0-6.4805 5.2695-11.746 11.746-11.746 6.4805 0 11.746 5.2695 11.746 11.746zm34.918 83.109c0 6.5039-5.2695 11.746-11.746 11.746-6.4805 0-11.746-5.2422-11.746-11.746v-271.19c0-6.4805 5.2695-11.746 11.746-11.746 6.4805 0 11.746 5.2695 11.746 11.746zm34.922-83.109c0 6.4805-5.2695 11.746-11.746 11.746-6.4805 0-11.746-5.2695-11.746-11.746v-188.09c0-6.4805 5.2695-11.746 11.746-11.746 6.4805 0 11.746 5.2695 11.746 11.746z"
       id="path36"
       style="fill:#e6e6e6" />
  </g>
</svg>
