<?xml version="1.0" encoding="UTF-8" standalone="no"?>
<svg
   width="1200pt"
   height="1200pt"
   version="1.1"
   viewBox="0 0 1200 1200"
   id="svg4"
   sodipodi:docname="user.svg"
   inkscape:version="1.2.2 (b0a8486541, 2022-12-01)"
   xmlns:inkscape="http://www.inkscape.org/namespaces/inkscape"
   xmlns:sodipodi="http://sodipodi.sourceforge.net/DTD/sodipodi-0.dtd"
   xmlns="http://www.w3.org/2000/svg"
   xmlns:svg="http://www.w3.org/2000/svg">
  <defs
     id="defs8" />
  <sodipodi:namedview
     id="namedview6"
     pagecolor="#ffffff"
     bordercolor="#666666"
     borderopacity="1.0"
     inkscape:showpageshadow="2"
     inkscape:pageopacity="0.0"
     inkscape:pagecheckerboard="0"
     inkscape:deskcolor="#d1d1d1"
     inkscape:document-units="pt"
     showgrid="false"
     inkscape:zoom="0.33411686"
     inkscape:cx="589.61407"
     inkscape:cy="805.10754"
     inkscape:window-width="1674"
     inkscape:window-height="773"
     inkscape:window-x="1970"
     inkscape:window-y="89"
     inkscape:window-maximized="0"
     inkscape:current-layer="svg4" />
  <path
     d="m 599.99476,42.858042 c -307.3314,0 -557.136718,249.805318 -557.136718,557.136718 0,307.3314 249.805318,557.15724 557.136718,557.15724 307.3314,0 557.15724,-249.80536 557.15724,-557.15724 0,-307.35188 -249.80536,-557.136718 -557.15724,-557.136718 z m 0,61.902488 c 273.88886,0 495.24854,221.3597 495.24854,495.24857 0,273.88886 -221.35968,495.2486 -495.24854,495.2486 -273.86838,0 -495.24857,-221.35974 -495.24857,-495.2486 0,-273.86839 221.35971,-495.24857 495.24857,-495.24857 z m 0,139.29135 c -93.6514,0 -170.23337,76.58198 -170.23337,170.24156 0,93.6514 76.58197,170.24157 170.23337,170.24157 93.65959,0 170.24157,-76.58812 170.24157,-170.24157 0,-93.65958 -76.58198,-170.24156 -170.24157,-170.24156 z m 0,61.90248 c 60.20476,0 108.33908,48.14251 108.33908,108.33908 0,60.19862 -48.14251,108.33089 -108.33908,108.33089 -60.19657,0 -108.33089,-48.13432 -108.33089,-108.33089 0,-60.19861 48.13432,-108.33908 108.33089,-108.33908 z m 0,325.00495 c -125.87542,0 -232.15225,99.97128 -232.15225,224.41111 v 69.64567 c 0,8.20766 3.26398,16.07946 9.06369,21.87999 5.8077,5.80769 13.67949,9.07167 21.88817,9.07167 h 278.5786 c 8.27974,0.12001 16.27134,-3.09584 22.16669,-8.91173 5.90374,-5.81569 9.22363,-13.75957 9.22363,-22.03972 0,-8.28773 -3.31989,-16.23141 -9.22363,-22.04791 -5.89576,-5.81568 -13.88736,-9.02355 -22.16669,-8.91173 H 429.75893 V 855.3694 c 0,-88.98828 77.03662,-162.50657 170.23337,-162.50657 93.20495,0 170.24157,73.51624 170.24157,162.50657 v 69.64567 c -0.11202,8.27974 3.09584,16.27134 8.91173,22.16669 5.81568,5.90374 13.75957,9.22363 22.04791,9.22363 8.27974,0 16.22342,-3.31989 22.03972,-9.22363 5.81568,-5.89576 9.03174,-13.88736 8.91173,-22.16669 V 855.3694 c 0,-124.43574 -106.26863,-224.41111 -232.15225,-224.41111 z"
     id="path2"
     style="stroke-width:0.999999;fill:#e6e6e6" />
</svg>
