<?xml version="1.0" encoding="UTF-8"?>
<svg width="1200pt" height="1200pt" version="1.1" viewBox="0 0 1200 1200" xmlns="http://www.w3.org/2000/svg">
 <path d="m1088.8 111.24c-4.6797-4.6797-12.289-4.6797-16.969 0l-254.74 254.74c-59.281-55.055-135.72-85.512-217.05-85.512-85.344 0-165.6 33.238-225.96 93.574-121.73 121.73-124.18 317.83-8.0625 442.99l-254.74 254.76c-4.6797 4.6797-4.6797 12.289 0 16.969 2.3516 2.3516 5.4258 3.5039 8.4961 3.5039s6.1445-1.1758 8.4961-3.5039l254.73-254.73c59.281 55.055 135.74 85.512 217.03 85.512 85.344 0 165.6-33.238 225.96-93.602 60.359-60.359 93.602-140.57 93.574-225.96 0-81.312-30.48-157.78-85.512-217.03l254.73-254.73c4.7109-4.707 4.7109-12.289 0.007813-16.973zm-697.75 279.77c55.824-55.824 130.03-86.543 208.99-86.543 74.902 0 145.39 27.984 200.09 78.504l-417.12 417.12c-106.78-115.8-104.33-296.69 8.0391-409.08zm504.5 208.99c0.023437 78.961-30.719 153.17-86.543 208.99-55.824 55.824-130.05 86.566-208.99 86.566-74.902 0-145.34-27.984-200.06-78.504l417.14-417.14c50.492 54.723 78.453 125.16 78.453 200.09z"/>
</svg>
