<?xml version="1.0" encoding="UTF-8" standalone="no"?>
<svg
   width="1200pt"
   height="1200pt"
   version="1.1"
   viewBox="0 0 1200 1200"
   id="svg4"
   sodipodi:docname="warning.svg"
   inkscape:version="1.1.2 (0a00cf5339, 2022-02-04)"
   xmlns:inkscape="http://www.inkscape.org/namespaces/inkscape"
   xmlns:sodipodi="http://sodipodi.sourceforge.net/DTD/sodipodi-0.dtd"
   xmlns="http://www.w3.org/2000/svg"
   xmlns:svg="http://www.w3.org/2000/svg">
  <defs
     id="defs8" />
  <sodipodi:namedview
     id="namedview6"
     pagecolor="#ffffff"
     bordercolor="#666666"
     borderopacity="1.0"
     inkscape:pageshadow="2"
     inkscape:pageopacity="0.0"
     inkscape:pagecheckerboard="0"
     inkscape:document-units="pt"
     showgrid="false"
     inkscape:zoom="0.5275"
     inkscape:cx="800.94787"
     inkscape:cy="800.94787"
     inkscape:window-width="1920"
     inkscape:window-height="1016"
     inkscape:window-x="0"
     inkscape:window-y="27"
     inkscape:window-maximized="1"
     inkscape:current-layer="svg4" />
  <path
     d="m223.45 1e3h753.11c77.035 0 125.14-83.434 86.547-150.11l-376.55-650.41c-38.523-66.531-134.57-66.531-173.09 0l-376.56 650.41c-38.598 66.672 9.5078 150.11 86.543 150.11zm439.05-162.5c0 34.52-27.98 62.5-62.5 62.5s-62.5-27.98-62.5-62.5 27.98-62.5 62.5-62.5 62.5 27.98 62.5 62.5zm-12.5-387.5c0-27.613-22.387-50-50-50s-50 22.387-50 50v200c0 27.613 22.387 50 50 50s50-22.387 50-50z"
     fill-rule="evenodd"
     id="path2"
     style="fill:#e6e6e6" />
</svg>
