<?xml version="1.0" encoding="UTF-8" standalone="no"?>
<!-- Created with Inkscape (http://www.inkscape.org/) -->

<svg
   width="133.661mm"
   height="43.137001mm"
   viewBox="-8 -2 133.66099 43.137001"
   version="1.1"
   id="svg1337"
   inkscape:version="1.2.2 (b0a8486541, 2022-12-01)"
   sodipodi:docname="phaistos.svg"
   xmlns:inkscape="http://www.inkscape.org/namespaces/inkscape"
   xmlns:sodipodi="http://sodipodi.sourceforge.net/DTD/sodipodi-0.dtd"
   xmlns="http://www.w3.org/2000/svg"
   xmlns:svg="http://www.w3.org/2000/svg">
  <sodipodi:namedview
     id="namedview1339"
     pagecolor="#ffffff"
     bordercolor="#666666"
     borderopacity="1.0"
     inkscape:showpageshadow="2"
     inkscape:pageopacity="0.0"
     inkscape:pagecheckerboard="0"
     inkscape:deskcolor="#d1d1d1"
     inkscape:document-units="mm"
     showgrid="false"
     inkscape:zoom="1.4312683"
     inkscape:cx="251.52517"
     inkscape:cy="91.876555"
     inkscape:window-width="1674"
     inkscape:window-height="752"
     inkscape:window-x="50"
     inkscape:window-y="114"
     inkscape:window-maximized="0"
     inkscape:current-layer="layer1" />
  <defs
     id="defs1334" />
  <g
     inkscape:label="Calque 1"
     inkscape:groupmode="layer"
     id="layer1"
     transform="translate(-57.421502,-145.90186)">
    <path
       d="m 66.269608,146.80176 c -0.740834,0.9525 -0.776112,1.83444 -0.176389,6.56167 0.211666,1.55222 0.141111,1.69333 -0.705556,1.905 -0.670278,0.17639 -1.093611,0 -1.799167,-0.74084 -0.705555,-0.81139 -0.881944,-1.34055 -0.881944,-2.8575 0,-1.65805 -0.105834,-1.905 -0.670278,-1.905 -0.811389,0 -2.151945,2.01084 -2.151945,3.24556 0,0.49389 -0.105833,0.98778 -0.246944,1.12889 -0.141111,0.14111 -0.282222,1.55222 -0.3175,3.13972 -0.03528,1.69333 -0.282222,3.42195 -0.599722,4.1275 -0.282223,0.67028 -0.458611,1.72861 -0.352778,2.32833 0.105833,0.70556 -0.03528,1.23473 -0.388056,1.51695 -0.987778,0.81139 -0.635,1.905 1.164167,3.66889 1.481667,1.44639 1.905,1.65805 3.175,1.65805 0.811389,0 1.799167,0.17639 2.2225,0.38806 0.493889,0.28222 0.987778,0.28222 1.622778,0 1.128889,-0.42333 4.727223,-0.52917 8.854723,-0.24695 2.575278,0.17639 3.104445,0.3175 3.951111,1.12889 0.881945,0.84667 1.199445,0.91723 5.644445,1.09361 2.610556,0.10584 5.997223,0.21167 7.549445,0.21167 2.257778,0.0706 3.069167,0.21167 4.056945,0.84667 0.670278,0.45861 1.799167,0.81139 2.469444,0.81139 0.917223,0 1.516943,0.3175 2.540003,1.30528 1.30528,1.27 1.41111,1.30527 4.48028,1.44638 4.1275,0.21167 4.48027,0.52917 4.33916,4.05695 -0.0705,1.37583 -0.28222,2.71639 -0.49389,2.96333 -0.17639,0.24695 -0.28222,0.70556 -0.14111,0.98778 0.17639,0.49389 1.02306,0.52917 7.16139,0.35278 3.84528,-0.14111 7.65528,-0.24695 8.43139,-0.21167 0.91722,0.0353 1.62278,-0.17639 1.905,-0.49389 0.3175,-0.35278 1.12889,-0.52916 2.61056,-0.52916 1.62278,0 2.61055,-0.24695 4.09222,-0.9525 1.76389,-0.88195 2.29306,-0.98778 6.17361,-0.98778 3.21028,-0.0353 4.55083,-0.17639 5.60917,-0.635 1.05833,-0.45861 2.39889,-0.59972 6.17361,-0.59972 3.95111,0 5.18583,-0.14112 6.87917,-0.70556 1.72861,-0.635 2.54,-0.70556 5.29166,-0.52917 1.97556,0.14111 3.42195,0.42334 3.77473,0.74084 0.84666,0.77611 2.92805,0.59972 5.11527,-0.49389 1.79917,-0.84667 2.08139,-1.19945 3.21028,-3.38667 0.67028,-1.30528 1.23472,-2.89278 1.30528,-3.52778 0.0353,-0.59972 0.24694,-1.44639 0.49389,-1.86972 0.59972,-1.09361 0.52917,-1.905 -0.24695,-2.11667 -0.35277,-0.0705 -0.84666,-0.56444 -1.05833,-1.05833 -0.35278,-0.77611 -0.28222,-1.02306 0.67028,-2.08139 0.56444,-0.67028 1.05833,-1.62278 1.05833,-2.08139 0,-0.77611 -0.17639,-0.88194 -1.19944,-0.88194 -0.88195,0 -1.27,0.17639 -1.41111,0.635 -0.14111,0.38805 -0.56445,0.84666 -1.02306,1.09361 -0.42333,0.21167 -1.16417,0.9525 -1.62278,1.62278 -0.45861,0.67027 -1.19944,1.62277 -1.69333,2.15194 -0.77611,0.84667 -0.91722,0.88195 -1.44639,0.38806 -0.35278,-0.3175 -1.37583,-0.74084 -2.25778,-0.98778 -1.65805,-0.45861 -1.72861,-0.42333 -3.31611,0.67028 -0.98778,0.74083 -2.2225,1.23472 -3.24555,1.37583 -1.12889,0.14111 -1.97556,0.49389 -2.61056,1.12889 -0.49389,0.49389 -1.09361,1.05833 -1.34056,1.27 -0.21166,0.17639 -0.59972,0.67028 -0.84666,1.05833 -0.49389,0.67028 -0.49389,0.67028 -1.76389,0 -0.70556,-0.38805 -1.34056,-0.91722 -1.41111,-1.23472 -0.28222,-0.98778 0.0353,-2.75167 0.59972,-3.66889 0.67028,-0.98778 0.77611,-2.50472 0.24694,-2.8575 -0.24694,-0.14111 -0.17638,-0.49389 0.17639,-0.98778 0.98778,-1.44639 0.70556,-1.94027 -1.30527,-2.11666 -1.02306,-0.10584 -2.36362,-0.28223 -2.92806,-0.42334 -0.81139,-0.17639 -2.01083,0.14111 -4.7625,1.19945 -2.04611,0.81139 -4.02167,1.44639 -4.40972,1.44639 -0.35278,0 -1.23473,-0.56445 -1.94028,-1.23473 l -1.23472,-1.23472 -3.10445,0.35278 c -1.72861,0.21167 -3.31611,0.24694 -3.52778,0.10583 -0.24694,-0.17639 -1.76389,-0.28222 -3.42194,-0.28222 -2.96333,0 -2.99861,0 -3.06917,-0.88194 0,-0.49389 -0.0353,-1.05834 -0.0705,-1.30528 -0.0706,-0.88195 -2.29306,-1.48167 -5.50334,-1.44639 -1.72861,0 -3.42194,0.14111 -3.73944,0.3175 -0.35278,0.17639 -1.09361,0.14111 -1.76389,-0.0706 -0.67028,-0.17638 -2.29306,-0.35277 -3.66889,-0.38805 -2.04611,-0.0353 -2.78694,0.14111 -4.40972,0.9525 -2.08139,1.05833 -5.891391,2.04611 -7.584725,1.97555 -0.564444,0 -1.799167,0.21167 -2.681111,0.49389 -1.411111,0.49389 -1.763889,0.49389 -2.8575,0.0353 -1.234723,-0.52917 -1.27,-0.56444 -1.411112,-2.99861 -0.176388,-3.21028 -0.529166,-3.59833 -2.398889,-2.54 -1.093611,0.59972 -1.552222,0.70556 -2.116666,0.38805 -0.917223,-0.49388 -0.917223,-0.98777 0.07055,-1.12888 0.423334,-0.0706 1.058334,-0.59973 1.411111,-1.19945 0.635,-1.05833 0.635,-1.19944 0.07056,-2.61055 -0.635,-1.55223 -2.010834,-2.46945 -3.739445,-2.46945 -0.987778,0 -2.398889,0.91722 -2.398889,1.5875 0,0.24695 -0.458611,0.9525 -1.023055,1.55222 -1.164167,1.27 -2.504723,1.37584 -6.84389,0.67028 -2.822222,-0.45861 -3.386667,-0.91722 -3.421944,-2.68111 0,-0.635 -0.176389,-1.48167 -0.352778,-1.83444 -0.282222,-0.49389 -0.246945,-0.91723 0.07055,-1.41112 0.388056,-0.67027 0.352778,-0.84666 -0.388055,-1.44638 -1.128889,-0.91723 -2.328334,-0.84667 -3.175,0.24694 z"
       id="path106"
       style="fill:#e6e6e6;stroke:#000000;stroke-width:0.0352778" />
    <circle
       style="fill:#000000;stroke:#000000;stroke-width:0.3175"
       id="path1406"
       cx="113.63215"
       cy="180.01942"
       r="1.192672" />
  </g>
</svg>
